<?xml version="1.0" encoding="UTF-8"?>
<!DOCTYPE svg PUBLIC "-//W3C//DTD SVG 1.1//EN" "http://www.w3.org/Graphics/SVG/1.1/DTD/svg11.dtd">
<!-- Creator: CorelDRAW X7 -->
<svg xmlns="http://www.w3.org/2000/svg" xml:space="preserve" width="21.6746mm" height="21.6746mm" version="1.1" style="shape-rendering:geometricPrecision; text-rendering:geometricPrecision; image-rendering:optimizeQuality; fill-rule:evenodd; clip-rule:evenodd"
viewBox="0 0 2167 2167"
 xmlns:xlink="http://www.w3.org/1999/xlink">
 <defs>
  <style type="text/css">
   <![CDATA[
    .fil2 {fill:none}
    .fil45 {fill:#FEFEFE}
    .fil0 {fill:#CC272C}
    .fil1 {fill:#B7272B}
    .fil44 {fill:url(#id0)}
    .fil36 {fill:url(#id1)}
    .fil28 {fill:url(#id2)}
    .fil26 {fill:url(#id3)}
    .fil16 {fill:url(#id4)}
    .fil9 {fill:url(#id5)}
    .fil39 {fill:url(#id6)}
    .fil29 {fill:url(#id7)}
    .fil24 {fill:url(#id8)}
    .fil13 {fill:url(#id9)}
    .fil17 {fill:url(#id10)}
    .fil25 {fill:url(#id11)}
    .fil19 {fill:url(#id12)}
    .fil22 {fill:url(#id13)}
    .fil8 {fill:url(#id14)}
    .fil40 {fill:url(#id15)}
    .fil12 {fill:url(#id16)}
    .fil10 {fill:url(#id17)}
    .fil42 {fill:url(#id18)}
    .fil30 {fill:url(#id19)}
    .fil34 {fill:url(#id20)}
    .fil11 {fill:url(#id21)}
    .fil23 {fill:url(#id22)}
    .fil33 {fill:url(#id23)}
    .fil5 {fill:url(#id24)}
    .fil6 {fill:url(#id25)}
    .fil7 {fill:url(#id26)}
    .fil43 {fill:url(#id27)}
    .fil18 {fill:url(#id28)}
    .fil20 {fill:url(#id29)}
    .fil35 {fill:url(#id30)}
    .fil38 {fill:url(#id31)}
    .fil14 {fill:url(#id32)}
    .fil21 {fill:url(#id33)}
    .fil4 {fill:url(#id34)}
    .fil41 {fill:url(#id35)}
    .fil3 {fill:url(#id36)}
    .fil37 {fill:url(#id37)}
    .fil15 {fill:url(#id38)}
    .fil27 {fill:url(#id39)}
    .fil31 {fill:url(#id40)}
    .fil32 {fill:url(#id41)}
   ]]>
  </style>
  <linearGradient id="id0" gradientUnits="userSpaceOnUse" x1="1249.95" y1="537.36" x2="1258.72" y2="548.08">
   <stop offset="0" style="stop-opacity:1; stop-color:#332C2B"/>
   <stop offset="1" style="stop-opacity:1; stop-color:#332C2B"/>
  </linearGradient>
  <linearGradient id="id1" gradientUnits="userSpaceOnUse" xlink:href="#id0" x1="1742.07" y1="1684.2" x2="1751.03" y2="1695.15">
  </linearGradient>
  <linearGradient id="id2" gradientUnits="userSpaceOnUse" xlink:href="#id0" x1="1487.31" y1="1243.16" x2="1487.46" y2="1243.34">
  </linearGradient>
  <linearGradient id="id3" gradientUnits="userSpaceOnUse" xlink:href="#id0" x1="1483.7" y1="1243.93" x2="1483.75" y2="1244.01">
  </linearGradient>
  <linearGradient id="id4" gradientUnits="userSpaceOnUse" xlink:href="#id0" x1="1654.48" y1="1544.5" x2="1658.16" y2="1548.99">
  </linearGradient>
  <linearGradient id="id5" gradientUnits="userSpaceOnUse" xlink:href="#id0" x1="1649.28" y1="1438.88" x2="1658.44" y2="1450.08">
  </linearGradient>
  <linearGradient id="id6" gradientUnits="userSpaceOnUse" xlink:href="#id0" x1="1707.75" y1="1636.52" x2="1716.45" y2="1647.16">
  </linearGradient>
  <linearGradient id="id7" gradientUnits="userSpaceOnUse" xlink:href="#id0" x1="1487.64" y1="1243.16" x2="1487.69" y2="1243.24">
  </linearGradient>
  <linearGradient id="id8" gradientUnits="userSpaceOnUse" xlink:href="#id0" x1="1307.87" y1="591.32" x2="1316.57" y2="601.96">
  </linearGradient>
  <linearGradient id="id9" gradientUnits="userSpaceOnUse" xlink:href="#id0" x1="1647.2" y1="1573.62" x2="1650.99" y2="1578.23">
  </linearGradient>
  <linearGradient id="id10" gradientUnits="userSpaceOnUse" xlink:href="#id0" x1="1656.23" y1="1534.56" x2="1659.71" y2="1538.82">
  </linearGradient>
  <linearGradient id="id11" gradientUnits="userSpaceOnUse" xlink:href="#id0" x1="1483.03" y1="1244.07" x2="1483.08" y2="1244.12">
  </linearGradient>
  <linearGradient id="id12" gradientUnits="userSpaceOnUse" xlink:href="#id0" x1="1658.34" y1="1514.4" x2="1661.72" y2="1518.51">
  </linearGradient>
  <linearGradient id="id13" gradientUnits="userSpaceOnUse" xlink:href="#id0" x1="1233.97" y1="525.87" x2="1242.62" y2="536.44">
  </linearGradient>
  <linearGradient id="id14" gradientUnits="userSpaceOnUse" xlink:href="#id0" x1="1653.51" y1="1461.28" x2="1662.36" y2="1472.05">
  </linearGradient>
  <linearGradient id="id15" gradientUnits="userSpaceOnUse" xlink:href="#id0" x1="1694.24" y1="1621.26" x2="1702.92" y2="1631.88">
  </linearGradient>
  <linearGradient id="id16" gradientUnits="userSpaceOnUse" xlink:href="#id0" x1="1625.68" y1="1376.7" x2="1635.44" y2="1388.65">
  </linearGradient>
  <linearGradient id="id17" gradientUnits="userSpaceOnUse" xlink:href="#id0" x1="1643.17" y1="1417.25" x2="1652.6" y2="1428.78">
  </linearGradient>
  <linearGradient id="id18" gradientUnits="userSpaceOnUse" xlink:href="#id0" x1="1518.82" y1="1272.51" x2="1527.83" y2="1283.5">
  </linearGradient>
  <linearGradient id="id19" gradientUnits="userSpaceOnUse" xlink:href="#id0" x1="1488.36" y1="1243" x2="1488.46" y2="1243.1">
  </linearGradient>
  <linearGradient id="id20" gradientUnits="userSpaceOnUse" xlink:href="#id0" x1="1509.52" y1="1270.3" x2="1512.06" y2="1273.43">
  </linearGradient>
  <linearGradient id="id21" gradientUnits="userSpaceOnUse" xlink:href="#id0" x1="1635.26" y1="1396.5" x2="1644.89" y2="1408.28">
  </linearGradient>
  <linearGradient id="id22" gradientUnits="userSpaceOnUse" xlink:href="#id0" x1="1217.39" y1="515.16" x2="1225.94" y2="525.6">
  </linearGradient>
  <linearGradient id="id23" gradientUnits="userSpaceOnUse" xlink:href="#id0" x1="1496.53" y1="1264.26" x2="1501.22" y2="1269.99">
  </linearGradient>
  <linearGradient id="id24" gradientUnits="userSpaceOnUse" xlink:href="#id0" x1="1587.65" y1="1323.92" x2="1597.51" y2="1335.98">
  </linearGradient>
  <linearGradient id="id25" gradientUnits="userSpaceOnUse" xlink:href="#id0" x1="1572.2" y1="1308.84" x2="1581.99" y2="1320.79">
  </linearGradient>
  <linearGradient id="id26" gradientUnits="userSpaceOnUse" xlink:href="#id0" x1="1555.55" y1="1295.19" x2="1565.16" y2="1306.95">
  </linearGradient>
  <linearGradient id="id27" gradientUnits="userSpaceOnUse" xlink:href="#id0" x1="1542.48" y1="1286.87" x2="1548.71" y2="1294.49">
  </linearGradient>
  <linearGradient id="id28" gradientUnits="userSpaceOnUse" xlink:href="#id0" x1="1657.44" y1="1524.69" x2="1660.92" y2="1528.95">
  </linearGradient>
  <linearGradient id="id29" gradientUnits="userSpaceOnUse" xlink:href="#id0" x1="1655.89" y1="1484.45" x2="1664.14" y2="1494.51">
  </linearGradient>
  <linearGradient id="id30" gradientUnits="userSpaceOnUse" xlink:href="#id0" x1="1651.26" y1="1581.6" x2="1659.51" y2="1591.69">
  </linearGradient>
  <linearGradient id="id31" gradientUnits="userSpaceOnUse" xlink:href="#id0" x1="1719.71" y1="1651.51" x2="1728.72" y2="1662.51">
  </linearGradient>
  <linearGradient id="id32" gradientUnits="userSpaceOnUse" xlink:href="#id0" x1="1650.09" y1="1564.16" x2="1653.67" y2="1568.52">
  </linearGradient>
  <linearGradient id="id33" gradientUnits="userSpaceOnUse" xlink:href="#id0" x1="1453.59" y1="1252.68" x2="1457.52" y2="1257.48">
  </linearGradient>
  <linearGradient id="id34" gradientUnits="userSpaceOnUse" xlink:href="#id0" x1="1601.76" y1="1340.3" x2="1611.68" y2="1352.41">
  </linearGradient>
  <linearGradient id="id35" gradientUnits="userSpaceOnUse" xlink:href="#id0" x1="1680.53" y1="1607.25" x2="1689.49" y2="1618.17">
  </linearGradient>
  <linearGradient id="id36" gradientUnits="userSpaceOnUse" xlink:href="#id0" x1="1614.48" y1="1357.95" x2="1624.34" y2="1370">
  </linearGradient>
  <linearGradient id="id37" gradientUnits="userSpaceOnUse" xlink:href="#id0" x1="1731.28" y1="1667.56" x2="1740.28" y2="1678.55">
  </linearGradient>
  <linearGradient id="id38" gradientUnits="userSpaceOnUse" xlink:href="#id0" x1="1652.49" y1="1554.28" x2="1656.14" y2="1558.75">
  </linearGradient>
  <linearGradient id="id39" gradientUnits="userSpaceOnUse" xlink:href="#id0" x1="1483.84" y1="1243.92" x2="1483.89" y2="1243.97">
  </linearGradient>
  <linearGradient id="id40" gradientUnits="userSpaceOnUse" xlink:href="#id0" x1="1479.3" y1="1257.02" x2="1487.22" y2="1266.71">
  </linearGradient>
  <linearGradient id="id41" gradientUnits="userSpaceOnUse" xlink:href="#id0" x1="1467.41" y1="1257.37" x2="1467.56" y2="1257.58">
  </linearGradient>
 </defs>
 <g id="Layer_x0020_1">
  <metadata id="CorelCorpID_0Corel-Layer"/>
  <g id="_678523664">
   <rect class="fil0" width="2167" height="2167" rx="416" ry="416"/>
   <path class="fil1" d="M1289 2167l-873 0c-229,0 -416,-187 -416,-416l0 -654 605 -614c13,-13 30,-21 50,-21l300 0c38,0 69,32 69,70l0 0c0,19 -7,36 -20,49l-156 158 107 0c11,0 21,3 30,7l228 -231c58,-33 126,-53 197,-53 218,0 394,177 394,395 0,110 -45,210 -118,281l-43 44c98,72 161,188 161,319 0,72 -19,139 -52,197l-463 469z"/>
   <line class="fil2" x1="1487" y1="1243" x2="1487" y2= "1243" />
   <line class="fil2" x1="1483" y1="1244" x2="1483" y2= "1244" />
   <path class="fil3" d="M1613 1355l12 18c-3,-6 -7,-12 -12,-18z"/>
   <path class="fil4" d="M1600 1338l13 17c-4,-6 -8,-12 -13,-17z"/>
   <path class="fil5" d="M1585 1322l15 16c-5,-6 -10,-11 -15,-16z"/>
   <path class="fil6" d="M1569 1308l16 14c-5,-5 -10,-10 -16,-14z"/>
   <path class="fil7" d="M1552 1295l17 13c-6,-5 -11,-9 -17,-13z"/>
   <path class="fil8" d="M1656 1455l3 23c0,-8 -1,-15 -3,-23z"/>
   <path class="fil9" d="M1651 1434l5 21c-1,-7 -3,-14 -5,-21z"/>
   <path class="fil10" d="M1644 1412l7 22c-2,-8 -4,-15 -7,-22z"/>
   <path class="fil11" d="M1636 1392l8 20c-2,-6 -5,-13 -8,-20z"/>
   <path class="fil12" d="M1625 1373l11 19c-3,-6 -7,-13 -11,-19z"/>
   <polyline class="fil2" points="1648,1580 1648,1580 1648,1581 "/>
   <path class="fil13" d="M1650 1572l-2 8c1,-3 2,-5 2,-8z"/>
   <path class="fil14" d="M1653 1562l-2 9c1,-3 1,-6 2,-9z"/>
   <path class="fil15" d="M1655 1552l-2 9c1,-3 2,-6 2,-9z"/>
   <path class="fil16" d="M1657 1542l-2 9c1,-3 2,-6 2,-9z"/>
   <path class="fil17" d="M1659 1532l-2 9c1,-3 1,-6 2,-9z"/>
   <path class="fil18" d="M1660 1522l-1 10c0,-4 0,-7 1,-10z"/>
   <path class="fil19" d="M1660 1512l0 9c0,-3 0,-6 0,-9z"/>
   <path class="fil2" d="M1661 1501l0 0 0 0 0 1c0,3 -1,6 -1,9l1 -9"/>
   <path class="fil20" d="M1659 1478l2 23c0,-8 -1,-15 -2,-23z"/>
   <path class="fil21" d="M1461 1256l0 0c-4,-1 -7,-1 -11,-2l11 2z"/>
   <path class="fil2" d="M1277 561c5,5 10,9 15,14 4,4 9,9 14,14"/>
   <path class="fil22" d="M1230 526l16 11c-5,-4 -10,-8 -16,-11z"/>
   <path class="fil23" d="M1213 515l17 11c-5,-4 -11,-7 -17,-11z"/>
   <line class="fil2" x1="1319" y1="604" x2="1330" y2= "619" />
   <path class="fil2" d="M1340 617c-3,0 -6,1 -9,2"/>
   <path class="fil2" d="M1349 614c-2,1 -5,1 -8,2"/>
   <path class="fil2" d="M1359 612c-3,0 -6,1 -9,2"/>
   <path class="fil2" d="M1369 610c-3,0 -6,1 -9,1"/>
   <path class="fil2" d="M1379 608c-3,1 -6,1 -9,2"/>
   <path class="fil2" d="M1389 607c-3,1 -6,1 -9,1"/>
   <path class="fil2" d="M1399 607c-3,0 -6,0 -9,0"/>
   <path class="fil2" d="M1410 606c-3,0 -6,0 -9,1"/>
   <path class="fil2" d="M1587 1034c6,-6 11,-12 16,-18 6,-6 10,-13 15,-19 4,-7 8,-14 12,-21 4,-7 8,-14 11,-22 3,-7 6,-15 8,-23 3,-8 5,-16 6,-24 2,-8 3,-16 4,-25 1,-8 2,-17 2,-25 0,-9 -1,-18 -2,-26 -1,-8 -2,-17 -4,-25 -1,-8 -3,-16 -6,-24 -2,-8 -5,-15 -8,-23 -3,-7 -7,-15 -11,-22 -4,-7 -8,-14 -12,-20 -5,-7 -9,-13 -15,-20 -5,-6 -10,-12 -16,-17 -5,-6 -11,-11 -18,-16 -6,-6 -12,-10 -19,-15 -6,-4 -13,-9 -20,-12 -8,-4 -15,-8 -22,-11 -8,-3 -15,-6 -23,-8 -8,-3 -16,-5 -24,-7 -8,-1 -17,-2 -25,-3 -9,-1 -17,-2 -26,-2"/>
   <path class="fil2" d="M1319 604l0 0 0 0c4,5 8,10 11,15l1 0 0 0 -390 395 14 0"/>
   <path class="fil24" d="M1306 589l13 15c-5,-5 -9,-10 -13,-15z"/>
   <path class="fil2" d="M1262 549l0 0 1 0c5,4 9,8 14,12l-14 -12"/>
   <polyline class="fil2" points="1482,1244 1482,1244 1481,1244 "/>
   <polyline class="fil2" points="1484,1244 1484,1244 1484,1244 "/>
   <line class="fil2" x1="1485" y1="1244" x2="1485" y2= "1244" />
   <line class="fil2" x1="1486" y1="1243" x2="1486" y2= "1243" />
   <polygon class="fil25" points="1483,1244 1483,1244 1483,1244 1483,1244 "/>
   <polyline class="fil2" points="1484,1244 1484,1244 1483,1244 1483,1244 1483,1244 1483,1244 1483,1244 1483,1244 1483,1244 1483,1244 "/>
   <polygon class="fil26" points="1484,1244 1484,1244 1484,1244 "/>
   <polygon class="fil27" points="1484,1244 1484,1244 1484,1244 "/>
   <polyline class="fil2" points="1486,1244 1486,1244 1486,1244 1485,1244 1485,1244 1485,1244 1485,1244 1485,1244 1485,1244 1486,1244 "/>
   <polyline class="fil2" points="1487,1243 1487,1243 1487,1243 1487,1243 1487,1243 "/>
   <polygon class="fil28" points="1488,1243 1488,1243 1487,1243 1487,1243 1487,1243 1487,1243 1487,1243 1487,1243 1487,1243 "/>
   <polygon class="fil29" points="1488,1243 1488,1243 1488,1243 "/>
   <polygon class="fil30" points="1489,1243 1489,1243 1488,1243 1488,1243 1488,1243 1488,1243 "/>
   <path class="fil31" d="M1473 1259l0 0c7,2 14,4 20,6l-20 -6z"/>
   <polygon class="fil32" points="1468,1257 1468,1258 1467,1258 1467,1257 "/>
   <path class="fil33" d="M1504 1269l1 0c-4,-1 -8,-3 -12,-4l11 4z"/>
   <polygon class="fil34" points="1508,1271 1508,1271 1514,1273 "/>
   <path class="fil2" d="M1663 1592l0 1 0 0 14 12c-4,-4 -9,-8 -14,-12"/>
   <path class="fil35" d="M1648 1581l15 11c-5,-4 -10,-7 -15,-11z"/>
   <path class="fil36" d="M1741 1681l11 17c-4,-6 -7,-11 -11,-17z"/>
   <path class="fil37" d="M1730 1665l11 16c-3,-5 -7,-11 -11,-16z"/>
   <path class="fil38" d="M1718 1649l12 16c-4,-5 -8,-11 -12,-16z"/>
   <path class="fil39" d="M1706 1635l12 14c-4,-5 -8,-10 -12,-14z"/>
   <path class="fil40" d="M1692 1620l13 14c-4,-5 -8,-10 -13,-14z"/>
   <path class="fil41" d="M1678 1606l14 14c-5,-5 -9,-10 -14,-14z"/>
   <path class="fil42" d="M1533 1283l0 0c-6,-4 -13,-7 -19,-10l19 10z"/>
   <path class="fil43" d="M1540 1287l0 0 12 8c-4,-3 -8,-6 -12,-8z"/>
   <path class="fil44" d="M1246 537l16 12c-5,-4 -10,-8 -16,-12z"/>
   <path class="fil45" d="M1410 462c218,0 394,177 394,395 0,135 -68,255 -173,326l6 -4c101,71 167,189 167,322 0,72 -19,139 -52,197 -27,-46 -62,-86 -104,-117 8,-25 13,-52 13,-80 0,-125 -92,-228 -211,-247 -36,181 -195,318 -387,318 -6,0 -12,0 -18,-1 43,-43 75,-96 95,-155 82,-26 146,-94 166,-179 -33,-9 -64,-22 -93,-39 46,-26 86,-62 118,-104 25,8 52,13 79,13 139,0 251,-112 251,-250 0,-139 -112,-251 -251,-251 -27,0 -54,5 -79,13 -32,-42 -72,-77 -118,-104 58,-33 126,-53 197,-53zm-386 70l0 0c0,-38 -31,-70 -69,-70l-300 0c-39,0 -70,32 -70,70l0 0c0,38 31,69 70,69l300 0c38,0 69,-31 69,-69zm0 277l0 0c0,-39 -31,-70 -69,-70l-439 0c-38,0 -69,31 -69,70l0 0c0,38 31,69 69,69l439 0c38,0 69,-31 69,-69zm0 827l0 0c0,-39 -31,-70 -69,-70l-302 0c-38,0 -69,31 -69,70l0 0c0,38 31,69 69,69l302 0c38,0 69,-31 69,-69zm0 -278l0 0c0,-38 -31,-69 -69,-69l-435 0c-38,0 -69,31 -69,69l0 0c0,38 31,69 69,69l435 0c38,0 69,-31 69,-69zm0 -274l0 0c0,-38 -31,-70 -69,-70l-523 0c-38,0 -69,32 -69,70l0 0c0,38 31,69 69,69l523 0c38,0 69,-31 69,-69zm530 140c-2,1 -5,2 -8,3 3,-1 6,-2 8,-3zm-65 19c-3,1 -6,1 -9,2 3,-1 6,-1 9,-2zm-9 2c-3,0 -6,1 -9,1 3,0 6,-1 9,-1zm-40 5l0 0 0 0zm0 0l0 0 0 0zm0 0l-1 0 1 0zm-1 0l0 0 0 0zm0 0l0 0 0 0zm0 0l-1 0 1 0zm-1 0l0 0 0 0zm0 0l0 0 0 0zm0 0l0 0 0 0zm0 0l-1 0 1 0zm-1 0l0 0 0 0zm0 0l-1 0 1 0zm-1 0l0 0 0 0zm0 0l0 0 0 0zm0 0l0 0 0 0zm0 0l0 0 0 0zm0 0l0 0 0 0zm0 0l-1 0 1 0zm-1 0l0 0 0 0zm0 0l-2 0 2 0zm-2 0l0 0 0 0zm0 0l0 0 0 0zm0 0l-1 0 1 0zm-1 0l0 0 0 0zm0 0l-1 0 1 0zm-1 0l0 0 0 0zm0 0l0 0 0 0zm0 0l-1 0 1 0zm-1 0l0 0 0 0zm0 0l0 0 0 0zm0 0l0 0 0 0zm0 0l0 0 0 0zm0 0l-1 0 1 0zm-1 0l-1 0 1 0zm-1 0l0 0 0 0zm0 0l0 0 0 0zm0 0l0 0 0 0zm0 0l0 0 0 0zm0 0l-1 0 1 0zm-1 0l0 0 0 0zm0 0l0 0 0 0zm0 0l0 0 0 0zm0 0l-1 0 1 0zm-1 0l-1 1 1 -1zm-1 1l0 0 0 0zm0 0l0 0 0 0zm0 0l0 0 0 0zm0 0l-1 0 1 0zm-1 0l0 0 0 0zm0 0l0 0 0 0zm0 0l-1 0 1 0zm-1 0l0 0 0 0zm0 0l0 0 0 0zm0 0l0 0 0 0zm0 0l-1 0 1 0zm-1 0l0 0 0 0zm0 0l0 0 0 0zm0 0l0 0 0 0zm0 0l0 0 0 0zm0 0l-1 0 1 0zm-1 0l0 0 0 0zm0 0l0 0 0 0zm-1 0l0 0 0 0zm0 0l0 0 0 0zm0 0l-1 0 1 0zm-1 0l0 0 0 0zm0 0l0 0 0 0zm0 0l0 0 0 0zm0 0l0 0 0 0zm0 0l0 0 0 0zm0 0l0 0 0 0zm0 0l0 0 0 0zm0 0l0 0 0 0zm0 0l-1 0 1 0zm-1 0l0 0 0 0zm0 0l0 0 0 0zm0 0l0 0 0 0zm0 0l0 0 0 0zm0 0l0 0 0 0zm0 0l0 0 0 0zm0 0l0 0 0 0zm0 0l-1 0 1 0zm-1 0l0 0 0 0zm0 0l0 0 0 0zm0 0l0 0 0 0zm0 0l0 0 0 0zm0 0l0 0 0 0zm0 0l0 0 0 0zm0 0l0 0 0 0zm0 0l-1 0 1 0zm-1 0l0 0 0 0zm0 0l0 0 0 0zm0 0l0 0 0 0zm0 0l0 0 0 0zm0 0l0 0 0 0zm0 0l0 0 0 0zm0 0l0 0 0 0zm0 0l-1 0 1 0zm-1 0l0 0 0 0zm0 0l0 0 0 0zm0 0l0 0 0 0zm0 0l0 0 0 0zm0 0l0 0 0 0zm0 0l0 0 0 0zm0 0l0 0 0 0zm0 0l-1 0 1 0zm-1 0l0 0 0 0zm0 0l0 0 0 0zm0 0l0 0 0 0zm0 0l0 0 0 0zm0 0l0 0 0 0zm0 0l0 0 0 0zm0 0l0 0 0 0zm0 0l-1 0 1 0zm-1 0l0 0 0 0zm0 0l0 0 0 0zm0 0l0 0 0 0zm0 0l0 0 0 0zm0 0l0 0 0 0zm0 0l0 0 0 0zm0 0l0 0 0 0zm0 0l-1 0 1 0zm-1 0l0 0 0 0zm0 0l0 0 0 0zm0 0l0 0 0 0zm0 0l0 0 0 0zm0 0l0 0 0 0zm0 0l0 0 0 0zm0 0l0 0 0 0zm0 0l0 0 0 0zm0 0l-1 0 1 0zm-1 0l0 0 0 0zm0 0l0 0 0 0zm0 0l0 0 0 0zm0 0l0 0 0 0zm0 0l0 0 0 0zm0 0l0 0 0 0zm0 0l-1 0 1 0zm-1 0l0 0 0 0z"/>
  </g>
 </g>
</svg>
