<?xml version="1.0" encoding="UTF-8"?>
<!DOCTYPE svg PUBLIC "-//W3C//DTD SVG 1.1//EN" "http://www.w3.org/Graphics/SVG/1.1/DTD/svg11.dtd">
<!-- Creator: CorelDRAW X7 -->
<svg xmlns="http://www.w3.org/2000/svg" xml:space="preserve" width="4.0638mm" height="4.0638mm" version="1.1" style="shape-rendering:geometricPrecision; text-rendering:geometricPrecision; image-rendering:optimizeQuality; fill-rule:evenodd; clip-rule:evenodd"
viewBox="0 0 406 406"
 xmlns:xlink="http://www.w3.org/1999/xlink">
 <defs>
  <style type="text/css">
   <![CDATA[
    .fil2 {fill:none}
    .fil45 {fill:#FEFEFE}
    .fil0 {fill:#CC272C}
    .fil1 {fill:#B7272B}
    .fil6 {fill:url(#id0)}
    .fil34 {fill:url(#id1)}
    .fil27 {fill:url(#id2)}
    .fil31 {fill:url(#id3)}
    .fil15 {fill:url(#id4)}
    .fil4 {fill:url(#id5)}
    .fil30 {fill:url(#id6)}
    .fil32 {fill:url(#id7)}
    .fil21 {fill:url(#id8)}
    .fil17 {fill:url(#id9)}
    .fil11 {fill:url(#id10)}
    .fil44 {fill:url(#id11)}
    .fil43 {fill:url(#id12)}
    .fil10 {fill:url(#id13)}
    .fil28 {fill:url(#id14)}
    .fil20 {fill:url(#id15)}
    .fil19 {fill:url(#id16)}
    .fil16 {fill:url(#id17)}
    .fil38 {fill:url(#id18)}
    .fil18 {fill:url(#id19)}
    .fil37 {fill:url(#id20)}
    .fil7 {fill:url(#id21)}
    .fil24 {fill:url(#id22)}
    .fil5 {fill:url(#id23)}
    .fil35 {fill:url(#id24)}
    .fil40 {fill:url(#id25)}
    .fil41 {fill:url(#id26)}
    .fil22 {fill:url(#id27)}
    .fil23 {fill:url(#id28)}
    .fil29 {fill:url(#id29)}
    .fil33 {fill:url(#id30)}
    .fil39 {fill:url(#id31)}
    .fil12 {fill:url(#id32)}
    .fil36 {fill:url(#id33)}
    .fil3 {fill:url(#id34)}
    .fil14 {fill:url(#id35)}
    .fil26 {fill:url(#id36)}
    .fil42 {fill:url(#id37)}
    .fil9 {fill:url(#id38)}
    .fil13 {fill:url(#id39)}
    .fil8 {fill:url(#id40)}
    .fil25 {fill:url(#id41)}
   ]]>
  </style>
  <linearGradient id="id0" gradientUnits="userSpaceOnUse" x1="294.82" y1="245.44" x2="296.59" y2="247.61">
   <stop offset="0" style="stop-opacity:1; stop-color:#332C2B"/>
   <stop offset="1" style="stop-opacity:1; stop-color:#332C2B"/>
  </linearGradient>
  <linearGradient id="id1" gradientUnits="userSpaceOnUse" xlink:href="#id0" x1="283.04" y1="238.19" x2="283.51" y2="238.76">
  </linearGradient>
  <linearGradient id="id2" gradientUnits="userSpaceOnUse" xlink:href="#id0" x1="278.22" y1="233.24" x2="278.23" y2="233.24">
  </linearGradient>
  <linearGradient id="id3" gradientUnits="userSpaceOnUse" xlink:href="#id0" x1="277.39" y1="235.72" x2="278.83" y2="237.48">
  </linearGradient>
  <linearGradient id="id4" gradientUnits="userSpaceOnUse" xlink:href="#id0" x1="309.84" y1="291.43" x2="310.53" y2="292.26">
  </linearGradient>
  <linearGradient id="id5" gradientUnits="userSpaceOnUse" xlink:href="#id0" x1="300.36" y1="251.34" x2="302.16" y2="253.54">
  </linearGradient>
  <linearGradient id="id6" gradientUnits="userSpaceOnUse" xlink:href="#id0" x1="279.07" y1="233.06" x2="279.08" y2="233.08">
  </linearGradient>
  <linearGradient id="id7" gradientUnits="userSpaceOnUse" xlink:href="#id0" x1="275.14" y1="235.76" x2="275.16" y2="235.79">
  </linearGradient>
  <linearGradient id="id8" gradientUnits="userSpaceOnUse" xlink:href="#id0" x1="272.54" y1="234.88" x2="273.29" y2="235.78">
  </linearGradient>
  <linearGradient id="id9" gradientUnits="userSpaceOnUse" xlink:href="#id0" x1="310.55" y1="287.74" x2="311.19" y2="288.52">
  </linearGradient>
  <linearGradient id="id10" gradientUnits="userSpaceOnUse" xlink:href="#id0" x1="306.64" y1="261.88" x2="308.39" y2="264.02">
  </linearGradient>
  <linearGradient id="id11" gradientUnits="userSpaceOnUse" xlink:href="#id0" x1="234.36" y1="100.75" x2="236.01" y2="102.76">
  </linearGradient>
  <linearGradient id="id12" gradientUnits="userSpaceOnUse" xlink:href="#id0" x1="289.23" y1="241.31" x2="290.37" y2="242.69">
  </linearGradient>
  <linearGradient id="id13" gradientUnits="userSpaceOnUse" xlink:href="#id0" x1="308.09" y1="265.74" x2="309.86" y2="267.89">
  </linearGradient>
  <linearGradient id="id14" gradientUnits="userSpaceOnUse" xlink:href="#id0" x1="278.87" y1="233.09" x2="278.9" y2="233.12">
  </linearGradient>
  <linearGradient id="id15" gradientUnits="userSpaceOnUse" xlink:href="#id0" x1="310.48" y1="278.33" x2="312.02" y2="280.22">
  </linearGradient>
  <linearGradient id="id16" gradientUnits="userSpaceOnUse" xlink:href="#id0" x1="310.95" y1="283.94" x2="311.56" y2="284.73">
  </linearGradient>
  <linearGradient id="id17" gradientUnits="userSpaceOnUse" xlink:href="#id0" x1="310.23" y1="289.6" x2="310.89" y2="290.43">
  </linearGradient>
  <linearGradient id="id18" gradientUnits="userSpaceOnUse" xlink:href="#id0" x1="322.47" y1="309.69" x2="324.11" y2="311.69">
  </linearGradient>
  <linearGradient id="id19" gradientUnits="userSpaceOnUse" xlink:href="#id0" x1="310.77" y1="285.88" x2="311.42" y2="286.68">
  </linearGradient>
  <linearGradient id="id20" gradientUnits="userSpaceOnUse" xlink:href="#id0" x1="324.64" y1="312.7" x2="326.28" y2="314.7">
  </linearGradient>
  <linearGradient id="id21" gradientUnits="userSpaceOnUse" xlink:href="#id0" x1="291.66" y1="242.85" x2="293.47" y2="245.05">
  </linearGradient>
  <linearGradient id="id22" gradientUnits="userSpaceOnUse" xlink:href="#id0" x1="245.24" y1="110.9" x2="246.84" y2="112.84">
  </linearGradient>
  <linearGradient id="id23" gradientUnits="userSpaceOnUse" xlink:href="#id0" x1="297.71" y1="248.27" x2="299.51" y2="250.46">
  </linearGradient>
  <linearGradient id="id24" gradientUnits="userSpaceOnUse" xlink:href="#id0" x1="309.63" y1="296.58" x2="311.14" y2="298.41">
  </linearGradient>
  <linearGradient id="id25" gradientUnits="userSpaceOnUse" xlink:href="#id0" x1="317.69" y1="304.01" x2="319.27" y2="305.95">
  </linearGradient>
  <linearGradient id="id26" gradientUnits="userSpaceOnUse" xlink:href="#id0" x1="315.12" y1="301.39" x2="316.75" y2="303.38">
  </linearGradient>
  <linearGradient id="id27" gradientUnits="userSpaceOnUse" xlink:href="#id0" x1="231.39" y1="98.63" x2="232.97" y2="100.55">
  </linearGradient>
  <linearGradient id="id28" gradientUnits="userSpaceOnUse" xlink:href="#id0" x1="228.26" y1="96.59" x2="229.86" y2="98.55">
  </linearGradient>
  <linearGradient id="id29" gradientUnits="userSpaceOnUse" xlink:href="#id0" x1="278.93" y1="233.1" x2="278.94" y2="233.1">
  </linearGradient>
  <linearGradient id="id30" gradientUnits="userSpaceOnUse" xlink:href="#id0" x1="280.59" y1="237.03" x2="281.49" y2="238.14">
  </linearGradient>
  <linearGradient id="id31" gradientUnits="userSpaceOnUse" xlink:href="#id0" x1="320.22" y1="306.87" x2="321.81" y2="308.81">
  </linearGradient>
  <linearGradient id="id32" gradientUnits="userSpaceOnUse" xlink:href="#id0" x1="304.81" y1="258.13" x2="306.64" y2="260.37">
  </linearGradient>
  <linearGradient id="id33" gradientUnits="userSpaceOnUse" xlink:href="#id0" x1="326.66" y1="315.81" x2="328.29" y2="317.81">
  </linearGradient>
  <linearGradient id="id34" gradientUnits="userSpaceOnUse" xlink:href="#id0" x1="302.74" y1="254.64" x2="304.54" y2="256.84">
  </linearGradient>
  <linearGradient id="id35" gradientUnits="userSpaceOnUse" xlink:href="#id0" x1="309.39" y1="293.28" x2="310.06" y2="294.1">
  </linearGradient>
  <linearGradient id="id36" gradientUnits="userSpaceOnUse" xlink:href="#id0" x1="278.19" y1="233.24" x2="278.2" y2="233.25">
  </linearGradient>
  <linearGradient id="id37" gradientUnits="userSpaceOnUse" xlink:href="#id0" x1="284.78" y1="238.59" x2="286.47" y2="240.66">
  </linearGradient>
  <linearGradient id="id38" gradientUnits="userSpaceOnUse" xlink:href="#id0" x1="309.26" y1="269.82" x2="310.93" y2="271.86">
  </linearGradient>
  <linearGradient id="id39" gradientUnits="userSpaceOnUse" xlink:href="#id0" x1="308.86" y1="295.06" x2="309.55" y2="295.91">
  </linearGradient>
  <linearGradient id="id40" gradientUnits="userSpaceOnUse" xlink:href="#id0" x1="310.06" y1="274.01" x2="311.67" y2="275.98">
  </linearGradient>
  <linearGradient id="id41" gradientUnits="userSpaceOnUse" xlink:href="#id0" x1="278.07" y1="233.26" x2="278.08" y2="233.27">
  </linearGradient>
 </defs>
 <g id="Layer_x0020_1">
  <metadata id="CorelCorpID_0Corel-Layer"/>
  <g id="_810898368">
   <rect class="fil0" width="406" height="406" rx="78" ry="78"/>
   <path class="fil1" d="M242 406l-164 0c-43,0 -78,-35 -78,-78l0 -122 114 -115c2,-3 5,-4 9,-4l56 0c7,0 13,6 13,13l0 0c0,3 -1,7 -4,9l-29 30 20 0c2,0 4,0 6,1l42 -43c11,-7 24,-10 37,-10 41,0 74,33 74,74 0,20 -8,39 -22,52l-8 9c18,13 30,35 30,59 0,14 -3,27 -10,37l-86 88z"/>
   <line class="fil2" x1="279" y1="233" x2="279" y2= "233" />
   <line class="fil2" x1="278" y1="233" x2="278" y2= "233" />
   <path class="fil3" d="M303 254l2 3c-1,-1 -2,-2 -2,-3z"/>
   <path class="fil4" d="M300 251l3 3c-1,-1 -2,-2 -3,-3z"/>
   <path class="fil5" d="M297 248l3 3c-1,-1 -2,-2 -3,-3z"/>
   <path class="fil6" d="M294 245l3 3c-1,-1 -2,-2 -3,-3z"/>
   <path class="fil7" d="M291 243l3 2c-1,-1 -2,-1 -3,-2z"/>
   <path class="fil8" d="M311 273l0 4c0,-1 0,-3 0,-4z"/>
   <path class="fil9" d="M310 269l1 4c-1,-1 -1,-3 -1,-4z"/>
   <path class="fil10" d="M308 265l2 4c-1,-2 -1,-3 -2,-4z"/>
   <path class="fil11" d="M307 261l1 4c0,-1 -1,-3 -1,-4z"/>
   <path class="fil12" d="M305 257l2 4c-1,-1 -2,-2 -2,-4z"/>
   <polyline class="fil2" points="309,296 309,296 309,296 "/>
   <path class="fil13" d="M309 295l0 1c0,0 0,-1 0,-1z"/>
   <path class="fil14" d="M310 293l0 1c0,0 0,-1 0,-1z"/>
   <path class="fil15" d="M310 291l0 2c0,-1 0,-1 0,-2z"/>
   <path class="fil16" d="M311 289l-1 2c1,-1 1,-1 1,-2z"/>
   <path class="fil17" d="M311 287l0 2c0,-1 0,-1 0,-2z"/>
   <path class="fil18" d="M311 285l0 2c0,0 0,-1 0,-2z"/>
   <path class="fil19" d="M311 283l0 2c0,0 0,-1 0,-2z"/>
   <path class="fil2" d="M311 281l0 0 0 1 0 0c0,0 0,1 0,1l0 -1"/>
   <path class="fil20" d="M311 277l0 4c0,-1 0,-2 0,-4z"/>
   <path class="fil21" d="M274 236l0 0c-1,-1 -1,-1 -2,-1l2 1z"/>
   <path class="fil2" d="M239 105c1,1 2,2 3,3 1,1 2,2 3,2"/>
   <path class="fil22" d="M231 99l3 2c-1,-1 -2,-2 -3,-2z"/>
   <path class="fil23" d="M227 97l4 2c-1,-1 -2,-2 -4,-2z"/>
   <line class="fil2" x1="247" y1="113" x2="249" y2= "116" />
   <path class="fil2" d="M251 116c0,0 -1,0 -1,0"/>
   <path class="fil2" d="M253 115c-1,0 -1,0 -2,1"/>
   <path class="fil2" d="M255 115c-1,0 -1,0 -2,0"/>
   <path class="fil2" d="M257 114c-1,0 -1,1 -2,1"/>
   <path class="fil2" d="M259 114c-1,0 -2,0 -2,0"/>
   <path class="fil2" d="M260 114c0,0 -1,0 -1,0"/>
   <path class="fil2" d="M262 114c0,0 -1,0 -1,0"/>
   <path class="fil2" d="M264 114c0,0 -1,0 -1,0"/>
   <path class="fil2" d="M298 194c1,-1 2,-2 3,-4 1,-1 2,-2 2,-3 1,-1 2,-3 3,-4 0,-1 1,-3 2,-4 0,-2 1,-3 1,-4 1,-2 1,-3 1,-5 1,-1 1,-3 1,-5 0,-1 0,-3 0,-4 0,-2 0,-4 0,-5 0,-2 0,-3 -1,-5 0,-1 0,-3 -1,-4 0,-2 -1,-3 -1,-5 -1,-1 -2,-2 -2,-4 -1,-1 -2,-2 -3,-4 0,-1 -1,-2 -2,-3 -1,-1 -2,-2 -3,-4 -1,-1 -3,-2 -4,-3 -1,-1 -2,-1 -3,-2 -2,-1 -3,-2 -4,-3 -2,0 -3,-1 -4,-2 -2,0 -3,-1 -5,-1 -1,-1 -3,-1 -4,-1 -2,-1 -3,-1 -5,-1 -1,0 -3,0 -5,0"/>
   <path class="fil2" d="M247 113l0 0 0 0c1,1 2,2 2,3l0 0 1 0 -73 74 2 0"/>
   <path class="fil24" d="M245 111l2 2c-1,-1 -1,-2 -2,-2z"/>
   <path class="fil2" d="M237 103l0 0 0 0c1,1 2,1 2,2l-2 -2"/>
   <polyline class="fil2" points="278,233 278,233 278,233 "/>
   <polyline class="fil2" points="278,233 278,233 278,233 "/>
   <line class="fil2" x1="278" y1="233" x2="278" y2= "233" />
   <line class="fil2" x1="279" y1="233" x2="279" y2= "233" />
   <polygon class="fil25" points="278,233 278,233 278,233 278,233 "/>
   <polyline class="fil2" points="278,233 278,233 278,233 278,233 278,233 278,233 278,233 278,233 278,233 278,233 "/>
   <polygon class="fil26" points="278,233 278,233 278,233 "/>
   <polygon class="fil27" points="278,233 278,233 278,233 "/>
   <polyline class="fil2" points="279,233 279,233 279,233 279,233 279,233 279,233 278,233 279,233 279,233 279,233 "/>
   <polyline class="fil2" points="279,233 279,233 279,233 279,233 279,233 "/>
   <polygon class="fil28" points="279,233 279,233 279,233 279,233 279,233 279,233 279,233 279,233 279,233 "/>
   <polygon class="fil29" points="279,233 279,233 279,233 "/>
   <polygon class="fil30" points="279,233 279,233 279,233 279,233 279,233 279,233 "/>
   <path class="fil31" d="M276 236l0 0c2,0 3,1 4,1l-4 -1z"/>
   <polygon class="fil32" points="275,236 275,236 275,236 275,236 "/>
   <path class="fil33" d="M282 238l0 0c-1,0 -1,-1 -2,-1l2 1z"/>
   <polygon class="fil34" points="283,238 283,238 284,239 "/>
   <path class="fil2" d="M312 299l0 0 0 0 3 2c-1,-1 -2,-2 -3,-2"/>
   <path class="fil35" d="M309 296l3 3c-1,-1 -2,-2 -3,-3z"/>
   <path class="fil36" d="M327 315l1 3c0,-1 -1,-2 -1,-3z"/>
   <path class="fil37" d="M324 312l3 3c-1,-1 -2,-2 -3,-3z"/>
   <path class="fil38" d="M322 309l2 3c0,-1 -1,-2 -2,-3z"/>
   <path class="fil39" d="M320 306l2 3c-1,-1 -1,-2 -2,-3z"/>
   <path class="fil40" d="M317 304l3 2c-1,-1 -2,-1 -3,-2z"/>
   <path class="fil41" d="M315 301l2 3c-1,-1 -1,-2 -2,-3z"/>
   <path class="fil42" d="M287 241l0 0c-1,-1 -2,-2 -3,-2l3 2z"/>
   <path class="fil43" d="M289 241l0 0 2 2c-1,-1 -2,-1 -2,-2z"/>
   <path class="fil44" d="M234 101l3 2c-1,-1 -2,-2 -3,-2z"/>
   <path class="fil45" d="M264 87c41,0 74,33 74,74 0,25 -13,48 -32,61l1 -1c19,13 31,35 31,60 0,14 -3,27 -10,37 -5,-8 -11,-16 -19,-22 2,-4 2,-9 2,-15 0,-23 -17,-42 -39,-46 -7,34 -37,60 -73,60 -1,0 -2,0 -3,0 8,-8 14,-18 18,-30 15,-4 27,-17 31,-33 -6,-2 -12,-4 -18,-7 9,-5 17,-12 23,-20 4,2 9,3 14,3 26,0 47,-21 47,-47 0,-26 -21,-47 -47,-47 -5,0 -10,1 -14,2 -6,-8 -14,-14 -23,-19 11,-7 24,-10 37,-10zm-72 13l0 0c0,-7 -6,-13 -13,-13l-56 0c-7,0 -13,6 -13,13l0 0c0,7 6,13 13,13l56 0c7,0 13,-6 13,-13zm0 52l0 0c0,-8 -6,-13 -13,-13l-82 0c-7,0 -13,5 -13,13l0 0c0,7 6,13 13,13l82 0c7,0 13,-6 13,-13zm0 155l0 0c0,-7 -6,-13 -13,-13l-57 0c-7,0 -12,6 -12,13l0 0c0,7 5,13 12,13l57 0c7,0 13,-6 13,-13zm0 -52l0 0c0,-8 -6,-13 -13,-13l-81 0c-8,0 -13,5 -13,13l0 0c0,7 5,13 13,13l81 0c7,0 13,-6 13,-13zm0 -52l0 0c0,-7 -6,-13 -13,-13l-98 0c-7,0 -13,6 -13,13l0 0c0,7 6,13 13,13l98 0c7,0 13,-6 13,-13zm99 26c0,1 -1,1 -1,1 0,0 1,0 1,-1zm-12 4c0,0 -1,0 -1,0 0,0 1,0 1,0zm-1 0c-1,0 -2,1 -2,1 0,0 1,-1 2,-1zm-8 1l0 0 0 0zm0 0l0 0 0 0zm0 0l0 0 0 0zm0 0l0 0 0 0zm0 0l0 0 0 0zm0 0l0 0 0 0zm0 0l0 0 0 0zm0 0l0 0 0 0zm0 0l0 0 0 0zm0 0l-1 0 1 0zm-1 0l0 0 0 0zm0 0l0 0 0 0zm0 0l0 0 0 0zm0 0l0 0 0 0zm0 0l0 0 0 0zm0 0l0 0 0 0zm0 0l0 0 0 0zm0 0l0 0 0 0zm0 0l0 0 0 0zm0 0l0 0 0 0zm0 0l0 0 0 0zm0 0l0 0 0 0zm0 0l0 0 0 0zm0 0l-1 0 1 0zm-1 0l0 0 0 0zm0 0l0 0 0 0zm0 0l0 0 0 0zm0 0l0 0 0 0zm0 0l0 0 0 0zm0 0l0 0 0 0zm0 0l0 0 0 0zm0 0l0 0 0 0zm0 0l0 0 0 0zm0 0l0 0 0 0zm0 0l0 0 0 0zm0 0l0 0 0 0zm0 0l0 0 0 0zm0 0l0 0 0 0zm0 0l0 0 0 0zm0 0l0 0 0 0zm0 0l0 0 0 0zm0 0l0 0 0 0zm0 0l-1 0 1 0zm-1 0l0 0 0 0zm0 0l0 0 0 0zm0 0l0 0 0 0zm0 0l0 0 0 0zm0 0l0 0 0 0zm0 0l0 0 0 0zm0 0l0 0 0 0zm0 0l0 0 0 0zm0 0l0 0 0 0zm0 0l0 0 0 0zm0 0l0 0 0 0zm0 0l0 0 0 0zm0 0l0 0 0 0zm0 0l0 0 0 0zm0 0l0 0 0 0zm0 0l0 0 0 0zm0 0l0 0 0 0zm0 0l-1 1 1 -1zm-1 1l0 0 0 0zm0 0l0 0 0 0zm0 0l0 0 0 0zm0 0l0 0 0 0zm0 0l0 0 0 0zm0 0l0 0 0 0zm0 0l0 0 0 0zm0 0l0 0 0 0zm0 0l0 0 0 0zm0 0l0 0 0 0zm0 0l0 0 0 0zm0 0l0 0 0 0zm0 0l0 0 0 0zm0 0l0 0 0 0zm0 0l0 0 0 0zm0 0l0 0 0 0zm0 0l0 0 0 0zm0 0l0 0 0 0zm0 0l0 0 0 0zm0 0l0 0 0 0zm0 0l0 0 0 0zm0 0l0 0 0 0zm0 0l0 0 0 0zm0 0l0 0 0 0zm0 0l0 0 0 0zm0 0l0 0 0 0zm0 0l0 0 0 0zm0 0l0 0 0 0zm0 0l0 0 0 0zm0 0l0 0 0 0zm0 0l0 0 0 0zm0 0l0 0 0 0zm0 0l0 0 0 0zm0 0l-1 0 1 0zm-1 0l0 0 0 0zm0 0l0 0 0 0zm0 0l0 0 0 0zm0 0l0 0 0 0zm0 0l0 0 0 0zm0 0l0 0 0 0zm0 0l0 0 0 0zm0 0l0 0 0 0zm0 0l0 0 0 0zm0 0l0 0 0 0zm0 0l0 0 0 0zm0 0l0 0 0 0zm0 0l0 0 0 0zm0 0l0 0 0 0zm0 0l0 0 0 0zm0 0l0 0 0 0zm0 0l0 0 0 0zm0 0l0 0 0 0zm0 0l0 0 0 0zm0 0l0 0 0 0zm0 0l0 0 0 0zm0 0l0 0 0 0zm0 0l0 0 0 0zm0 0l0 0 0 0zm0 0l0 0 0 0zm0 0l0 0 0 0zm0 0l0 0 0 0zm0 0l0 0 0 0zm0 0l0 0 0 0zm0 0l0 0 0 0zm0 0l0 0 0 0zm0 0l0 0 0 0zm0 0l0 0 0 0zm0 0l0 0 0 0zm0 0l0 0 0 0zm0 0l0 0 0 0zm0 0l0 0 0 0zm0 0l0 0 0 0zm0 0l0 0 0 0zm0 0l0 0 0 0zm0 0l0 0 0 0zm0 0l-1 0 1 0zm-1 0l0 0 0 0zm0 0l0 0 0 0z"/>
  </g>
 </g>
</svg>
