<?xml version="1.0" encoding="UTF-8"?>
<!DOCTYPE svg PUBLIC "-//W3C//DTD SVG 1.1//EN" "http://www.w3.org/Graphics/SVG/1.1/DTD/svg11.dtd">
<!-- Creator: CorelDRAW X7 -->
<svg xmlns="http://www.w3.org/2000/svg" xml:space="preserve" width="43.3492mm" height="43.3492mm" version="1.1" style="shape-rendering:geometricPrecision; text-rendering:geometricPrecision; image-rendering:optimizeQuality; fill-rule:evenodd; clip-rule:evenodd"
viewBox="0 0 4335 4335"
 xmlns:xlink="http://www.w3.org/1999/xlink">
 <defs>
  <style type="text/css">
   <![CDATA[
    .fil2 {fill:none}
    .fil45 {fill:#FEFEFE}
    .fil0 {fill:#CC272C}
    .fil1 {fill:#B7272B}
    .fil19 {fill:url(#id0)}
    .fil30 {fill:url(#id1)}
    .fil38 {fill:url(#id2)}
    .fil3 {fill:url(#id3)}
    .fil35 {fill:url(#id4)}
    .fil31 {fill:url(#id5)}
    .fil27 {fill:url(#id6)}
    .fil14 {fill:url(#id7)}
    .fil9 {fill:url(#id8)}
    .fil32 {fill:url(#id9)}
    .fil8 {fill:url(#id10)}
    .fil16 {fill:url(#id11)}
    .fil5 {fill:url(#id12)}
    .fil28 {fill:url(#id13)}
    .fil41 {fill:url(#id14)}
    .fil7 {fill:url(#id15)}
    .fil15 {fill:url(#id16)}
    .fil6 {fill:url(#id17)}
    .fil10 {fill:url(#id18)}
    .fil37 {fill:url(#id19)}
    .fil22 {fill:url(#id20)}
    .fil25 {fill:url(#id21)}
    .fil44 {fill:url(#id22)}
    .fil17 {fill:url(#id23)}
    .fil43 {fill:url(#id24)}
    .fil12 {fill:url(#id25)}
    .fil24 {fill:url(#id26)}
    .fil26 {fill:url(#id27)}
    .fil11 {fill:url(#id28)}
    .fil42 {fill:url(#id29)}
    .fil33 {fill:url(#id30)}
    .fil4 {fill:url(#id31)}
    .fil29 {fill:url(#id32)}
    .fil36 {fill:url(#id33)}
    .fil20 {fill:url(#id34)}
    .fil13 {fill:url(#id35)}
    .fil39 {fill:url(#id36)}
    .fil21 {fill:url(#id37)}
    .fil18 {fill:url(#id38)}
    .fil40 {fill:url(#id39)}
    .fil34 {fill:url(#id40)}
    .fil23 {fill:url(#id41)}
   ]]>
  </style>
  <linearGradient id="id0" gradientUnits="userSpaceOnUse" x1="3316.76" y1="3028.88" x2="3323.32" y2="3036.9">
   <stop offset="0" style="stop-opacity:1; stop-color:#332C2B"/>
   <stop offset="1" style="stop-opacity:1; stop-color:#332C2B"/>
  </linearGradient>
  <linearGradient id="id1" gradientUnits="userSpaceOnUse" xlink:href="#id0" x1="2976.7" y1="2485.96" x2="2976.9" y2="2486.21">
  </linearGradient>
  <linearGradient id="id2" gradientUnits="userSpaceOnUse" xlink:href="#id0" x1="3439.42" y1="3302.99" x2="3457.42" y2="3325.04">
  </linearGradient>
  <linearGradient id="id3" gradientUnits="userSpaceOnUse" xlink:href="#id0" x1="3228.94" y1="2715.88" x2="3248.66" y2="2739.99">
  </linearGradient>
  <linearGradient id="id4" gradientUnits="userSpaceOnUse" xlink:href="#id0" x1="3302.51" y1="3163.19" x2="3319.01" y2="3183.37">
  </linearGradient>
  <linearGradient id="id5" gradientUnits="userSpaceOnUse" xlink:href="#id0" x1="2958.59" y1="2514.03" x2="2974.43" y2="2533.4">
  </linearGradient>
  <linearGradient id="id6" gradientUnits="userSpaceOnUse" xlink:href="#id0" x1="2967.67" y1="2487.83" x2="2967.77" y2="2487.93">
  </linearGradient>
  <linearGradient id="id7" gradientUnits="userSpaceOnUse" xlink:href="#id0" x1="3300.07" y1="3128.15" x2="3307.43" y2="3137.18">
  </linearGradient>
  <linearGradient id="id8" gradientUnits="userSpaceOnUse" xlink:href="#id0" x1="3298.55" y1="2877.75" x2="3316.86" y2="2900.15">
  </linearGradient>
  <linearGradient id="id9" gradientUnits="userSpaceOnUse" xlink:href="#id0" x1="2934.81" y1="2514.76" x2="2935.11" y2="2515.12">
  </linearGradient>
  <linearGradient id="id10" gradientUnits="userSpaceOnUse" xlink:href="#id0" x1="3307.03" y1="2922.52" x2="3324.68" y2="2944.11">
  </linearGradient>
  <linearGradient id="id11" gradientUnits="userSpaceOnUse" xlink:href="#id0" x1="3308.97" y1="3088.99" x2="3316.28" y2="3097.96">
  </linearGradient>
  <linearGradient id="id12" gradientUnits="userSpaceOnUse" xlink:href="#id0" x1="3175.29" y1="2647.86" x2="3195.02" y2="2671.92">
  </linearGradient>
  <linearGradient id="id13" gradientUnits="userSpaceOnUse" xlink:href="#id0" x1="2974.61" y1="2486.31" x2="2974.91" y2="2486.67">
  </linearGradient>
  <linearGradient id="id14" gradientUnits="userSpaceOnUse" xlink:href="#id0" x1="3361.05" y1="3214.49" x2="3378.96" y2="3236.33">
  </linearGradient>
  <linearGradient id="id15" gradientUnits="userSpaceOnUse" xlink:href="#id0" x1="3111.08" y1="2590.38" x2="3130.3" y2="2613.88">
  </linearGradient>
  <linearGradient id="id16" gradientUnits="userSpaceOnUse" xlink:href="#id0" x1="3304.86" y1="3108.43" x2="3312.37" y2="3117.61">
  </linearGradient>
  <linearGradient id="id17" gradientUnits="userSpaceOnUse" xlink:href="#id0" x1="3144.4" y1="2617.67" x2="3163.97" y2="2641.58">
  </linearGradient>
  <linearGradient id="id18" gradientUnits="userSpaceOnUse" xlink:href="#id0" x1="3286.32" y1="2834.5" x2="3305.19" y2="2857.55">
  </linearGradient>
  <linearGradient id="id19" gradientUnits="userSpaceOnUse" xlink:href="#id0" x1="3462.54" y1="3335.1" x2="3480.55" y2="3357.09">
  </linearGradient>
  <linearGradient id="id20" gradientUnits="userSpaceOnUse" xlink:href="#id0" x1="2467.93" y1="1051.73" x2="2485.23" y2="1072.86">
  </linearGradient>
  <linearGradient id="id21" gradientUnits="userSpaceOnUse" xlink:href="#id0" x1="2966.05" y1="2488.13" x2="2966.16" y2="2488.23">
  </linearGradient>
  <linearGradient id="id22" gradientUnits="userSpaceOnUse" xlink:href="#id0" x1="2499.88" y1="1074.7" x2="2517.44" y2="1096.14">
  </linearGradient>
  <linearGradient id="id23" gradientUnits="userSpaceOnUse" xlink:href="#id0" x1="3312.45" y1="3069.11" x2="3319.41" y2="3077.64">
  </linearGradient>
  <linearGradient id="id24" gradientUnits="userSpaceOnUse" xlink:href="#id0" x1="3084.95" y1="2573.73" x2="3097.41" y2="2588.97">
  </linearGradient>
  <linearGradient id="id25" gradientUnits="userSpaceOnUse" xlink:href="#id0" x1="3251.31" y1="2753.39" x2="3270.88" y2="2777.3">
  </linearGradient>
  <linearGradient id="id26" gradientUnits="userSpaceOnUse" xlink:href="#id0" x1="2615.73" y1="1182.63" x2="2633.13" y2="1203.92">
  </linearGradient>
  <linearGradient id="id27" gradientUnits="userSpaceOnUse" xlink:href="#id0" x1="2967.39" y1="2487.88" x2="2967.49" y2="2487.98">
  </linearGradient>
  <linearGradient id="id28" gradientUnits="userSpaceOnUse" xlink:href="#id0" x1="3270.51" y1="2792.98" x2="3289.78" y2="2816.54">
  </linearGradient>
  <linearGradient id="id29" gradientUnits="userSpaceOnUse" xlink:href="#id0" x1="3037.63" y1="2545" x2="3055.64" y2="2567">
  </linearGradient>
  <linearGradient id="id30" gradientUnits="userSpaceOnUse" xlink:href="#id0" x1="2992.92" y1="2528.36" x2="3002.55" y2="2540.11">
  </linearGradient>
  <linearGradient id="id31" gradientUnits="userSpaceOnUse" xlink:href="#id0" x1="3203.52" y1="2680.6" x2="3223.34" y2="2704.81">
  </linearGradient>
  <linearGradient id="id32" gradientUnits="userSpaceOnUse" xlink:href="#id0" x1="2975.26" y1="2486.34" x2="2975.36" y2="2486.44">
  </linearGradient>
  <linearGradient id="id33" gradientUnits="userSpaceOnUse" xlink:href="#id0" x1="3484.13" y1="3368.39" x2="3502.04" y2="3390.28">
  </linearGradient>
  <linearGradient id="id34" gradientUnits="userSpaceOnUse" xlink:href="#id0" x1="3311.79" y1="2968.88" x2="3328.24" y2="2989.01">
  </linearGradient>
  <linearGradient id="id35" gradientUnits="userSpaceOnUse" xlink:href="#id0" x1="3294.37" y1="3147.2" x2="3301.98" y2="3156.48">
  </linearGradient>
  <linearGradient id="id36" gradientUnits="userSpaceOnUse" xlink:href="#id0" x1="3415.48" y1="3273.03" x2="3432.88" y2="3294.32">
  </linearGradient>
  <linearGradient id="id37" gradientUnits="userSpaceOnUse" xlink:href="#id0" x1="2907.06" y1="2505.2" x2="2915.13" y2="2515.09">
  </linearGradient>
  <linearGradient id="id38" gradientUnits="userSpaceOnUse" xlink:href="#id0" x1="3314.87" y1="3049.36" x2="3321.83" y2="3057.89">
  </linearGradient>
  <linearGradient id="id39" gradientUnits="userSpaceOnUse" xlink:href="#id0" x1="3388.44" y1="3242.51" x2="3405.85" y2="3263.75">
  </linearGradient>
  <linearGradient id="id40" gradientUnits="userSpaceOnUse" xlink:href="#id0" x1="3019.02" y1="2540.59" x2="3024.12" y2="2546.84">
  </linearGradient>
  <linearGradient id="id41" gradientUnits="userSpaceOnUse" xlink:href="#id0" x1="2434.76" y1="1030.31" x2="2451.86" y2="1051.2">
  </linearGradient>
 </defs>
 <g id="Layer_x0020_1">
  <metadata id="CorelCorpID_0Corel-Layer"/>
  <g id="_807311968">
   <rect class="fil0" width="4335" height="4335" rx="833" ry="833"/>
   <path class="fil1" d="M2579 4335l-1746 0c-458,0 -833,-375 -833,-833l0 -1308 1211 -1228c25,-25 60,-41 98,-41l601 0c76,0 139,62 139,139l0 0c0,38 -16,73 -41,98l-312 316 214 0c22,0 43,6 61,15l455 -463c116,-67 251,-105 395,-105 435,0 788,353 788,788 0,221 -91,420 -237,563l-87 89c196,143 324,375 324,637 0,144 -38,278 -106,394l-924 939z"/>
   <line class="fil2" x1="2973" y1="2487" x2="2973" y2= "2487" />
   <line class="fil2" x1="2966" y1="2488" x2="2966" y2= "2488" />
   <path class="fil3" d="M3227 2710l24 36c-8,-12 -16,-24 -24,-36z"/>
   <path class="fil4" d="M3200 2676l27 34c-9,-12 -18,-23 -27,-34z"/>
   <path class="fil5" d="M3170 2644l30 32c-9,-11 -19,-22 -30,-32z"/>
   <path class="fil6" d="M3138 2615l32 29c-10,-10 -21,-20 -32,-29z"/>
   <path class="fil7" d="M3103 2589l35 26c-11,-9 -23,-18 -35,-26z"/>
   <path class="fil8" d="M3313 2911l6 45c-1,-15 -3,-30 -6,-45z"/>
   <path class="fil9" d="M3303 2867l10 44c-3,-15 -6,-30 -10,-44z"/>
   <path class="fil10" d="M3289 2825l14 42c-4,-14 -9,-28 -14,-42z"/>
   <path class="fil11" d="M3271 2785l18 40c-5,-14 -11,-27 -18,-40z"/>
   <path class="fil12" d="M3251 2746l20 39c-6,-14 -13,-26 -20,-39z"/>
   <polyline class="fil2" points="3296,3160 3295,3161 3295,3161 "/>
   <path class="fil13" d="M3301 3143l-5 17c1,-5 3,-11 5,-17z"/>
   <path class="fil14" d="M3306 3124l-5 17c2,-5 4,-11 5,-17z"/>
   <path class="fil15" d="M3311 3104l-4 18c1,-6 2,-12 4,-18z"/>
   <path class="fil16" d="M3314 3084l-3 19c1,-6 2,-12 3,-19z"/>
   <path class="fil17" d="M3317 3065l-2 17c1,-6 1,-11 2,-17z"/>
   <path class="fil18" d="M3319 3044l-2 19c1,-6 2,-12 2,-19z"/>
   <path class="fil19" d="M3321 3024l-2 18c1,-6 1,-12 2,-18z"/>
   <path class="fil2" d="M3321 3002l0 0 0 1 0 0c0,6 0,12 0,18l0 -18"/>
   <path class="fil20" d="M3319 2956l2 46c0,-16 -1,-31 -2,-46z"/>
   <path class="fil21" d="M2922 2512l0 0c-7,-2 -15,-3 -22,-4l22 4z"/>
   <path class="fil2" d="M2555 1123c9,9 19,18 28,27 10,9 19,18 28,28"/>
   <path class="fil22" d="M2460 1051l33 22c-11,-7 -22,-15 -33,-22z"/>
   <path class="fil23" d="M2426 1030l34 21c-11,-7 -22,-14 -34,-21z"/>
   <line class="fil2" x1="2638" y1="1209" x2="2661" y2= "1238" />
   <path class="fil2" d="M2679 1233c-5,2 -11,3 -17,5"/>
   <path class="fil2" d="M2699 1228c-6,1 -11,3 -17,4"/>
   <path class="fil2" d="M2719 1223c-6,1 -12,3 -18,4"/>
   <path class="fil2" d="M2738 1220c-6,1 -12,2 -18,3"/>
   <path class="fil2" d="M2758 1217c-6,0 -12,1 -18,2"/>
   <path class="fil2" d="M2778 1215c-6,0 -12,1 -18,1"/>
   <path class="fil2" d="M2799 1213c-6,1 -12,1 -18,1"/>
   <path class="fil2" d="M2820 1213c-6,0 -12,0 -19,0"/>
   <path class="fil2" d="M3174 2067c12,-11 23,-23 33,-35 10,-13 20,-26 29,-39 9,-13 17,-27 25,-41 7,-14 14,-29 21,-44 6,-15 12,-30 17,-46 4,-16 9,-32 12,-48 3,-16 6,-33 8,-50 1,-16 2,-33 2,-51 0,-17 -1,-34 -2,-51 -2,-17 -5,-33 -8,-50 -3,-16 -8,-32 -12,-48 -5,-15 -11,-31 -17,-46 -7,-15 -14,-29 -21,-43 -8,-14 -16,-28 -25,-42 -9,-13 -19,-26 -29,-38 -10,-12 -21,-24 -33,-36 -11,-11 -23,-22 -35,-32 -12,-10 -25,-20 -39,-29 -13,-9 -27,-17 -41,-25 -14,-8 -29,-15 -44,-21 -15,-6 -30,-12 -46,-17 -15,-5 -31,-9 -48,-12 -16,-3 -32,-6 -49,-8 -17,-1 -34,-2 -51,-2"/>
   <path class="fil2" d="M2637 1208l0 0 1 1c8,9 15,19 23,29l0 0 1 1 -779 790 26 0"/>
   <path class="fil24" d="M2612 1179l25 29c-8,-10 -17,-20 -25,-29z"/>
   <path class="fil2" d="M2524 1097l1 1 0 0c10,8 19,16 29,24l-29 -24"/>
   <polyline class="fil2" points="2964,2489 2963,2489 2963,2489 "/>
   <polyline class="fil2" points="2969,2488 2968,2488 2968,2488 "/>
   <line class="fil2" x1="2970" y1="2488" x2="2969" y2= "2488" />
   <line class="fil2" x1="2973" y1="2487" x2="2972" y2= "2487" />
   <polygon class="fil25" points="2966,2488 2966,2488 2966,2488 2966,2488 "/>
   <polyline class="fil2" points="2967,2488 2967,2488 2967,2488 2967,2488 2967,2488 2966,2488 2966,2488 2967,2488 2967,2488 2967,2488 "/>
   <polygon class="fil26" points="2968,2488 2967,2488 2967,2488 "/>
   <polygon class="fil27" points="2968,2488 2968,2488 2968,2488 "/>
   <polyline class="fil2" points="2971,2487 2971,2487 2971,2487 2971,2487 2971,2487 2971,2487 2971,2487 2971,2487 2971,2487 2971,2487 "/>
   <polyline class="fil2" points="2974,2487 2974,2487 2973,2487 2973,2487 2973,2487 "/>
   <polygon class="fil28" points="2975,2486 2975,2486 2975,2486 2975,2487 2974,2487 2974,2487 2975,2487 2975,2487 2975,2486 "/>
   <polygon class="fil29" points="2975,2486 2975,2486 2975,2486 "/>
   <polygon class="fil30" points="2977,2486 2977,2486 2977,2486 2977,2486 2977,2486 2977,2486 "/>
   <path class="fil31" d="M2947 2518l0 0c13,3 26,7 40,12l-40 -12z"/>
   <polygon class="fil32" points="2935,2515 2935,2515 2935,2515 2935,2515 "/>
   <path class="fil33" d="M3009 2539l0 -1c-7,-3 -15,-6 -22,-8l22 9z"/>
   <polygon class="fil34" points="3016,2541 3016,2542 3027,2546 "/>
   <path class="fil2" d="M3325 3185l1 0 0 1 29 25c-9,-9 -19,-17 -29,-25"/>
   <path class="fil35" d="M3296 3162l29 23c-9,-8 -19,-16 -29,-23z"/>
   <path class="fil36" d="M3483 3362l20 34c-6,-11 -13,-22 -20,-34z"/>
   <path class="fil37" d="M3460 3330l23 32c-7,-11 -15,-22 -23,-32z"/>
   <path class="fil38" d="M3436 3298l24 32c-7,-11 -15,-21 -24,-32z"/>
   <path class="fil39" d="M3412 3269l24 29c-7,-10 -16,-19 -24,-29z"/>
   <path class="fil40" d="M3384 3239l26 28c-8,-9 -17,-19 -26,-28z"/>
   <path class="fil41" d="M3356 3212l28 27c-9,-9 -18,-18 -28,-27z"/>
   <path class="fil42" d="M3066 2566l0 0c-13,-7 -25,-14 -39,-20l39 20z"/>
   <path class="fil43" d="M3079 2574l0 0 24 15c-8,-5 -15,-10 -24,-15z"/>
   <path class="fil44" d="M2493 1073l31 24c-10,-8 -20,-16 -31,-24z"/>
   <path class="fil45" d="M2821 925c435,0 788,353 788,788 0,272 -137,511 -346,653l12 -8c202,142 334,378 334,644 0,144 -38,278 -106,394 -53,-91 -124,-171 -208,-235 17,-50 26,-103 26,-159 0,-249 -182,-456 -421,-494 -71,362 -391,635 -774,635 -12,0 -24,0 -36,0 85,-87 151,-193 189,-311 165,-53 292,-189 334,-358 -66,-18 -129,-45 -187,-78 92,-53 172,-124 236,-208 50,17 103,26 159,26 276,0 500,-224 500,-501 0,-276 -224,-500 -500,-500 -56,0 -109,9 -159,26 -64,-85 -144,-156 -236,-209 116,-67 251,-105 395,-105zm-772 139l0 0c0,-77 -63,-139 -139,-139l-601 0c-77,0 -139,62 -139,139l0 0c0,76 62,139 139,139l601 0c76,0 139,-63 139,-139zm0 553l0 0c0,-76 -63,-139 -139,-139l-878 0c-76,0 -138,63 -138,139l0 0c0,77 62,139 138,139l878 0c76,0 139,-62 139,-139zm0 1654l0 0c0,-76 -63,-139 -139,-139l-603 0c-76,0 -139,63 -139,139l0 0c0,77 63,139 139,139l603 0c76,0 139,-62 139,-139zm0 -555l0 0c0,-76 -64,-139 -139,-139l-869 0c-76,0 -139,63 -139,139l0 0c0,76 63,139 139,139l869 0c75,0 139,-63 139,-139zm0 -548l0 0c0,-77 -63,-139 -140,-139l-1045 0c-76,0 -138,62 -138,139l0 0c0,76 62,139 138,139l1045 0c77,0 140,-63 140,-139zm1060 279c-6,2 -11,4 -16,6 5,-2 10,-4 16,-6zm-131 39c-6,1 -12,2 -17,3 5,-1 11,-2 17,-3zm-18 3c-6,1 -12,2 -18,3 6,-1 12,-2 18,-3zm-80 10l-1 0 1 0zm-1 0l0 0 0 0zm0 0l-1 1 1 -1zm-1 1l0 0 0 0zm0 0l0 0 0 0zm0 0l-2 0 2 0zm-2 0l0 0 0 0zm0 0l-1 0 1 0zm-1 0l0 0 0 0zm0 0l0 0 0 0zm0 0l-2 0 2 0zm-2 0l0 0 0 0zm0 0l0 0 0 0zm0 0l-1 0 1 0zm-1 0l0 0 0 0zm0 0l0 0 0 0zm0 0l-1 0 1 0zm-1 0l-1 0 1 0zm-1 0l0 0 0 0zm0 0l-4 0 4 0zm-4 0l-1 0 1 0zm-1 0l0 0 0 0zm0 0l0 0 0 0zm0 0l-2 0 2 0zm-2 0l0 0 0 0zm0 0l0 0 0 0zm0 0l-2 1 2 -1zm-2 1l-1 0 1 0zm-1 0l0 0 0 0zm0 0l0 0 0 0zm0 0l-1 0 1 0zm-1 0l0 0 0 0zm0 0l0 0 0 0zm0 0l-3 0 3 0zm-3 0l0 0 0 0zm0 0l0 0 0 0zm0 0l-1 0 1 0zm-1 0l0 0 0 0zm0 0l0 0 0 0zm0 0l-1 0 1 0zm-1 0l0 0 0 0zm0 0l-1 0 1 0zm-1 0l0 0 0 0zm0 0l-3 0 3 0zm-3 0l0 0 0 0zm0 0l0 0 0 0zm0 0l-1 0 1 0zm-1 0l0 0 0 0zm0 0l0 0 0 0zm0 0l-1 0 1 0zm-1 0l-2 0 2 0zm-2 0l0 0 0 0zm0 0l0 0 0 0zm0 0l-1 0 1 0zm-1 0l0 0 0 0zm0 0l-1 0 1 0zm-1 0l0 0 0 0zm0 0l0 0 0 0zm0 0l-1 0 1 0zm-1 0l0 0 0 0zm0 0l-1 0 1 0zm-1 0l0 0 0 0zm-2 0l-1 0 1 0zm-1 0l0 0 0 0zm0 0l0 0 0 0zm0 0l0 0 0 0zm0 0l0 0 0 0zm0 0l-1 0 1 0zm-1 0l0 0 0 0zm0 0l0 0 0 0zm0 0l-1 0 1 0zm-1 0l0 0 0 0zm0 0l0 0 0 0zm0 0l0 0 0 0zm0 0l-1 0 1 0zm-1 0l0 0 0 0zm0 0l0 0 0 0zm0 0l0 0 0 0zm0 0l0 0 0 0zm0 0l-1 0 1 0zm-1 0l0 0 0 0zm0 0l0 0 0 0zm0 0l0 0 0 0zm0 0l-1 0 1 0zm-1 0l0 1 0 -1zm0 1l0 0 0 0zm0 0l0 0 0 0zm0 0l-1 0 1 0zm-1 0l0 0 0 0zm0 0l0 0 0 0zm0 0l0 0 0 0zm0 0l-1 0 1 0zm-1 0l0 0 0 0zm0 0l0 0 0 0zm0 0l0 0 0 0zm0 0l-1 0 1 0zm-1 0l0 0 0 0zm0 0l0 0 0 0zm0 0l0 0 0 0zm0 0l0 0 0 0zm0 0l-1 0 1 0zm-1 0l0 0 0 0zm0 0l0 0 0 0zm0 0l-1 0 1 0zm-1 0l0 0 0 0zm0 0l0 0 0 0zm0 0l-1 0 1 0zm-1 0l0 0 0 0zm0 0l0 0 0 0zm0 0l0 0 0 0zm0 0l0 0 0 0zm0 0l-1 0 1 0zm-1 0l0 0 0 0zm0 0l0 0 0 0zm0 0l0 0 0 0zm0 0l-1 0 1 0zm-1 0l0 0 0 0zm0 0l0 0 0 0zm0 0l0 0 0 0zm0 0l-1 0 1 0zm-1 0l0 0 0 0zm0 0l0 0 0 0zm0 0l0 0 0 0zm0 0l-1 0 1 0zm-1 0l0 0 0 0zm0 0l0 0 0 0zm0 0l0 0 0 0zm0 0l-1 0 1 0zm-1 0l0 0 0 0zm0 0l0 0 0 0zm0 0l0 0 0 0zm0 0l-1 0 1 0zm-1 0l0 0 0 0zm0 0l0 0 0 0zm0 0l0 0 0 0zm0 0l0 0 0 0zm0 0l-1 0 1 0zm-1 0l0 0 0 0zm0 0l0 0 0 0z"/>
  </g>
 </g>
</svg>
