<?xml version="1.0" encoding="UTF-8"?>
<!DOCTYPE svg PUBLIC "-//W3C//DTD SVG 1.1//EN" "http://www.w3.org/Graphics/SVG/1.1/DTD/svg11.dtd">
<!-- Creator: CorelDRAW X7 -->
<svg xmlns="http://www.w3.org/2000/svg" xml:space="preserve" width="8.1278mm" height="8.1278mm" version="1.1" style="shape-rendering:geometricPrecision; text-rendering:geometricPrecision; image-rendering:optimizeQuality; fill-rule:evenodd; clip-rule:evenodd"
viewBox="0 0 813 813"
 xmlns:xlink="http://www.w3.org/1999/xlink">
 <defs>
  <style type="text/css">
   <![CDATA[
    .fil2 {fill:none}
    .fil45 {fill:#FEFEFE}
    .fil0 {fill:#CC272C}
    .fil1 {fill:#B7272B}
    .fil43 {fill:url(#id0)}
    .fil30 {fill:url(#id1)}
    .fil7 {fill:url(#id2)}
    .fil8 {fill:url(#id3)}
    .fil12 {fill:url(#id4)}
    .fil28 {fill:url(#id5)}
    .fil17 {fill:url(#id6)}
    .fil11 {fill:url(#id7)}
    .fil34 {fill:url(#id8)}
    .fil25 {fill:url(#id9)}
    .fil3 {fill:url(#id10)}
    .fil5 {fill:url(#id11)}
    .fil16 {fill:url(#id12)}
    .fil15 {fill:url(#id13)}
    .fil38 {fill:url(#id14)}
    .fil36 {fill:url(#id15)}
    .fil39 {fill:url(#id16)}
    .fil10 {fill:url(#id17)}
    .fil35 {fill:url(#id18)}
    .fil21 {fill:url(#id19)}
    .fil24 {fill:url(#id20)}
    .fil20 {fill:url(#id21)}
    .fil18 {fill:url(#id22)}
    .fil40 {fill:url(#id23)}
    .fil6 {fill:url(#id24)}
    .fil27 {fill:url(#id25)}
    .fil4 {fill:url(#id26)}
    .fil37 {fill:url(#id27)}
    .fil14 {fill:url(#id28)}
    .fil33 {fill:url(#id29)}
    .fil22 {fill:url(#id30)}
    .fil31 {fill:url(#id31)}
    .fil19 {fill:url(#id32)}
    .fil41 {fill:url(#id33)}
    .fil23 {fill:url(#id34)}
    .fil9 {fill:url(#id35)}
    .fil13 {fill:url(#id36)}
    .fil42 {fill:url(#id37)}
    .fil32 {fill:url(#id38)}
    .fil26 {fill:url(#id39)}
    .fil29 {fill:url(#id40)}
    .fil44 {fill:url(#id41)}
   ]]>
  </style>
  <linearGradient id="id0" gradientUnits="userSpaceOnUse" x1="578.43" y1="482.57" x2="580.76" y2="485.43">
   <stop offset="0" style="stop-opacity:1; stop-color:#332C2B"/>
   <stop offset="1" style="stop-opacity:1; stop-color:#332C2B"/>
  </linearGradient>
  <linearGradient id="id1" gradientUnits="userSpaceOnUse" xlink:href="#id0" x1="558.13" y1="466.12" x2="558.17" y2="466.16">
  </linearGradient>
  <linearGradient id="id2" gradientUnits="userSpaceOnUse" xlink:href="#id0" x1="583.32" y1="485.7" x2="586.94" y2="490.1">
  </linearGradient>
  <linearGradient id="id3" gradientUnits="userSpaceOnUse" xlink:href="#id0" x1="620.06" y1="547.98" x2="623.38" y2="552.01">
  </linearGradient>
  <linearGradient id="id4" gradientUnits="userSpaceOnUse" xlink:href="#id0" x1="609.62" y1="516.26" x2="613.29" y2="520.74">
  </linearGradient>
  <linearGradient id="id5" gradientUnits="userSpaceOnUse" xlink:href="#id0" x1="557.74" y1="466.19" x2="557.79" y2="466.24">
  </linearGradient>
  <linearGradient id="id6" gradientUnits="userSpaceOnUse" xlink:href="#id0" x1="621.1" y1="575.48" x2="622.37" y2="577.03">
  </linearGradient>
  <linearGradient id="id7" gradientUnits="userSpaceOnUse" xlink:href="#id0" x1="613.22" y1="523.68" x2="616.83" y2="528.1">
  </linearGradient>
  <linearGradient id="id8" gradientUnits="userSpaceOnUse" xlink:href="#id0" x1="566.08" y1="476.37" x2="567.01" y2="477.52">
  </linearGradient>
  <linearGradient id="id9" gradientUnits="userSpaceOnUse" xlink:href="#id0" x1="556.14" y1="466.52" x2="556.15" y2="466.54">
  </linearGradient>
  <linearGradient id="id10" gradientUnits="userSpaceOnUse" xlink:href="#id0" x1="605.47" y1="509.29" x2="609.08" y2="513.69">
  </linearGradient>
  <linearGradient id="id11" gradientUnits="userSpaceOnUse" xlink:href="#id0" x1="595.37" y1="496.47" x2="599.07" y2="500.98">
  </linearGradient>
  <linearGradient id="id12" gradientUnits="userSpaceOnUse" xlink:href="#id0" x1="620.45" y1="579.21" x2="621.79" y2="580.84">
  </linearGradient>
  <linearGradient id="id13" gradientUnits="userSpaceOnUse" xlink:href="#id0" x1="619.68" y1="582.85" x2="621.05" y2="584.53">
  </linearGradient>
  <linearGradient id="id14" gradientUnits="userSpaceOnUse" xlink:href="#id0" x1="644.89" y1="619.32" x2="648.27" y2="623.44">
  </linearGradient>
  <linearGradient id="id15" gradientUnits="userSpaceOnUse" xlink:href="#id0" x1="653.27" y1="631.57" x2="656.63" y2="635.68">
  </linearGradient>
  <linearGradient id="id16" gradientUnits="userSpaceOnUse" xlink:href="#id0" x1="640.44" y1="613.75" x2="643.62" y2="617.63">
  </linearGradient>
  <linearGradient id="id17" gradientUnits="userSpaceOnUse" xlink:href="#id0" x1="616.18" y1="531.47" x2="619.72" y2="535.79">
  </linearGradient>
  <linearGradient id="id18" gradientUnits="userSpaceOnUse" xlink:href="#id0" x1="619.22" y1="593.1" x2="622.31" y2="596.88">
  </linearGradient>
  <linearGradient id="id19" gradientUnits="userSpaceOnUse" xlink:href="#id0" x1="545.09" y1="469.75" x2="546.57" y2="471.55">
  </linearGradient>
  <linearGradient id="id20" gradientUnits="userSpaceOnUse" xlink:href="#id0" x1="490.45" y1="221.74" x2="493.71" y2="225.73">
  </linearGradient>
  <linearGradient id="id21" gradientUnits="userSpaceOnUse" xlink:href="#id0" x1="620.97" y1="556.66" x2="624.04" y2="560.44">
  </linearGradient>
  <linearGradient id="id22" gradientUnits="userSpaceOnUse" xlink:href="#id0" x1="621.54" y1="571.76" x2="622.84" y2="573.35">
  </linearGradient>
  <linearGradient id="id23" gradientUnits="userSpaceOnUse" xlink:href="#id0" x1="635.33" y1="607.97" x2="638.6" y2="611.95">
  </linearGradient>
  <linearGradient id="id24" gradientUnits="userSpaceOnUse" xlink:href="#id0" x1="589.63" y1="490.88" x2="593.19" y2="495.23">
  </linearGradient>
  <linearGradient id="id25" gradientUnits="userSpaceOnUse" xlink:href="#id0" x1="556.44" y1="466.47" x2="556.45" y2="466.49">
  </linearGradient>
  <linearGradient id="id26" gradientUnits="userSpaceOnUse" xlink:href="#id0" x1="600.66" y1="502.61" x2="604.38" y2="507.15">
  </linearGradient>
  <linearGradient id="id27" gradientUnits="userSpaceOnUse" xlink:href="#id0" x1="649.23" y1="625.33" x2="652.6" y2="629.45">
  </linearGradient>
  <linearGradient id="id28" gradientUnits="userSpaceOnUse" xlink:href="#id0" x1="618.78" y1="586.55" x2="620.12" y2="588.2">
  </linearGradient>
  <linearGradient id="id29" gradientUnits="userSpaceOnUse" xlink:href="#id0" x1="561.18" y1="474.07" x2="562.97" y2="476.27">
  </linearGradient>
  <linearGradient id="id30" gradientUnits="userSpaceOnUse" xlink:href="#id0" x1="462.78" y1="197.25" x2="465.94" y2="201.11">
  </linearGradient>
  <linearGradient id="id31" gradientUnits="userSpaceOnUse" xlink:href="#id0" x1="554.78" y1="471.43" x2="557.66" y2="474.96">
  </linearGradient>
  <linearGradient id="id32" gradientUnits="userSpaceOnUse" xlink:href="#id0" x1="621.89" y1="567.91" x2="623.12" y2="569.43">
  </linearGradient>
  <linearGradient id="id33" gradientUnits="userSpaceOnUse" xlink:href="#id0" x1="630.25" y1="602.77" x2="633.5" y2="606.75">
  </linearGradient>
  <linearGradient id="id34" gradientUnits="userSpaceOnUse" xlink:href="#id0" x1="456.52" y1="193.18" x2="459.72" y2="197.1">
  </linearGradient>
  <linearGradient id="id35" gradientUnits="userSpaceOnUse" xlink:href="#id0" x1="618.53" y1="539.64" x2="621.86" y2="543.72">
  </linearGradient>
  <linearGradient id="id36" gradientUnits="userSpaceOnUse" xlink:href="#id0" x1="617.72" y1="590.12" x2="619.1" y2="591.82">
  </linearGradient>
  <linearGradient id="id37" gradientUnits="userSpaceOnUse" xlink:href="#id0" x1="569.6" y1="477.24" x2="572.89" y2="481.26">
  </linearGradient>
  <linearGradient id="id38" gradientUnits="userSpaceOnUse" xlink:href="#id0" x1="550.28" y1="471.52" x2="550.33" y2="471.58">
  </linearGradient>
  <linearGradient id="id39" gradientUnits="userSpaceOnUse" xlink:href="#id0" x1="556.39" y1="466.48" x2="556.4" y2="466.5">
  </linearGradient>
  <linearGradient id="id40" gradientUnits="userSpaceOnUse" xlink:href="#id0" x1="557.87" y1="466.19" x2="557.88" y2="466.2">
  </linearGradient>
  <linearGradient id="id41" gradientUnits="userSpaceOnUse" xlink:href="#id0" x1="468.77" y1="201.57" x2="471.97" y2="205.46">
  </linearGradient>
 </defs>
 <g id="Layer_x0020_1">
  <metadata id="CorelCorpID_0Corel-Layer"/>
  <g id="_678471664">
   <rect class="fil0" width="813" height="813" rx="156" ry="156"/>
   <path class="fil1" d="M483 813l-327 0c-86,0 -156,-70 -156,-156l0 -246 227 -230c5,-5 11,-8 18,-8l113 0c14,0 26,12 26,26l0 0c0,8 -3,14 -8,19l-58 59 40 0c4,0 8,1 12,3l85 -87c22,-12 47,-20 74,-20 82,0 148,67 148,148 0,42 -17,79 -45,106l-16 16c37,27 61,71 61,120 0,27 -8,52 -20,74l-174 176z"/>
   <line class="fil2" x1="557" y1="466" x2="557" y2= "466" />
   <line class="fil2" x1="556" y1="467" x2="556" y2= "467" />
   <path class="fil3" d="M605 508l5 7c-2,-2 -3,-5 -5,-7z"/>
   <path class="fil4" d="M600 502l5 6c-2,-2 -3,-4 -5,-6z"/>
   <path class="fil5" d="M594 496l6 6c-2,-2 -4,-4 -6,-6z"/>
   <path class="fil6" d="M588 490l6 6c-1,-2 -4,-4 -6,-6z"/>
   <path class="fil7" d="M582 485l6 5c-2,-1 -4,-3 -6,-5z"/>
   <path class="fil8" d="M621 546l1 8c0,-3 0,-5 -1,-8z"/>
   <path class="fil9" d="M619 538l2 8c0,-3 -1,-6 -2,-8z"/>
   <path class="fil10" d="M617 530l2 8c0,-3 -1,-6 -2,-8z"/>
   <path class="fil11" d="M613 522l4 8c-1,-3 -2,-5 -4,-8z"/>
   <path class="fil12" d="M610 515l3 7c-1,-2 -2,-5 -3,-7z"/>
   <polyline class="fil2" points="618,593 618,593 618,593 "/>
   <path class="fil13" d="M619 589l-1 4c0,-1 1,-3 1,-4z"/>
   <path class="fil14" d="M620 586l-1 3c0,-1 1,-2 1,-3z"/>
   <path class="fil15" d="M621 582l-1 3c0,-1 1,-2 1,-3z"/>
   <path class="fil16" d="M621 578l0 4c0,-1 0,-3 0,-4z"/>
   <path class="fil17" d="M622 575l0 3c0,-1 0,-2 0,-3z"/>
   <path class="fil18" d="M622 571l0 3c0,-1 0,-2 0,-3z"/>
   <path class="fil19" d="M623 567l-1 3c0,-1 1,-2 1,-3z"/>
   <path class="fil2" d="M623 563l0 0 0 0 0 0c0,1 0,2 0,3l0 -3"/>
   <path class="fil20" d="M622 554l1 9c0,-3 0,-6 -1,-9z"/>
   <path class="fil21" d="M548 471l0 0c-1,0 -3,-1 -4,-1l4 1z"/>
   <path class="fil2" d="M479 211c2,1 4,3 5,5 2,1 4,3 6,5"/>
   <path class="fil22" d="M461 197l6 4c-2,-1 -4,-3 -6,-4z"/>
   <path class="fil23" d="M455 193l6 4c-2,-1 -4,-3 -6,-4z"/>
   <line class="fil2" x1="495" y1="227" x2="499" y2= "232" />
   <path class="fil2" d="M502 231c-1,1 -2,1 -3,1"/>
   <path class="fil2" d="M506 230c-1,0 -2,1 -3,1"/>
   <path class="fil2" d="M510 229c-1,1 -3,1 -4,1"/>
   <path class="fil2" d="M513 229c-1,0 -2,0 -3,0"/>
   <path class="fil2" d="M517 228c-1,0 -2,0 -3,1"/>
   <path class="fil2" d="M521 228c-1,0 -2,0 -4,0"/>
   <path class="fil2" d="M525 227c-1,1 -2,1 -4,1"/>
   <path class="fil2" d="M529 227c-1,0 -3,0 -4,0"/>
   <path class="fil2" d="M595 388c2,-3 4,-5 6,-7 2,-2 4,-5 6,-7 1,-3 3,-5 4,-8 2,-3 3,-5 4,-8 2,-3 3,-6 3,-9 1,-3 2,-6 3,-9 0,-3 1,-6 1,-9 1,-3 1,-7 1,-10 0,-3 0,-6 -1,-9 0,-4 -1,-7 -1,-10 -1,-3 -2,-6 -3,-9 0,-3 -1,-5 -3,-8 -1,-3 -2,-6 -4,-8 -1,-3 -3,-6 -4,-8 -2,-3 -4,-5 -6,-7 -2,-3 -4,-5 -6,-7 -2,-2 -4,-4 -6,-6 -3,-2 -5,-4 -8,-6 -2,-1 -5,-3 -7,-4 -3,-2 -6,-3 -9,-4 -2,-1 -5,-2 -8,-3 -3,-1 -6,-2 -9,-3 -3,0 -6,-1 -10,-1 -3,0 -6,-1 -9,-1"/>
   <path class="fil2" d="M494 226l1 1 0 0c1,1 3,3 4,5l0 0 0 0 -146 148 5 0"/>
   <path class="fil24" d="M490 221l4 5c-1,-1 -3,-3 -4,-5z"/>
   <path class="fil2" d="M473 206l0 0 1 0c1,1 3,3 5,4l-5 -4"/>
   <polyline class="fil2" points="556,467 556,467 556,467 "/>
   <polyline class="fil2" points="557,466 557,466 557,466 "/>
   <line class="fil2" x1="557" y1="466" x2="557" y2= "466" />
   <line class="fil2" x1="557" y1="466" x2="557" y2= "466" />
   <polygon class="fil25" points="556,467 556,467 556,467 556,467 "/>
   <polyline class="fil2" points="556,466 556,467 556,467 556,467 556,467 556,467 556,467 556,467 556,467 556,467 "/>
   <polygon class="fil26" points="556,466 556,466 556,466 "/>
   <polygon class="fil27" points="556,466 556,466 556,466 "/>
   <polyline class="fil2" points="557,466 557,466 557,466 557,466 557,466 557,466 557,466 557,466 557,466 557,466 "/>
   <polyline class="fil2" points="558,466 558,466 558,466 558,466 557,466 "/>
   <polygon class="fil28" points="558,466 558,466 558,466 558,466 558,466 558,466 558,466 558,466 558,466 "/>
   <polygon class="fil29" points="558,466 558,466 558,466 "/>
   <polygon class="fil30" points="558,466 558,466 558,466 558,466 558,466 558,466 "/>
   <path class="fil31" d="M552 472l0 0c3,1 6,1 8,2l-8 -2z"/>
   <polygon class="fil32" points="550,472 550,472 550,472 550,472 "/>
   <path class="fil33" d="M564 476l0 0c-1,-1 -3,-1 -4,-2l4 2z"/>
   <polygon class="fil34" points="566,476 565,477 568,477 "/>
   <path class="fil2" d="M623 597l1 0 0 0 5 5c-2,-2 -3,-3 -5,-5"/>
   <path class="fil35" d="M618 593l5 4c-1,-1 -3,-3 -5,-4z"/>
   <path class="fil36" d="M653 630l4 7c-1,-2 -3,-4 -4,-7z"/>
   <path class="fil37" d="M649 624l4 6c-1,-2 -3,-4 -4,-6z"/>
   <path class="fil38" d="M644 618l5 6c-2,-2 -3,-4 -5,-6z"/>
   <path class="fil39" d="M640 613l4 5c-1,-1 -3,-3 -4,-5z"/>
   <path class="fil40" d="M635 607l4 6c-1,-2 -3,-4 -4,-6z"/>
   <path class="fil41" d="M629 602l6 5c-2,-1 -4,-3 -6,-5z"/>
   <path class="fil42" d="M575 481l0 0c-2,-1 -5,-2 -7,-4l7 4z"/>
   <path class="fil43" d="M577 483l0 0 5 2c-2,-1 -3,-2 -5,-2z"/>
   <path class="fil44" d="M467 201l6 5c-2,-2 -4,-3 -6,-5z"/>
   <path class="fil45" d="M529 173c82,0 148,67 148,148 0,51 -26,96 -65,123l2 -2c38,27 63,71 63,121 0,27 -8,52 -20,74 -10,-17 -23,-32 -39,-44 3,-10 5,-20 5,-30 0,-47 -35,-86 -79,-93 -14,68 -73,119 -145,119 -3,0 -5,0 -7,0 16,-16 28,-36 35,-58 31,-10 55,-35 63,-67 -12,-4 -24,-8 -35,-15 17,-10 32,-23 44,-39 9,3 19,5 30,5 52,0 94,-42 94,-94 0,-52 -42,-94 -94,-94 -11,0 -21,2 -30,5 -12,-16 -27,-29 -44,-39 22,-12 47,-20 74,-20zm-145 26l0 0c0,-14 -12,-26 -26,-26l-113 0c-14,0 -26,12 -26,26l0 0c0,15 12,26 26,26l113 0c14,0 26,-11 26,-26zm0 104l0 0c0,-14 -12,-26 -26,-26l-164 0c-15,0 -26,12 -26,26l0 0c0,15 11,26 26,26l164 0c14,0 26,-11 26,-26zm0 310l0 0c0,-14 -12,-26 -26,-26l-113 0c-14,0 -26,12 -26,26l0 0c0,15 12,26 26,26l113 0c14,0 26,-11 26,-26zm0 -104l0 0c0,-14 -12,-26 -26,-26l-163 0c-14,0 -26,12 -26,26l0 0c0,15 12,26 26,26l163 0c14,0 26,-11 26,-26zm0 -103l0 0c0,-14 -12,-26 -26,-26l-196 0c-14,0 -26,12 -26,26l0 0c0,15 12,26 26,26l196 0c14,0 26,-11 26,-26zm199 53c-1,0 -2,1 -3,1 1,0 2,-1 3,-1zm-25 7c-1,0 -2,1 -3,1 1,0 2,-1 3,-1zm-3 1c-1,0 -2,0 -3,0 1,0 2,0 3,0zm-15 2l0 0 0 0zm0 0l0 0 0 0zm0 0l0 0 0 0zm0 0l0 0 0 0zm0 0l0 0 0 0zm0 0l-1 0 1 0zm-1 0l0 0 0 0zm0 0l0 0 0 0zm0 0l0 0 0 0zm0 0l0 0 0 0zm0 0l0 0 0 0zm0 0l0 0 0 0zm0 0l0 0 0 0zm0 0l0 0 0 0zm0 0l-1 0 1 0zm-1 0l0 0 0 0zm0 0l0 0 0 0zm0 0l0 0 0 0zm0 0l0 0 0 0zm0 0l-1 0 1 0zm-1 0l0 0 0 0zm0 0l0 0 0 0zm0 0l0 0 0 0zm0 0l0 0 0 0zm0 0l0 0 0 0zm0 0l0 0 0 0zm0 0l-1 0 1 0zm-1 0l0 0 0 0zm0 0l0 0 0 0zm0 0l0 0 0 0zm0 0l0 0 0 0zm0 0l0 0 0 0zm0 0l0 0 0 0zm0 0l0 0 0 0zm0 0l0 0 0 0zm0 0l-1 0 1 0zm-1 0l0 0 0 0zm0 0l0 0 0 0zm0 0l0 0 0 0zm0 0l0 0 0 0zm0 0l0 0 0 0zm0 0l0 0 0 0zm0 0l0 0 0 0zm0 0l-1 0 1 0zm-1 0l0 0 0 0zm0 0l0 0 0 0zm0 0l0 0 0 0zm0 0l0 0 0 0zm0 0l0 0 0 0zm0 0l0 0 0 0zm0 0l0 0 0 0zm0 0l0 0 0 0zm0 0l0 0 0 0zm0 0l-1 0 1 0zm-1 0l0 0 0 0zm0 0l0 0 0 0zm0 0l0 0 0 0zm0 0l0 0 0 0zm0 0l0 0 0 0zm0 0l0 0 0 0zm0 0l0 0 0 0zm0 0l0 0 0 0zm-1 0l0 0 0 0zm0 0l0 0 0 0zm0 0l0 0 0 0zm0 0l0 0 0 0zm0 0l0 0 0 0zm0 0l0 0 0 0zm0 0l0 0 0 0zm0 0l0 0 0 0zm0 0l0 0 0 0zm0 0l0 0 0 0zm0 0l0 0 0 0zm0 0l0 0 0 0zm0 0l0 0 0 0zm0 0l0 0 0 0zm0 0l0 0 0 0zm0 0l0 0 0 0zm0 0l0 0 0 0zm0 0l0 0 0 0zm0 0l0 0 0 0zm0 0l0 0 0 0zm0 0l0 0 0 0zm0 0l-1 0 1 0zm-1 0l0 0 0 0zm0 0l0 0 0 0zm0 0l0 0 0 0zm0 0l0 0 0 0zm0 0l0 0 0 0zm0 0l0 0 0 0zm0 0l0 0 0 0zm0 0l0 0 0 0zm0 0l0 0 0 0zm0 0l0 0 0 0zm0 0l0 0 0 0zm0 0l0 0 0 0zm0 0l0 0 0 0zm0 0l0 0 0 0zm0 0l0 0 0 0zm0 0l0 0 0 0zm0 0l0 0 0 0zm0 0l0 0 0 0zm0 0l0 0 0 0zm0 0l-1 0 1 0zm-1 0l0 0 0 0zm0 0l0 0 0 0zm0 0l0 0 0 0zm0 0l0 0 0 0zm0 0l0 0 0 0zm0 0l0 0 0 0zm0 0l0 0 0 0zm0 0l0 0 0 0zm0 0l0 0 0 0zm0 0l0 0 0 0zm0 0l0 0 0 0zm0 0l0 0 0 0zm0 0l0 0 0 0zm0 0l0 0 0 0zm0 0l0 0 0 0zm0 0l0 0 0 0zm0 0l0 0 0 0zm0 0l0 0 0 0zm0 0l0 0 0 0zm0 0l0 0 0 0zm0 0l0 0 0 0zm0 0l-1 0 1 0zm-1 0l0 0 0 0zm0 0l0 0 0 0zm0 0l0 0 0 0zm0 0l0 0 0 0zm0 0l0 0 0 0zm0 0l0 0 0 0zm0 0l0 0 0 0zm0 0l0 0 0 0zm0 0l0 0 0 0zm0 0l0 0 0 0zm0 0l0 0 0 0zm0 0l0 0 0 0zm0 0l0 0 0 0z"/>
  </g>
 </g>
</svg>
