<?xml version="1.0" encoding="UTF-8"?>
<!DOCTYPE svg PUBLIC "-//W3C//DTD SVG 1.1//EN" "http://www.w3.org/Graphics/SVG/1.1/DTD/svg11.dtd">
<!-- Creator: CorelDRAW X7 -->
<svg xmlns="http://www.w3.org/2000/svg" xml:space="preserve" width="86.6986mm" height="29.0406mm" version="1.1" style="shape-rendering:geometricPrecision; text-rendering:geometricPrecision; image-rendering:optimizeQuality; fill-rule:evenodd; clip-rule:evenodd"
viewBox="0 0 8670 2904"
 xmlns:xlink="http://www.w3.org/1999/xlink">
 <defs>
  <style type="text/css">
   <![CDATA[
    .fil0 {fill:#CC272C}
    .fil1 {fill:#CC272C;fill-rule:nonzero}
   ]]>
  </style>
 </defs>
 <g id="Layer_x0020_1">
  <metadata id="CorelCorpID_0Corel-Layer"/>
  <g id="_815166544">
   <g>
    <path class="fil0" d="M1547 1452l0 0c0,-89 -73,-162 -163,-162l-1221 0c-88,0 -161,73 -161,162l0 0c0,90 73,163 161,163l1221 0c90,0 163,-73 163,-163z"/>
    <path class="fil0" d="M1547 2093l0 0c0,-90 -74,-163 -163,-163l-1015 0c-88,0 -162,73 -162,163l0 0c0,89 74,162 162,162l1015 0c89,0 163,-73 163,-162z"/>
    <path class="fil0" d="M1547 2741l0 0c0,-89 -73,-162 -162,-162l-705 0c-89,0 -162,73 -162,162l0 0c0,89 73,162 162,162l705 0c89,0 162,-73 162,-162z"/>
    <path class="fil0" d="M1547 809l0 0c0,-89 -73,-162 -162,-162l-1025 0c-89,0 -162,73 -162,162l0 0c0,90 73,163 162,163l1025 0c89,0 162,-73 162,-163z"/>
    <path class="fil0" d="M1547 163l0 0c0,-89 -73,-162 -163,-162l-701 0c-90,0 -162,73 -162,162l0 0c0,89 72,162 162,162l701 0c90,0 163,-73 163,-162z"/>
    <path class="fil0" d="M2448 1c509,0 921,412 921,921 0,317 -160,596 -404,762l14 -10c236,167 390,442 390,753 0,168 -45,325 -123,460 -62,-107 -145,-200 -243,-275 19,-58 30,-120 30,-185 0,-292 -213,-533 -492,-577 -83,423 -456,742 -904,742 -14,0 -28,0 -42,-1 100,-101 176,-225 221,-363 192,-62 341,-220 389,-418 -77,-21 -149,-52 -217,-91 107,-62 200,-145 275,-243 58,19 120,30 185,30 323,0 585,-262 585,-584 0,-323 -262,-585 -585,-585 -65,0 -127,11 -185,30 -75,-98 -168,-181 -275,-243 135,-78 293,-123 460,-123z"/>
   </g>
   <path class="fil1" d="M4407 714l291 0c159,0 273,14 341,42 67,29 122,76 163,142 41,66 61,144 61,234 0,95 -22,174 -67,237 -46,64 -114,112 -205,145l340 640 -300 0 -323 -610 -28 0 0 610 -273 0 0 -1440zm273 564l87 0c88,0 149,-12 182,-35 33,-23 50,-61 50,-115 0,-31 -9,-58 -25,-82 -16,-23 -38,-40 -66,-50 -28,-10 -78,-15 -152,-15l-76 0 0 297zm862 -564l275 0 0 932c0,80 7,137 21,170 14,33 37,60 70,80 32,19 71,29 117,29 48,0 90,-11 125,-33 35,-22 59,-50 72,-85 14,-34 20,-99 20,-196l0 -897 275 0 0 858c0,145 -8,246 -24,302 -17,56 -48,110 -94,162 -46,52 -99,91 -159,116 -60,25 -130,38 -209,38 -105,0 -196,-24 -273,-72 -77,-48 -133,-108 -166,-180 -33,-72 -50,-194 -50,-366l0 -858zm1274 0l273 0 0 1440 -273 0 0 -1440zm1022 0l276 0 554 1440 -285 0 -112 -297 -591 0 -115 297 -285 0 558 -1440zm138 383l-195 495 389 0 -194 -495z"/>
  </g>
 </g>
</svg>
