<?xml version="1.0" encoding="UTF-8"?>
<!DOCTYPE svg PUBLIC "-//W3C//DTD SVG 1.1//EN" "http://www.w3.org/Graphics/SVG/1.1/DTD/svg11.dtd">
<!-- Creator: CorelDRAW X7 -->
<svg xmlns="http://www.w3.org/2000/svg" xml:space="preserve" width="12.1918mm" height="12.1918mm" version="1.1" style="shape-rendering:geometricPrecision; text-rendering:geometricPrecision; image-rendering:optimizeQuality; fill-rule:evenodd; clip-rule:evenodd"
viewBox="0 0 1219 1219"
 xmlns:xlink="http://www.w3.org/1999/xlink">
 <defs>
  <style type="text/css">
   <![CDATA[
    .fil2 {fill:none}
    .fil45 {fill:#FEFEFE}
    .fil0 {fill:#CC272C}
    .fil1 {fill:#B7272B}
    .fil24 {fill:url(#id0)}
    .fil27 {fill:url(#id1)}
    .fil28 {fill:url(#id2)}
    .fil19 {fill:url(#id3)}
    .fil25 {fill:url(#id4)}
    .fil5 {fill:url(#id5)}
    .fil18 {fill:url(#id6)}
    .fil20 {fill:url(#id7)}
    .fil16 {fill:url(#id8)}
    .fil21 {fill:url(#id9)}
    .fil43 {fill:url(#id10)}
    .fil39 {fill:url(#id11)}
    .fil31 {fill:url(#id12)}
    .fil36 {fill:url(#id13)}
    .fil10 {fill:url(#id14)}
    .fil32 {fill:url(#id15)}
    .fil26 {fill:url(#id16)}
    .fil42 {fill:url(#id17)}
    .fil40 {fill:url(#id18)}
    .fil17 {fill:url(#id19)}
    .fil37 {fill:url(#id20)}
    .fil6 {fill:url(#id21)}
    .fil34 {fill:url(#id22)}
    .fil41 {fill:url(#id23)}
    .fil33 {fill:url(#id24)}
    .fil23 {fill:url(#id25)}
    .fil30 {fill:url(#id26)}
    .fil15 {fill:url(#id27)}
    .fil12 {fill:url(#id28)}
    .fil3 {fill:url(#id29)}
    .fil38 {fill:url(#id30)}
    .fil14 {fill:url(#id31)}
    .fil29 {fill:url(#id32)}
    .fil4 {fill:url(#id33)}
    .fil13 {fill:url(#id34)}
    .fil35 {fill:url(#id35)}
    .fil9 {fill:url(#id36)}
    .fil8 {fill:url(#id37)}
    .fil11 {fill:url(#id38)}
    .fil22 {fill:url(#id39)}
    .fil7 {fill:url(#id40)}
    .fil44 {fill:url(#id41)}
   ]]>
  </style>
  <linearGradient id="id0" gradientUnits="userSpaceOnUse" x1="754.28" y1="332.42" x2="759.05" y2="338.25">
   <stop offset="0" style="stop-opacity:1; stop-color:#332C2B"/>
   <stop offset="1" style="stop-opacity:1; stop-color:#332C2B"/>
  </linearGradient>
  <linearGradient id="id1" gradientUnits="userSpaceOnUse" xlink:href="#id0" x1="853.29" y1="699.78" x2="853.32" y2="699.8">
  </linearGradient>
  <linearGradient id="id2" gradientUnits="userSpaceOnUse" xlink:href="#id0" x1="855.25" y1="699.35" x2="855.33" y2="699.45">
  </linearGradient>
  <linearGradient id="id3" gradientUnits="userSpaceOnUse" xlink:href="#id0" x1="951.57" y1="852.1" x2="953.42" y2="854.34">
  </linearGradient>
  <linearGradient id="id4" gradientUnits="userSpaceOnUse" xlink:href="#id0" x1="852.84" y1="699.85" x2="852.87" y2="699.9">
  </linearGradient>
  <linearGradient id="id5" gradientUnits="userSpaceOnUse" xlink:href="#id0" x1="911.74" y1="744.83" x2="917.3" y2="751.6">
  </linearGradient>
  <linearGradient id="id6" gradientUnits="userSpaceOnUse" xlink:href="#id0" x1="951.04" y1="857.86" x2="953" y2="860.26">
  </linearGradient>
  <linearGradient id="id7" gradientUnits="userSpaceOnUse" xlink:href="#id0" x1="950.1" y1="835.15" x2="954.87" y2="840.92">
  </linearGradient>
  <linearGradient id="id8" gradientUnits="userSpaceOnUse" xlink:href="#id0" x1="949.37" y1="869.01" x2="951.44" y2="871.54">
  </linearGradient>
  <linearGradient id="id9" gradientUnits="userSpaceOnUse" xlink:href="#id0" x1="836.23" y1="704.67" x2="838.5" y2="707.45">
  </linearGradient>
  <linearGradient id="id10" gradientUnits="userSpaceOnUse" xlink:href="#id0" x1="886.31" y1="723.96" x2="889.82" y2="728.25">
  </linearGradient>
  <linearGradient id="id11" gradientUnits="userSpaceOnUse" xlink:href="#id0" x1="979.36" y1="920.83" x2="984.26" y2="926.82">
  </linearGradient>
  <linearGradient id="id12" gradientUnits="userSpaceOnUse" xlink:href="#id0" x1="850.74" y1="707.15" x2="855.2" y2="712.61">
  </linearGradient>
  <linearGradient id="id13" gradientUnits="userSpaceOnUse" xlink:href="#id0" x1="998.69" y1="947.67" x2="1003.73" y2="953.84">
  </linearGradient>
  <linearGradient id="id14" gradientUnits="userSpaceOnUse" xlink:href="#id0" x1="943" y1="797.37" x2="948.31" y2="803.86">
  </linearGradient>
  <linearGradient id="id15" gradientUnits="userSpaceOnUse" xlink:href="#id0" x1="844.04" y1="707.36" x2="844.13" y2="707.46">
  </linearGradient>
  <linearGradient id="id16" gradientUnits="userSpaceOnUse" xlink:href="#id0" x1="853.22" y1="699.78" x2="853.24" y2="699.83">
  </linearGradient>
  <linearGradient id="id17" gradientUnits="userSpaceOnUse" xlink:href="#id0" x1="872.99" y1="715.87" x2="878.06" y2="722.06">
  </linearGradient>
  <linearGradient id="id18" gradientUnits="userSpaceOnUse" xlink:href="#id0" x1="971.75" y1="912.23" x2="976.65" y2="918.21">
  </linearGradient>
  <linearGradient id="id19" gradientUnits="userSpaceOnUse" xlink:href="#id0" x1="950.38" y1="863.45" x2="952.29" y2="865.78">
  </linearGradient>
  <linearGradient id="id20" gradientUnits="userSpaceOnUse" xlink:href="#id0" x1="992.61" y1="938.3" x2="997.68" y2="944.49">
  </linearGradient>
  <linearGradient id="id21" gradientUnits="userSpaceOnUse" xlink:href="#id0" x1="903.05" y1="736.34" x2="908.55" y2="743.05">
  </linearGradient>
  <linearGradient id="id22" gradientUnits="userSpaceOnUse" xlink:href="#id0" x1="867.76" y1="714.65" x2="869.17" y2="716.37">
  </linearGradient>
  <linearGradient id="id23" gradientUnits="userSpaceOnUse" xlink:href="#id0" x1="964.04" y1="904.35" x2="969.08" y2="910.49">
  </linearGradient>
  <linearGradient id="id24" gradientUnits="userSpaceOnUse" xlink:href="#id0" x1="860.4" y1="711.19" x2="863.11" y2="714.5">
  </linearGradient>
  <linearGradient id="id25" gradientUnits="userSpaceOnUse" xlink:href="#id0" x1="703.27" y1="289.46" x2="708.08" y2="295.34">
  </linearGradient>
  <linearGradient id="id26" gradientUnits="userSpaceOnUse" xlink:href="#id0" x1="855.84" y1="699.26" x2="855.89" y2="699.31">
  </linearGradient>
  <linearGradient id="id27" gradientUnits="userSpaceOnUse" xlink:href="#id0" x1="948.22" y1="874.49" x2="950.33" y2="877.07">
  </linearGradient>
  <linearGradient id="id28" gradientUnits="userSpaceOnUse" xlink:href="#id0" x1="933.14" y1="774.54" x2="938.65" y2="781.27">
  </linearGradient>
  <linearGradient id="id29" gradientUnits="userSpaceOnUse" xlink:href="#id0" x1="926.85" y1="763.98" x2="932.4" y2="770.77">
  </linearGradient>
  <linearGradient id="id30" gradientUnits="userSpaceOnUse" xlink:href="#id0" x1="986.1" y1="929.27" x2="991.17" y2="935.46">
  </linearGradient>
  <linearGradient id="id31" gradientUnits="userSpaceOnUse" xlink:href="#id0" x1="946.9" y1="880.08" x2="948.91" y2="882.54">
  </linearGradient>
  <linearGradient id="id32" gradientUnits="userSpaceOnUse" xlink:href="#id0" x1="855.44" y1="699.36" x2="855.45" y2="699.38">
  </linearGradient>
  <linearGradient id="id33" gradientUnits="userSpaceOnUse" xlink:href="#id0" x1="919.69" y1="754.04" x2="925.27" y2="760.86">
  </linearGradient>
  <linearGradient id="id34" gradientUnits="userSpaceOnUse" xlink:href="#id0" x1="945.3" y1="885.44" x2="947.37" y2="887.98">
  </linearGradient>
  <linearGradient id="id35" gradientUnits="userSpaceOnUse" xlink:href="#id0" x1="947.56" y1="889.9" x2="952.2" y2="895.58">
  </linearGradient>
  <linearGradient id="id36" gradientUnits="userSpaceOnUse" xlink:href="#id0" x1="946.44" y1="809.55" x2="951.6" y2="815.85">
  </linearGradient>
  <linearGradient id="id37" gradientUnits="userSpaceOnUse" xlink:href="#id0" x1="948.89" y1="822.24" x2="953.74" y2="828.14">
  </linearGradient>
  <linearGradient id="id38" gradientUnits="userSpaceOnUse" xlink:href="#id0" x1="938.55" y1="785.68" x2="943.97" y2="792.32">
  </linearGradient>
  <linearGradient id="id39" gradientUnits="userSpaceOnUse" xlink:href="#id0" x1="712.61" y1="295.49" x2="717.48" y2="301.44">
  </linearGradient>
  <linearGradient id="id40" gradientUnits="userSpaceOnUse" xlink:href="#id0" x1="893.74" y1="728.74" x2="899.01" y2="735.17">
  </linearGradient>
  <linearGradient id="id41" gradientUnits="userSpaceOnUse" xlink:href="#id0" x1="721.6" y1="301.96" x2="726.54" y2="307.99">
  </linearGradient>
 </defs>
 <g id="Layer_x0020_1">
  <metadata id="CorelCorpID_0Corel-Layer"/>
  <g id="_805296112">
   <path class="fil0" d="M610 0c336,0 609,273 609,610 0,336 -273,609 -609,609 -337,0 -610,-273 -610,-609 0,-337 273,-610 610,-610z"/>
   <path class="fil1" d="M740 1205c-42,9 -86,14 -130,14 -335,0 -606,-269 -610,-603l340 -345c7,-7 17,-11 28,-11l169 0c22,0 39,17 39,39l0 0c0,11 -4,20 -11,27l-88 90 60 0c6,0 12,1 17,4l128 -131c33,-18 71,-29 111,-29 123,0 222,99 222,222 0,62 -25,118 -66,158l-25 25c55,41 91,106 91,180 0,40 -10,78 -29,111l-246 249z"/>
   <line class="fil2" x1="855" y1="700" x2="855" y2= "699" />
   <line class="fil2" x1="853" y1="700" x2="853" y2= "700" />
   <path class="fil3" d="M926 762l7 10c-2,-3 -4,-6 -7,-10z"/>
   <path class="fil4" d="M919 753l7 9c-2,-3 -5,-6 -7,-9z"/>
   <path class="fil5" d="M910 744l9 9c-3,-3 -6,-6 -9,-9z"/>
   <path class="fil6" d="M901 736l9 8c-3,-3 -6,-6 -9,-8z"/>
   <path class="fil7" d="M891 728l10 8c-3,-3 -6,-5 -10,-8z"/>
   <path class="fil8" d="M950 819l2 13c0,-5 -1,-9 -2,-13z"/>
   <path class="fil9" d="M948 807l2 12c0,-4 -1,-8 -2,-12z"/>
   <path class="fil10" d="M944 795l4 12c-2,-4 -3,-8 -4,-12z"/>
   <path class="fil11" d="M939 783l5 12c-2,-4 -3,-8 -5,-12z"/>
   <path class="fil12" d="M933 772l6 11c-2,-3 -4,-7 -6,-11z"/>
   <polyline class="fil2" points="946,889 946,889 946,889 "/>
   <path class="fil13" d="M947 884l-1 5c0,-1 1,-3 1,-5z"/>
   <path class="fil14" d="M949 879l-2 5c1,-2 1,-3 2,-5z"/>
   <path class="fil15" d="M950 873l-1 5c0,-1 1,-3 1,-5z"/>
   <path class="fil16" d="M951 868l-1 5c0,-2 1,-4 1,-5z"/>
   <path class="fil17" d="M952 862l-1 5c0,-2 0,-3 1,-5z"/>
   <path class="fil18" d="M952 856l0 6c0,-2 0,-4 0,-6z"/>
   <path class="fil19" d="M953 851l-1 5c0,-2 1,-4 1,-5z"/>
   <path class="fil2" d="M953 845l0 0 0 0 0 0c0,2 0,3 0,5l0 -5"/>
   <path class="fil20" d="M952 832l1 13c0,-5 0,-9 -1,-13z"/>
   <path class="fil21" d="M840 707l1 0c-3,-1 -5,-1 -7,-2l6 2z"/>
   <path class="fil2" d="M737 316c3,2 5,4 8,7 3,3 5,5 8,8"/>
   <path class="fil22" d="M710 295l10 7c-3,-3 -6,-5 -10,-7z"/>
   <path class="fil23" d="M701 289l9 6c-3,-2 -6,-4 -9,-6z"/>
   <line class="fil2" x1="760" y1="340" x2="767" y2= "348" />
   <path class="fil2" d="M772 347c-1,0 -3,0 -5,1"/>
   <path class="fil2" d="M778 345c-2,0 -4,1 -5,1"/>
   <path class="fil2" d="M783 344c-2,0 -3,0 -5,1"/>
   <path class="fil2" d="M789 343c-2,0 -4,0 -5,1"/>
   <path class="fil2" d="M794 342c-1,0 -3,0 -5,1"/>
   <path class="fil2" d="M800 341c-2,0 -4,1 -5,1"/>
   <path class="fil2" d="M806 341c-2,0 -4,0 -5,0"/>
   <path class="fil2" d="M812 341c-2,0 -4,0 -5,0"/>
   <path class="fil2" d="M912 581c3,-3 6,-6 9,-10 2,-3 5,-7 8,-11 2,-3 5,-7 7,-11 2,-4 4,-8 6,-12 2,-5 3,-9 4,-13 2,-5 3,-9 4,-14 1,-4 2,-9 2,-14 1,-5 1,-9 1,-14 0,-5 0,-10 -1,-15 0,-4 -1,-9 -2,-14 -1,-4 -2,-9 -4,-13 -1,-5 -2,-9 -4,-13 -2,-4 -4,-8 -6,-12 -2,-4 -5,-8 -7,-12 -3,-4 -6,-7 -8,-11 -3,-3 -6,-7 -9,-10 -4,-3 -7,-6 -10,-9 -4,-3 -8,-6 -11,-8 -4,-3 -8,-5 -12,-7 -4,-2 -8,-4 -12,-6 -4,-2 -9,-3 -13,-5 -5,-1 -9,-2 -14,-3 -4,-1 -9,-2 -14,-2 -4,-1 -9,-1 -14,-1"/>
   <path class="fil2" d="M760 339l0 1 0 0c3,2 5,5 7,8l0 0 0 0 -219 223 7 0"/>
   <path class="fil24" d="M753 331l7 8c-2,-2 -4,-5 -7,-8z"/>
   <path class="fil2" d="M729 308l0 0 0 1c2,2 5,4 8,6l-8 -6"/>
   <polyline class="fil2" points="852,700 852,700 852,700 "/>
   <polyline class="fil2" points="854,700 854,700 853,700 "/>
   <line class="fil2" x1="854" y1="700" x2="854" y2= "700" />
   <line class="fil2" x1="855" y1="700" x2="855" y2= "700" />
   <polygon class="fil25" points="853,700 853,700 853,700 853,700 "/>
   <polyline class="fil2" points="853,700 853,700 853,700 853,700 853,700 853,700 853,700 853,700 853,700 853,700 "/>
   <polygon class="fil26" points="853,700 853,700 853,700 "/>
   <polygon class="fil27" points="853,700 853,700 853,700 "/>
   <polyline class="fil2" points="854,700 854,700 854,700 854,700 854,700 854,700 854,700 854,700 854,700 854,700 "/>
   <polyline class="fil2" points="855,699 855,699 855,699 855,699 855,699 "/>
   <polygon class="fil28" points="855,699 855,699 855,699 855,699 855,699 855,699 855,699 855,699 855,699 "/>
   <polygon class="fil29" points="855,699 855,699 855,699 "/>
   <polygon class="fil30" points="856,699 856,699 856,699 856,699 856,699 856,699 "/>
   <path class="fil31" d="M847 708l0 0c4,1 8,2 12,4l-12 -4z"/>
   <polygon class="fil32" points="844,707 844,707 844,707 844,707 "/>
   <path class="fil33" d="M865 714l0 0c-2,-1 -4,-2 -6,-2l6 2z"/>
   <polygon class="fil34" points="867,715 867,715 870,716 "/>
   <path class="fil2" d="M954 896l0 0 0 0 8 7c-2,-2 -5,-4 -8,-7"/>
   <path class="fil35" d="M946 890l8 6c-3,-2 -5,-4 -8,-6z"/>
   <path class="fil36" d="M998 946l6 10c-2,-4 -4,-7 -6,-10z"/>
   <path class="fil37" d="M992 937l6 9c-2,-3 -4,-6 -6,-9z"/>
   <path class="fil38" d="M985 928l7 9c-2,-3 -4,-6 -7,-9z"/>
   <path class="fil39" d="M978 920l7 8c-2,-3 -4,-6 -7,-8z"/>
   <path class="fil40" d="M971 911l7 8c-3,-3 -5,-5 -7,-8z"/>
   <path class="fil41" d="M963 904l8 7c-3,-2 -6,-5 -8,-7z"/>
   <path class="fil42" d="M881 722l0 0c-4,-2 -7,-4 -11,-6l11 6z"/>
   <path class="fil43" d="M885 724l0 0 6 4c-2,-1 -4,-3 -6,-4z"/>
   <path class="fil44" d="M720 302l9 6c-3,-2 -6,-4 -9,-6z"/>
   <path class="fil45" d="M793 260c123,0 222,99 222,222 0,76 -38,144 -97,184l3 -3c57,40 94,107 94,182 0,40 -10,78 -29,111 -15,-26 -35,-49 -59,-67 5,-14 7,-29 7,-44 0,-71 -51,-129 -118,-140 -20,102 -110,179 -218,179 -3,0 -7,0 -10,0 24,-24 42,-54 53,-87 46,-15 82,-53 94,-101 -19,-5 -36,-13 -53,-22 26,-15 49,-35 67,-59 14,5 29,8 44,8 78,0 141,-63 141,-141 0,-78 -63,-141 -141,-141 -15,0 -30,2 -44,7 -18,-24 -41,-44 -67,-59 33,-18 71,-29 111,-29zm-217 39l0 0c0,-22 -17,-39 -39,-39l-169 0c-22,0 -39,17 -39,39l0 0c0,21 17,39 39,39l169 0c22,0 39,-18 39,-39zm0 156l0 0c0,-22 -17,-39 -39,-39l-247 0c-21,0 -39,17 -39,39l0 0c0,21 18,39 39,39l247 0c22,0 39,-18 39,-39zm0 465l0 0c0,-21 -17,-39 -39,-39l-170 0c-21,0 -39,18 -39,39l0 0c0,22 18,39 39,39l170 0c22,0 39,-17 39,-39zm0 -156l0 0c0,-22 -18,-39 -39,-39l-245 0c-21,0 -39,17 -39,39l0 0c0,21 18,39 39,39l245 0c21,0 39,-18 39,-39zm0 -154l0 0c0,-22 -17,-39 -39,-39l-294 0c-22,0 -39,17 -39,39l0 0c0,21 17,39 39,39l294 0c22,0 39,-18 39,-39zm299 78c-2,1 -3,2 -5,2 2,0 3,-1 5,-2zm-37 11c-2,1 -4,1 -5,1 1,0 3,0 5,-1zm-5 1c-2,0 -4,1 -5,1 1,0 3,-1 5,-1zm-23 3l0 0 0 0zm0 0l0 0 0 0zm0 0l0 0 0 0zm0 0l0 0 0 0zm0 0l-1 0 1 0zm-1 0l0 0 0 0zm0 0l0 0 0 0zm0 0l0 0 0 0zm0 0l0 0 0 0zm0 0l0 0 0 0zm0 0l-1 0 1 0zm-1 0l0 0 0 0zm0 0l0 0 0 0zm0 0l0 0 0 0zm0 0l0 0 0 0zm0 0l0 0 0 0zm0 0l0 0 0 0zm0 0l0 0 0 0zm0 0l-1 0 1 0zm-1 0l-1 0 1 0zm-1 0l0 0 0 0zm0 0l0 0 0 0zm0 0l0 0 0 0zm0 0l0 0 0 0zm0 0l-1 0 1 0zm-1 0l0 0 0 0zm0 0l0 0 0 0zm0 0l0 0 0 0zm0 0l0 0 0 0zm0 0l0 0 0 0zm0 0l-1 0 1 0zm-1 0l0 0 0 0zm0 0l0 0 0 0zm0 0l0 0 0 0zm0 0l0 0 0 0zm0 0l-1 0 1 0zm-1 0l0 0 0 0zm0 0l0 0 0 0zm0 0l0 0 0 0zm0 0l0 0 0 0zm0 0l0 0 0 0zm0 0l0 0 0 0zm0 0l0 0 0 0zm0 0l-1 0 1 0zm-1 0l0 1 0 -1zm0 1l0 0 0 0zm0 0l0 0 0 0zm0 0l-1 0 1 0zm-1 0l0 0 0 0zm0 0l0 0 0 0zm0 0l0 0 0 0zm0 0l0 0 0 0zm0 0l0 0 0 0zm0 0l-1 0 1 0zm-1 0l0 0 0 0zm0 0l0 0 0 0zm0 0l0 0 0 0zm0 0l0 0 0 0zm0 0l0 0 0 0zm0 0l0 0 0 0zm0 0l0 0 0 0zm0 0l0 0 0 0zm-1 0l0 0 0 0zm0 0l0 0 0 0zm0 0l0 0 0 0zm0 0l0 0 0 0zm0 0l0 0 0 0zm0 0l-1 0 1 0zm-1 0l0 0 0 0zm0 0l0 0 0 0zm0 0l0 0 0 0zm0 0l0 0 0 0zm0 0l0 0 0 0zm0 0l0 0 0 0zm0 0l0 0 0 0zm0 0l0 0 0 0zm0 0l0 0 0 0zm0 0l0 0 0 0zm0 0l0 0 0 0zm0 0l0 0 0 0zm0 0l0 0 0 0zm0 0l-1 0 1 0zm-1 0l0 0 0 0zm0 0l0 0 0 0zm0 0l0 0 0 0zm0 0l0 0 0 0zm0 0l0 0 0 0zm0 0l0 0 0 0zm0 0l0 0 0 0zm0 0l0 0 0 0zm0 0l0 0 0 0zm0 0l0 0 0 0zm0 0l0 0 0 0zm0 0l0 0 0 0zm0 0l0 0 0 0zm0 0l0 0 0 0zm0 0l-1 0 1 0zm-1 0l0 0 0 0zm0 0l0 0 0 0zm0 0l0 0 0 0zm0 0l0 0 0 0zm0 0l0 0 0 0zm0 0l0 0 0 0zm0 0l0 0 0 0zm0 0l0 0 0 0zm0 0l0 0 0 0zm0 0l0 0 0 0zm0 0l0 0 0 0zm0 0l0 0 0 0zm0 0l-1 0 1 0zm-1 0l0 0 0 0zm0 0l0 0 0 0zm0 0l0 0 0 0zm0 0l0 0 0 0zm0 0l0 0 0 0zm0 0l0 0 0 0zm0 0l0 0 0 0zm0 0l0 0 0 0zm0 0l0 0 0 0zm0 0l0 0 0 0zm0 0l0 0 0 0zm0 0l0 0 0 0zm0 0l0 0 0 0zm0 0l0 0 0 0zm0 0l-1 0 1 0zm-1 0l0 0 0 0zm0 0l0 0 0 0zm0 0l0 0 0 0zm0 0l0 0 0 0zm0 0l0 0 0 0zm0 0l0 0 0 0zm0 0l0 0 0 0zm0 0l0 0 0 0zm0 0l0 0 0 0zm0 0l0 0 0 0zm0 0l0 0 0 0zm0 0l0 0 0 0zm0 0l0 0 0 0zm0 0l-1 0 1 0z"/>
  </g>
 </g>
</svg>
