<?xml version="1.0" encoding="UTF-8"?>
<!DOCTYPE svg PUBLIC "-//W3C//DTD SVG 1.1//EN" "http://www.w3.org/Graphics/SVG/1.1/DTD/svg11.dtd">
<!-- Creator: CorelDRAW X7 -->
<svg xmlns="http://www.w3.org/2000/svg" xml:space="preserve" width="21.6746mm" height="21.6746mm" version="1.1" style="shape-rendering:geometricPrecision; text-rendering:geometricPrecision; image-rendering:optimizeQuality; fill-rule:evenodd; clip-rule:evenodd"
viewBox="0 0 2167 2167"
 xmlns:xlink="http://www.w3.org/1999/xlink">
 <defs>
  <style type="text/css">
   <![CDATA[
    .fil2 {fill:none}
    .fil45 {fill:#FEFEFE}
    .fil0 {fill:#CC272C}
    .fil1 {fill:#B7272B}
    .fil28 {fill:url(#id0)}
    .fil30 {fill:url(#id1)}
    .fil34 {fill:url(#id2)}
    .fil24 {fill:url(#id3)}
    .fil8 {fill:url(#id4)}
    .fil5 {fill:url(#id5)}
    .fil33 {fill:url(#id6)}
    .fil25 {fill:url(#id7)}
    .fil19 {fill:url(#id8)}
    .fil42 {fill:url(#id9)}
    .fil17 {fill:url(#id10)}
    .fil3 {fill:url(#id11)}
    .fil29 {fill:url(#id12)}
    .fil27 {fill:url(#id13)}
    .fil21 {fill:url(#id14)}
    .fil11 {fill:url(#id15)}
    .fil14 {fill:url(#id16)}
    .fil18 {fill:url(#id17)}
    .fil37 {fill:url(#id18)}
    .fil13 {fill:url(#id19)}
    .fil32 {fill:url(#id20)}
    .fil16 {fill:url(#id21)}
    .fil12 {fill:url(#id22)}
    .fil7 {fill:url(#id23)}
    .fil20 {fill:url(#id24)}
    .fil40 {fill:url(#id25)}
    .fil43 {fill:url(#id26)}
    .fil36 {fill:url(#id27)}
    .fil9 {fill:url(#id28)}
    .fil38 {fill:url(#id29)}
    .fil35 {fill:url(#id30)}
    .fil6 {fill:url(#id31)}
    .fil10 {fill:url(#id32)}
    .fil15 {fill:url(#id33)}
    .fil4 {fill:url(#id34)}
    .fil41 {fill:url(#id35)}
    .fil26 {fill:url(#id36)}
    .fil39 {fill:url(#id37)}
    .fil22 {fill:url(#id38)}
    .fil31 {fill:url(#id39)}
    .fil23 {fill:url(#id40)}
    .fil44 {fill:url(#id41)}
   ]]>
  </style>
  <linearGradient id="id0" gradientUnits="userSpaceOnUse" x1="1520.45" y1="1243.3" x2="1520.6" y2="1243.48">
   <stop offset="0" style="stop-opacity:1; stop-color:#332C2B"/>
   <stop offset="1" style="stop-opacity:1; stop-color:#332C2B"/>
  </linearGradient>
  <linearGradient id="id1" gradientUnits="userSpaceOnUse" xlink:href="#id0" x1="1521.5" y1="1243.13" x2="1521.6" y2="1243.25">
  </linearGradient>
  <linearGradient id="id2" gradientUnits="userSpaceOnUse" xlink:href="#id0" x1="1542.68" y1="1270.47" x2="1545.23" y2="1273.6">
  </linearGradient>
  <linearGradient id="id3" gradientUnits="userSpaceOnUse" xlink:href="#id0" x1="1340.84" y1="590.84" x2="1349.55" y2="601.49">
  </linearGradient>
  <linearGradient id="id4" gradientUnits="userSpaceOnUse" xlink:href="#id0" x1="1686.82" y1="1461.62" x2="1695.66" y2="1472.42">
  </linearGradient>
  <linearGradient id="id5" gradientUnits="userSpaceOnUse" xlink:href="#id0" x1="1620.89" y1="1324.15" x2="1630.76" y2="1336.2">
  </linearGradient>
  <linearGradient id="id6" gradientUnits="userSpaceOnUse" xlink:href="#id0" x1="1529.62" y1="1264.35" x2="1534.44" y2="1270.23">
  </linearGradient>
  <linearGradient id="id7" gradientUnits="userSpaceOnUse" xlink:href="#id0" x1="1516.17" y1="1244.21" x2="1516.22" y2="1244.26">
  </linearGradient>
  <linearGradient id="id8" gradientUnits="userSpaceOnUse" xlink:href="#id0" x1="1691.65" y1="1514.8" x2="1695.03" y2="1518.91">
  </linearGradient>
  <linearGradient id="id9" gradientUnits="userSpaceOnUse" xlink:href="#id0" x1="1552" y1="1272.68" x2="1561.01" y2="1283.68">
  </linearGradient>
  <linearGradient id="id10" gradientUnits="userSpaceOnUse" xlink:href="#id0" x1="1689.54" y1="1534.98" x2="1693.02" y2="1539.25">
  </linearGradient>
  <linearGradient id="id11" gradientUnits="userSpaceOnUse" xlink:href="#id0" x1="1647.74" y1="1358.2" x2="1657.61" y2="1370.27">
  </linearGradient>
  <linearGradient id="id12" gradientUnits="userSpaceOnUse" xlink:href="#id0" x1="1520.78" y1="1243.3" x2="1520.83" y2="1243.38">
  </linearGradient>
  <linearGradient id="id13" gradientUnits="userSpaceOnUse" xlink:href="#id0" x1="1516.98" y1="1244.06" x2="1517.03" y2="1244.11">
  </linearGradient>
  <linearGradient id="id14" gradientUnits="userSpaceOnUse" xlink:href="#id0" x1="1486.65" y1="1252.76" x2="1490.69" y2="1257.71">
  </linearGradient>
  <linearGradient id="id15" gradientUnits="userSpaceOnUse" xlink:href="#id0" x1="1668.55" y1="1396.79" x2="1678.19" y2="1408.58">
  </linearGradient>
  <linearGradient id="id16" gradientUnits="userSpaceOnUse" xlink:href="#id0" x1="1683.39" y1="1564.61" x2="1686.97" y2="1568.98">
  </linearGradient>
  <linearGradient id="id17" gradientUnits="userSpaceOnUse" xlink:href="#id0" x1="1690.75" y1="1525.1" x2="1694.23" y2="1529.36">
  </linearGradient>
  <linearGradient id="id18" gradientUnits="userSpaceOnUse" xlink:href="#id0" x1="1764.66" y1="1668.1" x2="1773.67" y2="1679.11">
  </linearGradient>
  <linearGradient id="id19" gradientUnits="userSpaceOnUse" xlink:href="#id0" x1="1680.55" y1="1574.13" x2="1684.24" y2="1578.64">
  </linearGradient>
  <linearGradient id="id20" gradientUnits="userSpaceOnUse" xlink:href="#id0" x1="1500.53" y1="1257.54" x2="1500.69" y2="1257.72">
  </linearGradient>
  <linearGradient id="id21" gradientUnits="userSpaceOnUse" xlink:href="#id0" x1="1687.83" y1="1544.99" x2="1691.42" y2="1549.36">
  </linearGradient>
  <linearGradient id="id22" gradientUnits="userSpaceOnUse" xlink:href="#id0" x1="1658.94" y1="1376.97" x2="1668.73" y2="1388.93">
  </linearGradient>
  <linearGradient id="id23" gradientUnits="userSpaceOnUse" xlink:href="#id0" x1="1588.76" y1="1295.39" x2="1598.37" y2="1307.15">
  </linearGradient>
  <linearGradient id="id24" gradientUnits="userSpaceOnUse" xlink:href="#id0" x1="1689.21" y1="1484.83" x2="1697.44" y2="1494.88">
  </linearGradient>
  <linearGradient id="id25" gradientUnits="userSpaceOnUse" xlink:href="#id0" x1="1727.58" y1="1621.76" x2="1736.27" y2="1632.39">
  </linearGradient>
  <linearGradient id="id26" gradientUnits="userSpaceOnUse" xlink:href="#id0" x1="1575.77" y1="1287.17" x2="1581.83" y2="1294.57">
  </linearGradient>
  <linearGradient id="id27" gradientUnits="userSpaceOnUse" xlink:href="#id0" x1="1775.46" y1="1684.77" x2="1784.42" y2="1695.72">
  </linearGradient>
  <linearGradient id="id28" gradientUnits="userSpaceOnUse" xlink:href="#id0" x1="1682.57" y1="1439.21" x2="1691.76" y2="1450.42">
  </linearGradient>
  <linearGradient id="id29" gradientUnits="userSpaceOnUse" xlink:href="#id0" x1="1753.08" y1="1652.05" x2="1762.09" y2="1663.05">
  </linearGradient>
  <linearGradient id="id30" gradientUnits="userSpaceOnUse" xlink:href="#id0" x1="1684.56" y1="1582.07" x2="1692.82" y2="1592.16">
  </linearGradient>
  <linearGradient id="id31" gradientUnits="userSpaceOnUse" xlink:href="#id0" x1="1605.43" y1="1309.04" x2="1615.23" y2="1321.01">
  </linearGradient>
  <linearGradient id="id32" gradientUnits="userSpaceOnUse" xlink:href="#id0" x1="1676.46" y1="1417.56" x2="1685.9" y2="1429.1">
  </linearGradient>
  <linearGradient id="id33" gradientUnits="userSpaceOnUse" xlink:href="#id0" x1="1685.74" y1="1554.66" x2="1689.5" y2="1559.26">
  </linearGradient>
  <linearGradient id="id34" gradientUnits="userSpaceOnUse" xlink:href="#id0" x1="1635.02" y1="1340.54" x2="1644.94" y2="1352.66">
  </linearGradient>
  <linearGradient id="id35" gradientUnits="userSpaceOnUse" xlink:href="#id0" x1="1713.86" y1="1607.74" x2="1722.82" y2="1618.67">
  </linearGradient>
  <linearGradient id="id36" gradientUnits="userSpaceOnUse" xlink:href="#id0" x1="1516.84" y1="1244.07" x2="1516.89" y2="1244.15">
  </linearGradient>
  <linearGradient id="id37" gradientUnits="userSpaceOnUse" xlink:href="#id0" x1="1741.1" y1="1637.04" x2="1749.81" y2="1647.69">
  </linearGradient>
  <linearGradient id="id38" gradientUnits="userSpaceOnUse" xlink:href="#id0" x1="1266.87" y1="525.32" x2="1275.53" y2="535.9">
  </linearGradient>
  <linearGradient id="id39" gradientUnits="userSpaceOnUse" xlink:href="#id0" x1="1512.44" y1="1257.18" x2="1520.36" y2="1266.87">
  </linearGradient>
  <linearGradient id="id40" gradientUnits="userSpaceOnUse" xlink:href="#id0" x1="1250.27" y1="514.61" x2="1258.83" y2="525.06">
  </linearGradient>
  <linearGradient id="id41" gradientUnits="userSpaceOnUse" xlink:href="#id0" x1="1282.86" y1="536.82" x2="1291.65" y2="547.55">
  </linearGradient>
 </defs>
 <g id="Layer_x0020_1">
  <metadata id="CorelCorpID_0Corel-Layer"/>
  <g id="_678480272">
   <path class="fil0" d="M1084 0c598,0 1083,485 1083,1084 0,598 -485,1083 -1083,1083 -599,0 -1084,-485 -1084,-1083 0,-599 485,-1084 1084,-1084z"/>
   <path class="fil1" d="M1315 2143c-75,16 -152,24 -231,24 -595,0 -1077,-478 -1084,-1071l605 -614c13,-12 30,-20 49,-20l301 0c38,0 69,31 69,69l0 0c0,19 -8,37 -20,49l-156 159 107 0c11,0 21,2 30,7l228 -231c58,-34 126,-53 198,-53 218,0 394,177 394,394 0,111 -45,211 -118,282l-44 45c98,71 162,187 162,318 0,72 -19,140 -53,198l-437 444z"/>
   <line class="fil2" x1="1520" y1="1244" x2="1520" y2= "1244" />
   <line class="fil2" x1="1516" y1="1244" x2="1516" y2= "1244" />
   <path class="fil3" d="M1647 1355l12 18c-4,-6 -8,-12 -12,-18z"/>
   <path class="fil4" d="M1633 1338l14 17c-5,-6 -9,-11 -14,-17z"/>
   <path class="fil5" d="M1618 1322l15 16c-4,-5 -9,-11 -15,-16z"/>
   <path class="fil6" d="M1602 1308l16 14c-5,-5 -10,-10 -16,-14z"/>
   <path class="fil7" d="M1585 1295l17 13c-5,-5 -11,-9 -17,-13z"/>
   <path class="fil8" d="M1690 1456l3 22c-1,-7 -2,-15 -3,-22z"/>
   <path class="fil9" d="M1685 1434l5 22c-2,-8 -3,-15 -5,-22z"/>
   <path class="fil10" d="M1678 1413l7 21c-2,-7 -5,-14 -7,-21z"/>
   <path class="fil11" d="M1669 1393l9 20c-3,-7 -6,-14 -9,-20z"/>
   <path class="fil12" d="M1659 1373l10 20c-3,-7 -7,-13 -10,-20z"/>
   <polyline class="fil2" points="1681,1581 1681,1581 1681,1581 "/>
   <path class="fil13" d="M1684 1572l-3 9c1,-3 2,-6 3,-9z"/>
   <path class="fil14" d="M1686 1563l-2 8c1,-3 2,-6 2,-8z"/>
   <path class="fil15" d="M1689 1552l-2 9c0,-3 1,-6 2,-9z"/>
   <path class="fil16" d="M1690 1543l-1 9c0,-3 1,-6 1,-9z"/>
   <path class="fil17" d="M1692 1533l-1 9c0,-3 1,-6 1,-9z"/>
   <path class="fil18" d="M1693 1523l-1 9c0,-3 1,-6 1,-9z"/>
   <path class="fil19" d="M1694 1512l-1 9c0,-3 0,-6 1,-9z"/>
   <path class="fil2" d="M1694 1501l0 1 0 0 0 0c0,3 0,6 0,9l0 -9"/>
   <path class="fil20" d="M1693 1478l1 23c0,-7 -1,-15 -1,-23z"/>
   <path class="fil21" d="M1494 1256l0 0c-3,-1 -7,-1 -11,-2l11 2z"/>
   <path class="fil2" d="M1310 561c5,4 10,9 15,13 4,5 9,10 13,15"/>
   <path class="fil22" d="M1263 525l16 11c-5,-4 -10,-7 -16,-11z"/>
   <path class="fil23" d="M1246 515l17 10c-6,-4 -11,-7 -17,-10z"/>
   <line class="fil2" x1="1352" y1="604" x2="1363" y2= "618" />
   <path class="fil2" d="M1373 616c-3,1 -6,2 -9,3"/>
   <path class="fil2" d="M1382 613c-2,1 -5,2 -8,3"/>
   <path class="fil2" d="M1392 611c-3,1 -6,1 -9,2"/>
   <path class="fil2" d="M1402 609c-3,1 -6,1 -9,2"/>
   <path class="fil2" d="M1412 608c-3,0 -6,1 -9,1"/>
   <path class="fil2" d="M1422 607c-3,0 -6,0 -9,1"/>
   <path class="fil2" d="M1433 606c-4,0 -7,0 -10,1"/>
   <path class="fil2" d="M1443 606c-3,0 -6,0 -9,0"/>
   <path class="fil2" d="M1620 1034c6,-6 12,-12 17,-18 5,-6 10,-13 14,-20 5,-6 9,-13 13,-20 3,-7 7,-15 10,-22 3,-8 6,-15 9,-23 2,-8 4,-16 6,-24 1,-8 3,-17 4,-25 0,-8 1,-17 1,-26 0,-8 -1,-17 -1,-25 -1,-9 -3,-17 -4,-25 -2,-8 -4,-16 -6,-24 -3,-8 -6,-16 -9,-23 -3,-8 -7,-15 -10,-22 -4,-7 -8,-14 -13,-21 -4,-6 -9,-13 -14,-19 -5,-6 -11,-12 -17,-18 -5,-5 -11,-11 -17,-16 -6,-5 -13,-10 -20,-14 -6,-5 -13,-9 -20,-13 -7,-4 -15,-7 -22,-10 -8,-4 -15,-6 -23,-9 -8,-2 -16,-4 -24,-6 -8,-2 -17,-3 -25,-4 -8,-1 -17,-1 -26,-1"/>
   <path class="fil2" d="M1352 603l0 1 0 0c4,5 8,9 11,14l1 1 0 0 -390 395 13 0"/>
   <path class="fil24" d="M1339 589l13 14c-5,-5 -9,-9 -13,-14z"/>
   <path class="fil2" d="M1295 548l0 0 1 1c4,3 9,7 14,12l-14 -12"/>
   <polyline class="fil2" points="1515,1244 1515,1245 1515,1245 "/>
   <polyline class="fil2" points="1517,1244 1517,1244 1517,1244 "/>
   <line class="fil2" x1="1518" y1="1244" x2="1518" y2= "1244" />
   <line class="fil2" x1="1520" y1="1244" x2="1519" y2= "1244" />
   <polygon class="fil25" points="1516,1244 1516,1244 1516,1244 1516,1244 "/>
   <polyline class="fil2" points="1517,1244 1517,1244 1517,1244 1517,1244 1516,1244 1516,1244 1516,1244 1516,1244 1516,1244 1517,1244 "/>
   <polygon class="fil26" points="1517,1244 1517,1244 1517,1244 "/>
   <polygon class="fil27" points="1517,1244 1517,1244 1517,1244 "/>
   <polyline class="fil2" points="1519,1244 1519,1244 1519,1244 1519,1244 1518,1244 1518,1244 1518,1244 1519,1244 1519,1244 1519,1244 "/>
   <polyline class="fil2" points="1520,1243 1520,1244 1520,1244 1520,1244 1520,1244 "/>
   <polygon class="fil28" points="1521,1243 1521,1243 1521,1243 1520,1243 1520,1243 1520,1243 1520,1243 1520,1243 1521,1243 "/>
   <polygon class="fil29" points="1521,1243 1521,1243 1521,1243 "/>
   <polygon class="fil30" points="1522,1243 1522,1243 1522,1243 1521,1243 1521,1243 1522,1243 "/>
   <path class="fil31" d="M1506 1259l0 0c7,2 14,4 20,6l-20 -6z"/>
   <polygon class="fil32" points="1501,1258 1501,1258 1500,1258 1501,1258 "/>
   <path class="fil33" d="M1537 1270l1 -1c-4,-1 -8,-3 -12,-4l11 5z"/>
   <polygon class="fil34" points="1541,1271 1541,1271 1547,1273 "/>
   <path class="fil2" d="M1696 1593l0 0 0 0 15 13c-5,-4 -10,-9 -15,-13"/>
   <path class="fil35" d="M1681 1581l15 12c-5,-4 -10,-8 -15,-12z"/>
   <path class="fil36" d="M1775 1682l10 17c-3,-6 -7,-12 -10,-17z"/>
   <path class="fil37" d="M1764 1665l11 17c-4,-6 -8,-11 -11,-17z"/>
   <path class="fil38" d="M1752 1650l12 15c-4,-5 -8,-10 -12,-15z"/>
   <path class="fil39" d="M1739 1635l13 15c-4,-5 -8,-10 -13,-15z"/>
   <path class="fil40" d="M1725 1620l13 14c-4,-5 -8,-9 -13,-14z"/>
   <path class="fil41" d="M1711 1606l14 14c-4,-5 -9,-9 -14,-14z"/>
   <path class="fil42" d="M1566 1283l0 0c-6,-3 -13,-7 -19,-10l19 10z"/>
   <path class="fil43" d="M1573 1287l0 0 12 8c-4,-3 -8,-6 -12,-8z"/>
   <path class="fil44" d="M1279 536l16 12c-5,-4 -10,-8 -16,-12z"/>
   <path class="fil45" d="M1411 462c218,0 394,177 394,394 0,136 -69,256 -173,327l6 -4c101,71 167,189 167,322 0,72 -19,140 -53,198 -26,-46 -62,-86 -104,-118 9,-25 13,-52 13,-80 0,-124 -91,-228 -211,-247 -35,181 -195,318 -387,318 -6,0 -12,0 -18,0 43,-43 75,-97 95,-156 82,-26 146,-94 167,-179 -33,-9 -65,-22 -94,-39 46,-26 86,-62 118,-104 25,8 52,13 80,13 138,0 250,-112 250,-251 0,-138 -112,-250 -250,-250 -28,0 -55,4 -80,13 -32,-42 -72,-78 -118,-104 58,-34 126,-53 198,-53zm-387 69l0 0c0,-38 -31,-69 -69,-69l-301 0c-38,0 -69,31 -69,69l0 0c0,39 31,70 69,70l301 0c38,0 69,-31 69,-70zm0 277l0 0c0,-38 -31,-69 -69,-69l-439 0c-39,0 -70,31 -70,69l0 0c0,39 31,70 70,70l439 0c38,0 69,-31 69,-70zm0 828l0 0c0,-38 -31,-69 -69,-69l-302 0c-38,0 -69,31 -69,69l0 0c0,38 31,70 69,70l302 0c38,0 69,-32 69,-70zm0 -278l0 0c0,-38 -31,-69 -69,-69l-435 0c-38,0 -70,31 -70,69l0 0c0,38 32,70 70,70l435 0c38,0 69,-32 69,-70zm0 -274l0 0c0,-38 -31,-70 -70,-70l-523 0c-37,0 -69,32 -69,70l0 0c0,38 32,69 69,69l523 0c39,0 70,-31 70,-69zm531 140c-3,1 -6,2 -8,3 2,-1 5,-2 8,-3zm-66 19c-3,1 -5,1 -8,2 3,-1 5,-1 8,-2zm-9 2c-3,0 -6,1 -9,1 3,0 6,-1 9,-1zm-40 5l0 0 0 0zm0 0l0 0 0 0zm0 0l-1 0 1 0zm-1 0l0 0 0 0zm0 0l0 0 0 0zm0 0l0 0 0 0zm0 0l-1 0 1 0zm-1 0l0 0 0 0zm0 0l0 0 0 0zm0 0l0 0 0 0zm0 0l-1 0 1 0zm-1 0l0 0 0 0zm0 0l0 0 0 0zm0 0l-1 0 1 0zm-1 0l0 0 0 0zm0 0l0 0 0 0zm0 0l0 0 0 0zm0 0l0 0 0 0zm0 0l0 0 0 0zm0 0l-3 0 3 0zm-3 0l0 0 0 0zm0 0l0 0 0 0zm0 0l0 0 0 0zm0 0l-1 0 1 0zm-1 0l0 0 0 0zm0 0l0 0 0 0zm0 0l-1 0 1 0zm-1 0l0 0 0 0zm0 0l-1 0 1 0zm-1 0l0 0 0 0zm0 0l0 0 0 0zm0 0l0 0 0 0zm0 0l0 0 0 0zm0 0l-1 1 1 -1zm-1 1l-1 0 1 0zm-1 0l0 0 0 0zm0 0l0 0 0 0zm0 0l0 0 0 0zm0 0l0 0 0 0zm0 0l-1 0 1 0zm-1 0l0 0 0 0zm0 0l0 0 0 0zm0 0l0 0 0 0zm0 0l-1 0 1 0zm-1 0l-1 0 1 0zm-1 0l0 0 0 0zm0 0l0 0 0 0zm0 0l0 0 0 0zm0 0l0 0 0 0zm0 0l-1 0 1 0zm-1 0l-1 0 1 0zm-1 0l0 0 0 0zm0 0l0 0 0 0zm0 0l0 0 0 0zm0 0l0 0 0 0zm0 0l0 0 0 0zm0 0l-1 0 1 0zm-1 0l0 0 0 0zm0 0l0 0 0 0zm0 0l0 0 0 0zm0 0l0 0 0 0zm0 0l-1 0 1 0zm-2 0l0 0 0 0zm0 0l0 0 0 0zm0 0l0 0 0 0zm0 0l0 0 0 0zm0 0l0 0 0 0zm0 0l-1 0 1 0zm-1 0l0 0 0 0zm0 0l0 0 0 0zm0 0l0 0 0 0zm0 0l0 0 0 0zm0 0l0 0 0 0zm0 0l0 0 0 0zm0 0l0 0 0 0zm0 0l-1 0 1 0zm-1 0l0 0 0 0zm0 0l0 0 0 0zm0 0l0 0 0 0zm0 0l0 0 0 0zm0 0l0 0 0 0zm0 0l0 0 0 0zm0 0l0 0 0 0zm0 0l0 0 0 0zm0 0l-1 0 1 0zm-1 0l0 0 0 0zm0 0l0 0 0 0zm0 0l0 0 0 0zm0 0l0 0 0 0zm0 0l0 0 0 0zm0 0l0 0 0 0zm0 0l-1 0 1 0zm-1 0l0 0 0 0zm0 0l0 0 0 0zm0 0l0 0 0 0zm0 0l0 0 0 0zm0 0l0 0 0 0zm0 0l0 0 0 0zm0 0l0 0 0 0zm0 0l0 0 0 0zm0 0l-1 0 1 0zm-1 0l0 0 0 0zm0 0l0 0 0 0zm0 0l0 0 0 0zm0 0l0 0 0 0zm0 0l0 0 0 0zm0 0l0 0 0 0zm0 0l-1 0 1 0zm-1 0l0 0 0 0zm0 0l0 0 0 0zm0 0l0 0 0 0zm0 0l0 0 0 0zm0 0l0 0 0 0zm0 0l0 0 0 0zm0 0l0 0 0 0zm0 0l-1 0 1 0zm-1 0l0 0 0 0zm0 0l0 0 0 0zm0 0l0 0 0 0zm0 0l0 0 0 0zm0 0l0 0 0 0zm0 0l0 0 0 0zm0 0l0 0 0 0zm0 0l0 0 0 0zm0 0l-1 0 1 0zm-1 0l0 0 0 0zm0 0l0 0 0 0zm0 0l0 0 0 0zm0 0l0 0 0 0zm0 0l0 0 0 0zm0 0l0 0 0 0zm0 0l0 0 0 0zm0 0l-1 0 1 0zm-1 0l0 0 0 0zm0 0l0 0 0 0zm0 0l0 0 0 0zm0 0l0 0 0 0zm0 0l0 0 0 0zm0 0l0 0 0 0z"/>
  </g>
 </g>
</svg>
