<?xml version="1.0" encoding="UTF-8"?>
<!DOCTYPE svg PUBLIC "-//W3C//DTD SVG 1.1//EN" "http://www.w3.org/Graphics/SVG/1.1/DTD/svg11.dtd">
<!-- Creator: CorelDRAW X7 -->
<svg xmlns="http://www.w3.org/2000/svg" xml:space="preserve" width="4.0638mm" height="4.0638mm" version="1.1" style="shape-rendering:geometricPrecision; text-rendering:geometricPrecision; image-rendering:optimizeQuality; fill-rule:evenodd; clip-rule:evenodd"
viewBox="0 0 406 406"
 xmlns:xlink="http://www.w3.org/1999/xlink">
 <defs>
  <style type="text/css">
   <![CDATA[
    .fil2 {fill:none}
    .fil45 {fill:#FEFEFE}
    .fil0 {fill:#CC272C}
    .fil1 {fill:#B7272B}
    .fil14 {fill:url(#id0)}
    .fil15 {fill:url(#id1)}
    .fil36 {fill:url(#id2)}
    .fil41 {fill:url(#id3)}
    .fil38 {fill:url(#id4)}
    .fil20 {fill:url(#id5)}
    .fil26 {fill:url(#id6)}
    .fil19 {fill:url(#id7)}
    .fil35 {fill:url(#id8)}
    .fil39 {fill:url(#id9)}
    .fil23 {fill:url(#id10)}
    .fil34 {fill:url(#id11)}
    .fil30 {fill:url(#id12)}
    .fil18 {fill:url(#id13)}
    .fil9 {fill:url(#id14)}
    .fil25 {fill:url(#id15)}
    .fil5 {fill:url(#id16)}
    .fil17 {fill:url(#id17)}
    .fil37 {fill:url(#id18)}
    .fil8 {fill:url(#id19)}
    .fil31 {fill:url(#id20)}
    .fil27 {fill:url(#id21)}
    .fil13 {fill:url(#id22)}
    .fil43 {fill:url(#id23)}
    .fil40 {fill:url(#id24)}
    .fil3 {fill:url(#id25)}
    .fil32 {fill:url(#id26)}
    .fil7 {fill:url(#id27)}
    .fil4 {fill:url(#id28)}
    .fil33 {fill:url(#id29)}
    .fil44 {fill:url(#id30)}
    .fil16 {fill:url(#id31)}
    .fil24 {fill:url(#id32)}
    .fil11 {fill:url(#id33)}
    .fil21 {fill:url(#id34)}
    .fil42 {fill:url(#id35)}
    .fil22 {fill:url(#id36)}
    .fil6 {fill:url(#id37)}
    .fil12 {fill:url(#id38)}
    .fil10 {fill:url(#id39)}
    .fil28 {fill:url(#id40)}
    .fil29 {fill:url(#id41)}
   ]]>
  </style>
  <linearGradient id="id0" gradientUnits="userSpaceOnUse" x1="315.62" y1="293.35" x2="316.3" y2="294.17">
   <stop offset="0" style="stop-opacity:1; stop-color:#332C2B"/>
   <stop offset="1" style="stop-opacity:1; stop-color:#332C2B"/>
  </linearGradient>
  <linearGradient id="id1" gradientUnits="userSpaceOnUse" xlink:href="#id0" x1="316.07" y1="291.49" x2="316.77" y2="292.35">
  </linearGradient>
  <linearGradient id="id2" gradientUnits="userSpaceOnUse" xlink:href="#id0" x1="332.89" y1="315.88" x2="334.57" y2="317.94">
  </linearGradient>
  <linearGradient id="id3" gradientUnits="userSpaceOnUse" xlink:href="#id0" x1="321.37" y1="301.47" x2="322.99" y2="303.46">
  </linearGradient>
  <linearGradient id="id4" gradientUnits="userSpaceOnUse" xlink:href="#id0" x1="328.71" y1="309.78" x2="330.36" y2="311.78">
  </linearGradient>
  <linearGradient id="id5" gradientUnits="userSpaceOnUse" xlink:href="#id0" x1="316.72" y1="278.39" x2="318.26" y2="280.29">
  </linearGradient>
  <linearGradient id="id6" gradientUnits="userSpaceOnUse" xlink:href="#id0" x1="284.4" y1="233.26" x2="284.41" y2="233.26">
  </linearGradient>
  <linearGradient id="id7" gradientUnits="userSpaceOnUse" xlink:href="#id0" x1="317.17" y1="284.02" x2="317.81" y2="284.78">
  </linearGradient>
  <linearGradient id="id8" gradientUnits="userSpaceOnUse" xlink:href="#id0" x1="315.87" y1="296.66" x2="317.37" y2="298.49">
  </linearGradient>
  <linearGradient id="id9" gradientUnits="userSpaceOnUse" xlink:href="#id0" x1="326.47" y1="306.96" x2="328.06" y2="308.9">
  </linearGradient>
  <linearGradient id="id10" gradientUnits="userSpaceOnUse" xlink:href="#id0" x1="234.42" y1="96.48" x2="236.02" y2="98.44">
  </linearGradient>
  <linearGradient id="id11" gradientUnits="userSpaceOnUse" xlink:href="#id0" x1="289.25" y1="238.21" x2="289.72" y2="238.78">
  </linearGradient>
  <linearGradient id="id12" gradientUnits="userSpaceOnUse" xlink:href="#id0" x1="285.27" y1="233.08" x2="285.29" y2="233.1">
  </linearGradient>
  <linearGradient id="id13" gradientUnits="userSpaceOnUse" xlink:href="#id0" x1="317.01" y1="285.95" x2="317.66" y2="286.75">
  </linearGradient>
  <linearGradient id="id14" gradientUnits="userSpaceOnUse" xlink:href="#id0" x1="315.5" y1="269.87" x2="317.17" y2="271.92">
  </linearGradient>
  <linearGradient id="id15" gradientUnits="userSpaceOnUse" xlink:href="#id0" x1="284.27" y1="233.28" x2="284.28" y2="233.29">
  </linearGradient>
  <linearGradient id="id16" gradientUnits="userSpaceOnUse" xlink:href="#id0" x1="303.94" y1="248.3" x2="305.73" y2="250.5">
  </linearGradient>
  <linearGradient id="id17" gradientUnits="userSpaceOnUse" xlink:href="#id0" x1="316.78" y1="287.81" x2="317.43" y2="288.59">
  </linearGradient>
  <linearGradient id="id18" gradientUnits="userSpaceOnUse" xlink:href="#id0" x1="330.89" y1="312.79" x2="332.53" y2="314.79">
  </linearGradient>
  <linearGradient id="id19" gradientUnits="userSpaceOnUse" xlink:href="#id0" x1="316.29" y1="274.07" x2="317.91" y2="276.04">
  </linearGradient>
  <linearGradient id="id20" gradientUnits="userSpaceOnUse" xlink:href="#id0" x1="283.57" y1="235.71" x2="285.06" y2="237.53">
  </linearGradient>
  <linearGradient id="id21" gradientUnits="userSpaceOnUse" xlink:href="#id0" x1="284.42" y1="233.25" x2="284.44" y2="233.26">
  </linearGradient>
  <linearGradient id="id22" gradientUnits="userSpaceOnUse" xlink:href="#id0" x1="315.09" y1="295.14" x2="315.79" y2="295.98">
  </linearGradient>
  <linearGradient id="id23" gradientUnits="userSpaceOnUse" xlink:href="#id0" x1="295.45" y1="241.33" x2="296.58" y2="242.72">
  </linearGradient>
  <linearGradient id="id24" gradientUnits="userSpaceOnUse" xlink:href="#id0" x1="323.94" y1="304.1" x2="325.52" y2="306.04">
  </linearGradient>
  <linearGradient id="id25" gradientUnits="userSpaceOnUse" xlink:href="#id0" x1="308.94" y1="254.65" x2="310.79" y2="256.92">
  </linearGradient>
  <linearGradient id="id26" gradientUnits="userSpaceOnUse" xlink:href="#id0" x1="281.34" y1="235.78" x2="281.37" y2="235.81">
  </linearGradient>
  <linearGradient id="id27" gradientUnits="userSpaceOnUse" xlink:href="#id0" x1="297.91" y1="242.91" x2="299.66" y2="245.05">
  </linearGradient>
  <linearGradient id="id28" gradientUnits="userSpaceOnUse" xlink:href="#id0" x1="306.58" y1="251.37" x2="308.39" y2="253.58">
  </linearGradient>
  <linearGradient id="id29" gradientUnits="userSpaceOnUse" xlink:href="#id0" x1="286.81" y1="237.07" x2="287.68" y2="238.14">
  </linearGradient>
  <linearGradient id="id30" gradientUnits="userSpaceOnUse" xlink:href="#id0" x1="240.53" y1="100.64" x2="242.17" y2="102.66">
  </linearGradient>
  <linearGradient id="id31" gradientUnits="userSpaceOnUse" xlink:href="#id0" x1="316.46" y1="289.68" x2="317.13" y2="290.49">
  </linearGradient>
  <linearGradient id="id32" gradientUnits="userSpaceOnUse" xlink:href="#id0" x1="251.42" y1="110.8" x2="253.01" y2="112.74">
  </linearGradient>
  <linearGradient id="id33" gradientUnits="userSpaceOnUse" xlink:href="#id0" x1="312.87" y1="261.92" x2="314.62" y2="264.07">
  </linearGradient>
  <linearGradient id="id34" gradientUnits="userSpaceOnUse" xlink:href="#id0" x1="278.74" y1="234.9" x2="279.49" y2="235.8">
  </linearGradient>
  <linearGradient id="id35" gradientUnits="userSpaceOnUse" xlink:href="#id0" x1="291.01" y1="238.65" x2="292.66" y2="240.65">
  </linearGradient>
  <linearGradient id="id36" gradientUnits="userSpaceOnUse" xlink:href="#id0" x1="237.52" y1="98.49" x2="239.16" y2="100.47">
  </linearGradient>
  <linearGradient id="id37" gradientUnits="userSpaceOnUse" xlink:href="#id0" x1="301.03" y1="245.47" x2="302.82" y2="247.65">
  </linearGradient>
  <linearGradient id="id38" gradientUnits="userSpaceOnUse" xlink:href="#id0" x1="311.04" y1="258.17" x2="312.88" y2="260.41">
  </linearGradient>
  <linearGradient id="id39" gradientUnits="userSpaceOnUse" xlink:href="#id0" x1="314.35" y1="265.81" x2="316.07" y2="267.92">
  </linearGradient>
  <linearGradient id="id40" gradientUnits="userSpaceOnUse" xlink:href="#id0" x1="285.08" y1="233.11" x2="285.1" y2="233.14">
  </linearGradient>
  <linearGradient id="id41" gradientUnits="userSpaceOnUse" xlink:href="#id0" x1="285.14" y1="233.11" x2="285.15" y2="233.12">
  </linearGradient>
 </defs>
 <g id="Layer_x0020_1">
  <metadata id="CorelCorpID_0Corel-Layer"/>
  <g id="_677561072">
   <path class="fil0" d="M203 0c112,0 203,91 203,203 0,112 -91,203 -203,203 -112,0 -203,-91 -203,-203 0,-112 91,-203 203,-203z"/>
   <path class="fil1" d="M247 402c-14,3 -29,4 -44,4 -111,0 -202,-89 -203,-201l113 -115c3,-2 6,-3 10,-3l56 0c7,0 13,5 13,13l0 0c0,3 -1,6 -4,9l-29 30 20 0c2,0 4,0 6,1l42 -44c11,-6 24,-9 37,-9 41,0 74,33 74,74 0,20 -8,39 -22,52l-8 9c18,13 30,35 30,60 0,13 -3,26 -9,37l-82 83z"/>
   <line class="fil2" x1="285" y1="233" x2="285" y2= "233" />
   <line class="fil2" x1="284" y1="233" x2="284" y2= "233" />
   <path class="fil3" d="M309 254l2 3c-1,-1 -1,-2 -2,-3z"/>
   <path class="fil4" d="M306 251l3 3c-1,-1 -2,-2 -3,-3z"/>
   <path class="fil5" d="M303 248l3 3c-1,-1 -2,-2 -3,-3z"/>
   <path class="fil6" d="M300 245l3 3c-1,-1 -2,-2 -3,-3z"/>
   <path class="fil7" d="M297 243l3 2c-1,-1 -2,-1 -3,-2z"/>
   <path class="fil8" d="M317 273l0 4c0,-1 0,-3 0,-4z"/>
   <path class="fil9" d="M316 269l1 4c0,-1 -1,-3 -1,-4z"/>
   <path class="fil10" d="M315 265l1 4c-1,-1 -1,-3 -1,-4z"/>
   <path class="fil11" d="M313 261l2 4c-1,-1 -1,-3 -2,-4z"/>
   <path class="fil12" d="M311 257l2 4c-1,-1 -1,-2 -2,-4z"/>
   <polyline class="fil2" points="315,296 315,296 315,296 "/>
   <path class="fil13" d="M316 295l-1 1c0,0 1,-1 1,-1z"/>
   <path class="fil14" d="M316 293l0 2c0,-1 0,-1 0,-2z"/>
   <path class="fil15" d="M317 291l-1 2c0,-1 0,-1 1,-2z"/>
   <path class="fil16" d="M317 289l0 2c0,-1 0,-1 0,-2z"/>
   <path class="fil17" d="M317 287l0 2c0,-1 0,-1 0,-2z"/>
   <path class="fil18" d="M317 285l0 2c0,0 0,-1 0,-2z"/>
   <path class="fil19" d="M318 284l-1 1c0,0 1,-1 1,-1z"/>
   <path class="fil2" d="M318 282l0 0 0 0 0 0c0,0 0,1 0,1l0 -1"/>
   <path class="fil20" d="M317 277l1 5c0,-2 0,-3 -1,-5z"/>
   <path class="fil21" d="M280 236l0 0c-1,-1 -1,-1 -2,-1l2 1z"/>
   <path class="fil2" d="M246 105c1,1 1,2 2,3 1,1 2,1 3,2"/>
   <path class="fil22" d="M237 98l3 3c-1,-1 -2,-2 -3,-3z"/>
   <path class="fil23" d="M234 96l3 2c-1,0 -2,-1 -3,-2z"/>
   <line class="fil2" x1="253" y1="113" x2="256" y2= "116" />
   <path class="fil2" d="M257 116c0,0 -1,0 -1,0"/>
   <path class="fil2" d="M259 115c0,0 -1,0 -1,0"/>
   <path class="fil2" d="M261 115c-1,0 -1,0 -2,0"/>
   <path class="fil2" d="M263 114c-1,0 -1,0 -2,1"/>
   <path class="fil2" d="M265 114c-1,0 -1,0 -2,0"/>
   <path class="fil2" d="M267 114c-1,0 -2,0 -2,0"/>
   <path class="fil2" d="M269 114c-1,0 -2,0 -2,0"/>
   <path class="fil2" d="M271 114c-1,0 -2,0 -2,0"/>
   <path class="fil2" d="M304 194c1,-1 2,-2 3,-4 1,-1 2,-2 3,-3 0,-1 1,-3 2,-4 1,-1 1,-3 2,-4 0,-2 1,-3 1,-4 1,-2 1,-3 2,-5 0,-1 0,-3 0,-5 1,-1 1,-3 1,-4 0,-2 0,-4 -1,-5 0,-2 0,-3 0,-5 -1,-1 -1,-3 -2,-4 0,-2 -1,-3 -1,-5 -1,-1 -1,-2 -2,-4 -1,-1 -2,-2 -2,-4 -1,-1 -2,-2 -3,-3 -1,-1 -2,-3 -3,-4 -1,-1 -2,-2 -3,-3 -2,-1 -3,-2 -4,-2 -1,-1 -3,-2 -4,-3 -1,0 -3,-1 -4,-2 -1,0 -3,-1 -4,-1 -2,-1 -3,-1 -5,-1 -1,-1 -3,-1 -5,-1 -1,0 -3,0 -4,0"/>
   <path class="fil2" d="M253 113l0 0 0 0c1,1 2,2 3,3l0 0 0 0 -73 74 2 0"/>
   <path class="fil24" d="M251 110l2 3c0,-1 -1,-2 -2,-3z"/>
   <path class="fil2" d="M243 103l0 0 0 0c1,1 2,1 3,2l-3 -2"/>
   <polyline class="fil2" points="284,233 284,233 284,233 "/>
   <polyline class="fil2" points="285,233 284,233 284,233 "/>
   <line class="fil2" x1="285" y1="233" x2="285" y2= "233" />
   <line class="fil2" x1="285" y1="233" x2="285" y2= "233" />
   <polygon class="fil25" points="284,233 284,233 284,233 284,233 "/>
   <polyline class="fil2" points="284,233 284,233 284,233 284,233 284,233 284,233 284,233 284,233 284,233 284,233 "/>
   <polygon class="fil26" points="284,233 284,233 284,233 "/>
   <polygon class="fil27" points="284,233 284,233 284,233 "/>
   <polyline class="fil2" points="285,233 285,233 285,233 285,233 285,233 285,233 285,233 285,233 285,233 285,233 "/>
   <polyline class="fil2" points="285,233 285,233 285,233 285,233 285,233 "/>
   <polygon class="fil28" points="285,233 285,233 285,233 285,233 285,233 285,233 285,233 285,233 285,233 "/>
   <polygon class="fil29" points="285,233 285,233 285,233 "/>
   <polygon class="fil30" points="285,233 285,233 285,233 285,233 285,233 285,233 "/>
   <path class="fil31" d="M282 236l0 0c2,0 3,1 4,1l-4 -1z"/>
   <polygon class="fil32" points="281,236 281,236 281,236 281,236 "/>
   <path class="fil33" d="M288 238l0 0c0,0 -1,-1 -2,-1l2 1z"/>
   <polygon class="fil34" points="289,238 289,238 290,239 "/>
   <path class="fil2" d="M318 299l0 0 0 0 3 2c-1,-1 -2,-1 -3,-2"/>
   <path class="fil35" d="M315 296l3 3c-1,-1 -2,-2 -3,-3z"/>
   <path class="fil36" d="M333 315l2 4c-1,-2 -2,-3 -2,-4z"/>
   <path class="fil37" d="M331 312l2 3c-1,-1 -2,-2 -2,-3z"/>
   <path class="fil38" d="M328 309l3 3c-1,-1 -2,-2 -3,-3z"/>
   <path class="fil39" d="M326 307l2 2c0,-1 -1,-2 -2,-2z"/>
   <path class="fil40" d="M324 304l2 2c-1,-1 -2,-1 -2,-2z"/>
   <path class="fil41" d="M321 301l3 3c-1,-1 -2,-2 -3,-3z"/>
   <path class="fil42" d="M294 241l0 0c-2,-1 -3,-2 -4,-2l4 2z"/>
   <path class="fil43" d="M295 241l0 0 2 2c-1,-1 -1,-1 -2,-2z"/>
   <path class="fil44" d="M240 101l3 2c-1,-1 -2,-2 -3,-2z"/>
   <path class="fil45" d="M264 87c41,0 74,33 74,74 0,25 -12,48 -32,61l1 -1c19,13 31,36 31,61 0,13 -3,26 -9,37 -5,-9 -12,-17 -20,-23 2,-4 2,-9 2,-14 0,-24 -17,-43 -39,-47 -7,34 -37,60 -73,60 -1,0 -2,0 -3,0 8,-8 14,-18 18,-29 15,-5 27,-18 31,-34 -6,-2 -12,-4 -18,-7 9,-5 17,-12 23,-20 4,2 9,3 14,3 26,0 47,-21 47,-47 0,-26 -21,-47 -47,-47 -5,0 -10,0 -14,2 -6,-8 -14,-15 -23,-20 11,-6 24,-9 37,-9zm-72 13l0 0c0,-8 -6,-13 -13,-13l-56 0c-8,0 -13,5 -13,13l0 0c0,7 5,13 13,13l56 0c7,0 13,-6 13,-13zm0 52l0 0c0,-8 -6,-13 -13,-13l-82 0c-7,0 -13,5 -13,13l0 0c0,7 6,13 13,13l82 0c7,0 13,-6 13,-13zm0 155l0 0c0,-7 -6,-13 -13,-13l-57 0c-7,0 -13,6 -13,13l0 0c0,7 6,13 13,13l57 0c7,0 13,-6 13,-13zm0 -52l0 0c0,-8 -6,-13 -13,-13l-82 0c-7,0 -13,5 -13,13l0 0c0,7 6,13 13,13l82 0c7,0 13,-6 13,-13zm0 -52l0 0c0,-7 -6,-13 -13,-13l-98 0c-7,0 -13,6 -13,13l0 0c0,7 6,13 13,13l98 0c7,0 13,-6 13,-13zm100 26c-1,1 -1,1 -2,1 1,0 1,0 2,-1zm-13 4c0,0 -1,0 -1,0 0,0 1,0 1,0zm-1 0c-1,0 -2,1 -2,1 0,0 1,-1 2,-1zm-8 1l0 0 0 0zm0 0l0 0 0 0zm0 0l0 0 0 0zm0 0l0 0 0 0zm0 0l0 0 0 0zm0 0l0 0 0 0zm0 0l0 0 0 0zm0 0l0 0 0 0zm0 0l0 0 0 0zm0 0l0 0 0 0zm0 0l-1 0 1 0zm-1 0l0 0 0 0zm0 0l0 0 0 0zm0 0l0 0 0 0zm0 0l0 0 0 0zm0 0l0 0 0 0zm0 0l0 0 0 0zm0 0l0 0 0 0zm0 0l0 0 0 0zm0 0l0 0 0 0zm0 0l0 0 0 0zm0 0l0 0 0 0zm0 0l0 0 0 0zm0 0l0 0 0 0zm0 0l-1 0 1 0zm-1 0l0 0 0 0zm0 0l0 0 0 0zm0 0l0 0 0 0zm0 0l0 0 0 0zm0 0l0 0 0 0zm0 0l0 0 0 0zm0 0l0 0 0 0zm0 0l0 0 0 0zm0 0l0 0 0 0zm0 0l0 0 0 0zm0 0l0 0 0 0zm0 0l0 0 0 0zm0 0l0 0 0 0zm0 0l0 0 0 0zm0 0l0 0 0 0zm0 0l0 0 0 0zm0 0l0 0 0 0zm0 0l0 0 0 0zm0 0l-1 0 1 0zm-1 0l0 0 0 0zm0 0l0 0 0 0zm0 0l0 0 0 0zm0 0l0 1 0 -1zm0 1l0 0 0 0zm0 0l0 0 0 0zm0 0l0 0 0 0zm0 0l0 0 0 0zm0 0l0 0 0 0zm0 0l0 0 0 0zm0 0l0 0 0 0zm0 0l0 0 0 0zm0 0l0 0 0 0zm0 0l0 0 0 0zm0 0l0 0 0 0zm0 0l0 0 0 0zm0 0l0 0 0 0zm0 0l0 0 0 0zm-1 0l0 0 0 0zm0 0l0 0 0 0zm0 0l0 0 0 0zm0 0l0 0 0 0zm0 0l0 0 0 0zm0 0l0 0 0 0zm0 0l0 0 0 0zm0 0l0 0 0 0zm0 0l0 0 0 0zm0 0l0 0 0 0zm0 0l0 0 0 0zm0 0l0 0 0 0zm0 0l0 0 0 0zm0 0l0 0 0 0zm0 0l0 0 0 0zm0 0l0 0 0 0zm0 0l0 0 0 0zm0 0l0 0 0 0zm0 0l0 0 0 0zm0 0l0 0 0 0zm0 0l0 0 0 0zm0 0l0 0 0 0zm0 0l0 0 0 0zm0 0l0 0 0 0zm0 0l0 0 0 0zm0 0l0 0 0 0zm0 0l0 0 0 0zm0 0l0 0 0 0zm0 0l0 0 0 0zm0 0l0 0 0 0zm0 0l0 0 0 0zm0 0l0 0 0 0zm0 0l0 0 0 0zm0 0l-1 0 1 0zm-1 0l0 0 0 0zm0 0l0 0 0 0zm0 0l0 0 0 0zm0 0l0 0 0 0zm0 0l0 0 0 0zm0 0l0 0 0 0zm0 0l0 0 0 0zm0 0l0 0 0 0zm0 0l0 0 0 0zm0 0l0 0 0 0zm0 0l0 0 0 0zm0 0l0 0 0 0zm0 0l0 0 0 0zm0 0l0 0 0 0zm0 0l0 0 0 0zm0 0l0 0 0 0zm0 0l0 0 0 0zm0 0l0 0 0 0zm0 0l0 0 0 0zm0 0l0 0 0 0zm0 0l0 0 0 0zm0 0l0 0 0 0zm0 0l0 0 0 0zm0 0l0 0 0 0zm0 0l0 0 0 0zm0 0l0 0 0 0zm0 0l0 0 0 0zm0 0l0 0 0 0zm0 0l0 0 0 0zm0 0l0 0 0 0zm0 0l0 0 0 0zm0 0l0 0 0 0zm0 0l0 0 0 0zm0 0l0 0 0 0zm0 0l0 0 0 0zm0 0l0 0 0 0zm0 0l0 0 0 0zm0 0l0 0 0 0zm0 0l0 0 0 0zm0 0l0 0 0 0zm0 0l0 0 0 0zm0 0l0 0 0 0zm0 0l-1 0 1 0z"/>
  </g>
 </g>
</svg>
