<?xml version="1.0" encoding="UTF-8"?>
<!DOCTYPE svg PUBLIC "-//W3C//DTD SVG 1.1//EN" "http://www.w3.org/Graphics/SVG/1.1/DTD/svg11.dtd">
<!-- Creator: CorelDRAW X7 -->
<svg xmlns="http://www.w3.org/2000/svg" xml:space="preserve" width="43.3492mm" height="43.3492mm" version="1.1" style="shape-rendering:geometricPrecision; text-rendering:geometricPrecision; image-rendering:optimizeQuality; fill-rule:evenodd; clip-rule:evenodd"
viewBox="0 0 4335 4335"
 xmlns:xlink="http://www.w3.org/1999/xlink">
 <defs>
  <style type="text/css">
   <![CDATA[
    .fil2 {fill:none}
    .fil45 {fill:#FEFEFE}
    .fil0 {fill:#CC272C}
    .fil1 {fill:#B7272B}
    .fil32 {fill:url(#id0)}
    .fil31 {fill:url(#id1)}
    .fil42 {fill:url(#id2)}
    .fil39 {fill:url(#id3)}
    .fil18 {fill:url(#id4)}
    .fil37 {fill:url(#id5)}
    .fil27 {fill:url(#id6)}
    .fil38 {fill:url(#id7)}
    .fil7 {fill:url(#id8)}
    .fil24 {fill:url(#id9)}
    .fil23 {fill:url(#id10)}
    .fil26 {fill:url(#id11)}
    .fil11 {fill:url(#id12)}
    .fil40 {fill:url(#id13)}
    .fil35 {fill:url(#id14)}
    .fil22 {fill:url(#id15)}
    .fil21 {fill:url(#id16)}
    .fil15 {fill:url(#id17)}
    .fil33 {fill:url(#id18)}
    .fil13 {fill:url(#id19)}
    .fil44 {fill:url(#id20)}
    .fil4 {fill:url(#id21)}
    .fil20 {fill:url(#id22)}
    .fil19 {fill:url(#id23)}
    .fil30 {fill:url(#id24)}
    .fil17 {fill:url(#id25)}
    .fil43 {fill:url(#id26)}
    .fil28 {fill:url(#id27)}
    .fil16 {fill:url(#id28)}
    .fil5 {fill:url(#id29)}
    .fil36 {fill:url(#id30)}
    .fil34 {fill:url(#id31)}
    .fil3 {fill:url(#id32)}
    .fil12 {fill:url(#id33)}
    .fil25 {fill:url(#id34)}
    .fil10 {fill:url(#id35)}
    .fil6 {fill:url(#id36)}
    .fil8 {fill:url(#id37)}
    .fil9 {fill:url(#id38)}
    .fil14 {fill:url(#id39)}
    .fil41 {fill:url(#id40)}
    .fil29 {fill:url(#id41)}
   ]]>
  </style>
  <linearGradient id="id0" gradientUnits="userSpaceOnUse" x1="3001.07" y1="2515.08" x2="3001.37" y2="2515.44">
   <stop offset="0" style="stop-opacity:1; stop-color:#332C2B"/>
   <stop offset="1" style="stop-opacity:1; stop-color:#332C2B"/>
  </linearGradient>
  <linearGradient id="id1" gradientUnits="userSpaceOnUse" xlink:href="#id0" x1="3024.87" y1="2514.35" x2="3040.73" y2="2533.74">
  </linearGradient>
  <linearGradient id="id2" gradientUnits="userSpaceOnUse" xlink:href="#id0" x1="3103.99" y1="2545.35" x2="3122.02" y2="2567.37">
  </linearGradient>
  <linearGradient id="id3" gradientUnits="userSpaceOnUse" xlink:href="#id0" x1="3482.2" y1="3274.07" x2="3499.62" y2="3295.38">
  </linearGradient>
  <linearGradient id="id4" gradientUnits="userSpaceOnUse" xlink:href="#id0" x1="3381.52" y1="3050.22" x2="3388.44" y2="3058.7">
  </linearGradient>
  <linearGradient id="id5" gradientUnits="userSpaceOnUse" xlink:href="#id0" x1="3529.31" y1="3336.2" x2="3547.33" y2="3358.22">
  </linearGradient>
  <linearGradient id="id6" gradientUnits="userSpaceOnUse" xlink:href="#id0" x1="3033.96" y1="2488.12" x2="3034.06" y2="2488.22">
  </linearGradient>
  <linearGradient id="id7" gradientUnits="userSpaceOnUse" xlink:href="#id0" x1="3506.16" y1="3304.07" x2="3524.18" y2="3326.13">
  </linearGradient>
  <linearGradient id="id8" gradientUnits="userSpaceOnUse" xlink:href="#id0" x1="3177.51" y1="2590.77" x2="3196.75" y2="2614.3">
  </linearGradient>
  <linearGradient id="id9" gradientUnits="userSpaceOnUse" xlink:href="#id0" x1="2681.68" y1="1181.68" x2="2699.1" y2="1202.98">
  </linearGradient>
  <linearGradient id="id10" gradientUnits="userSpaceOnUse" xlink:href="#id0" x1="2500.54" y1="1029.22" x2="2517.66" y2="1050.12">
  </linearGradient>
  <linearGradient id="id11" gradientUnits="userSpaceOnUse" xlink:href="#id0" x1="3033.68" y1="2488.17" x2="3033.78" y2="2488.27">
  </linearGradient>
  <linearGradient id="id12" gradientUnits="userSpaceOnUse" xlink:href="#id0" x1="3337.09" y1="2793.57" x2="3356.38" y2="2817.15">
  </linearGradient>
  <linearGradient id="id13" gradientUnits="userSpaceOnUse" xlink:href="#id0" x1="3455.14" y1="3243.53" x2="3472.56" y2="3264.78">
  </linearGradient>
  <linearGradient id="id14" gradientUnits="userSpaceOnUse" xlink:href="#id0" x1="3369.12" y1="3164.13" x2="3385.64" y2="3184.33">
  </linearGradient>
  <linearGradient id="id15" gradientUnits="userSpaceOnUse" xlink:href="#id0" x1="2533.74" y1="1050.63" x2="2551.06" y2="1071.83">
  </linearGradient>
  <linearGradient id="id16" gradientUnits="userSpaceOnUse" xlink:href="#id0" x1="2973.4" y1="2505.67" x2="2981.27" y2="2515.26">
  </linearGradient>
  <linearGradient id="id17" gradientUnits="userSpaceOnUse" xlink:href="#id0" x1="3371.47" y1="3109.32" x2="3379" y2="3118.51">
  </linearGradient>
  <linearGradient id="id18" gradientUnits="userSpaceOnUse" xlink:href="#id0" x1="3059.23" y1="2528.69" x2="3068.88" y2="2540.46">
  </linearGradient>
  <linearGradient id="id19" gradientUnits="userSpaceOnUse" xlink:href="#id0" x1="3361" y1="3148.15" x2="3368.57" y2="3157.39">
  </linearGradient>
  <linearGradient id="id20" gradientUnits="userSpaceOnUse" xlink:href="#id0" x1="2565.73" y1="1073.65" x2="2583.3" y2="1095.11">
  </linearGradient>
  <linearGradient id="id21" gradientUnits="userSpaceOnUse" xlink:href="#id0" x1="3270.03" y1="2681.08" x2="3289.88" y2="2705.31">
  </linearGradient>
  <linearGradient id="id22" gradientUnits="userSpaceOnUse" xlink:href="#id0" x1="3378.41" y1="2969.61" x2="3394.88" y2="2989.81">
  </linearGradient>
  <linearGradient id="id23" gradientUnits="userSpaceOnUse" xlink:href="#id0" x1="3383.39" y1="3029.64" x2="3389.95" y2="3037.77">
  </linearGradient>
  <linearGradient id="id24" gradientUnits="userSpaceOnUse" xlink:href="#id0" x1="3043" y1="2486.25" x2="3043.2" y2="2486.51">
  </linearGradient>
  <linearGradient id="id25" gradientUnits="userSpaceOnUse" xlink:href="#id0" x1="3379.17" y1="3070.09" x2="3385.94" y2="3078.37">
  </linearGradient>
  <linearGradient id="id26" gradientUnits="userSpaceOnUse" xlink:href="#id0" x1="3151.35" y1="2574.11" x2="3163.83" y2="2589.36">
  </linearGradient>
  <linearGradient id="id27" gradientUnits="userSpaceOnUse" xlink:href="#id0" x1="3040.9" y1="2486.61" x2="3041.21" y2="2486.96">
  </linearGradient>
  <linearGradient id="id28" gradientUnits="userSpaceOnUse" xlink:href="#id0" x1="3375.56" y1="3089.86" x2="3382.93" y2="3098.84">
  </linearGradient>
  <linearGradient id="id29" gradientUnits="userSpaceOnUse" xlink:href="#id0" x1="3241.78" y1="2648.31" x2="3261.53" y2="2672.39">
  </linearGradient>
  <linearGradient id="id30" gradientUnits="userSpaceOnUse" xlink:href="#id0" x1="3550.92" y1="3369.53" x2="3568.84" y2="3391.44">
  </linearGradient>
  <linearGradient id="id31" gradientUnits="userSpaceOnUse" xlink:href="#id0" x1="3085.41" y1="2541.01" x2="3090.41" y2="2547.12">
  </linearGradient>
  <linearGradient id="id32" gradientUnits="userSpaceOnUse" xlink:href="#id0" x1="3295.48" y1="2716.39" x2="3315.22" y2="2740.53">
  </linearGradient>
  <linearGradient id="id33" gradientUnits="userSpaceOnUse" xlink:href="#id0" x1="3317.88" y1="2753.94" x2="3337.47" y2="2777.87">
  </linearGradient>
  <linearGradient id="id34" gradientUnits="userSpaceOnUse" xlink:href="#id0" x1="3032.35" y1="2488.43" x2="3032.45" y2="2488.53">
  </linearGradient>
  <linearGradient id="id35" gradientUnits="userSpaceOnUse" xlink:href="#id0" x1="3352.92" y1="2835.13" x2="3371.8" y2="2858.2">
  </linearGradient>
  <linearGradient id="id36" gradientUnits="userSpaceOnUse" xlink:href="#id0" x1="3210.86" y1="2618.09" x2="3230.45" y2="2642.02">
  </linearGradient>
  <linearGradient id="id37" gradientUnits="userSpaceOnUse" xlink:href="#id0" x1="3373.64" y1="2923.23" x2="3391.32" y2="2944.84">
  </linearGradient>
  <linearGradient id="id38" gradientUnits="userSpaceOnUse" xlink:href="#id0" x1="3365.14" y1="2878.42" x2="3383.51" y2="2900.84">
  </linearGradient>
  <linearGradient id="id39" gradientUnits="userSpaceOnUse" xlink:href="#id0" x1="3366.78" y1="3129.21" x2="3373.95" y2="3137.95">
  </linearGradient>
  <linearGradient id="id40" gradientUnits="userSpaceOnUse" xlink:href="#id0" x1="3427.72" y1="3215.48" x2="3445.64" y2="3237.34">
  </linearGradient>
  <linearGradient id="id41" gradientUnits="userSpaceOnUse" xlink:href="#id0" x1="3041.56" y1="2486.63" x2="3041.66" y2="2486.73">
  </linearGradient>
 </defs>
 <g id="Layer_x0020_1">
  <metadata id="CorelCorpID_0Corel-Layer"/>
  <g id="_4402224">
   <path class="fil0" d="M2167 0c1198,0 2168,970 2168,2167 0,1198 -970,2168 -2168,2168 -1197,0 -2167,-970 -2167,-2168 0,-1197 970,-2167 2167,-2167z"/>
   <path class="fil1" d="M2630 4285c-149,33 -304,50 -463,50 -1188,0 -2154,-957 -2167,-2143l1210 -1228c25,-25 60,-40 98,-40l601 0c77,0 139,62 139,139l0 0c0,38 -15,73 -40,98l-313 317 215 0c22,0 42,5 61,14l456 -463c116,-67 250,-105 394,-105 436,0 789,353 789,789 0,221 -90,420 -237,564l-87 88c197,144 324,376 324,638 0,144 -38,278 -105,394l-875 888z"/>
   <line class="fil2" x1="3039" y1="2487" x2="3040" y2= "2487" />
   <line class="fil2" x1="3032" y1="2489" x2="3032" y2= "2489" />
   <path class="fil3" d="M3293 2710l24 37c-7,-13 -15,-25 -24,-37z"/>
   <path class="fil4" d="M3267 2676l26 34c-8,-11 -17,-23 -26,-34z"/>
   <path class="fil5" d="M3237 2645l30 31c-10,-11 -20,-21 -30,-31z"/>
   <path class="fil6" d="M3205 2616l32 29c-11,-11 -21,-20 -32,-29z"/>
   <path class="fil7" d="M3170 2589l35 27c-12,-10 -23,-18 -35,-27z"/>
   <path class="fil8" d="M3379 2911l7 46c-2,-16 -4,-31 -7,-46z"/>
   <path class="fil9" d="M3369 2868l10 43c-2,-14 -6,-29 -10,-43z"/>
   <path class="fil10" d="M3355 2826l14 42c-4,-15 -8,-29 -14,-42z"/>
   <path class="fil11" d="M3338 2785l17 41c-5,-14 -11,-28 -17,-41z"/>
   <path class="fil12" d="M3317 2747l21 38c-6,-13 -13,-26 -21,-38z"/>
   <polyline class="fil2" points="3362,3161 3362,3162 3362,3162 "/>
   <path class="fil13" d="M3367 3144l-5 17c2,-5 4,-11 5,-17z"/>
   <path class="fil14" d="M3373 3125l-5 17c2,-6 3,-11 5,-17z"/>
   <path class="fil15" d="M3377 3105l-4 18c2,-6 3,-12 4,-18z"/>
   <path class="fil16" d="M3381 3085l-3 18c1,-6 2,-12 3,-18z"/>
   <path class="fil17" d="M3384 3065l-3 18c1,-6 2,-12 3,-18z"/>
   <path class="fil18" d="M3386 3045l-2 19c1,-6 1,-13 2,-19z"/>
   <path class="fil19" d="M3387 3025l-1 18c1,-6 1,-12 1,-18z"/>
   <path class="fil2" d="M3388 3003l0 0 0 1 0 0c0,6 0,12 -1,18l1 -18"/>
   <path class="fil20" d="M3386 2957l2 46c0,-16 -1,-31 -2,-46z"/>
   <path class="fil21" d="M2988 2513l1 -1c-8,-1 -15,-3 -23,-4l22 5z"/>
   <path class="fil2" d="M2620 1122c10,9 20,18 29,27 10,9 19,18 28,28"/>
   <path class="fil22" d="M2526 1050l33 22c-11,-7 -22,-15 -33,-22z"/>
   <path class="fil23" d="M2492 1029l34 21c-11,-7 -22,-14 -34,-21z"/>
   <line class="fil2" x1="2704" y1="1208" x2="2727" y2= "1237" />
   <path class="fil2" d="M2745 1232c-5,2 -11,4 -17,5"/>
   <path class="fil2" d="M2765 1227c-6,1 -11,3 -17,4"/>
   <path class="fil2" d="M2785 1222c-6,2 -12,3 -18,4"/>
   <path class="fil2" d="M2804 1219c-6,1 -12,2 -18,3"/>
   <path class="fil2" d="M2824 1216c-6,0 -12,1 -18,2"/>
   <path class="fil2" d="M2844 1214c-6,0 -12,1 -18,2"/>
   <path class="fil2" d="M2865 1212c-6,1 -12,1 -18,1"/>
   <path class="fil2" d="M2886 1212c-6,0 -12,0 -18,0"/>
   <path class="fil2" d="M3241 2067c11,-11 22,-23 32,-36 11,-12 20,-25 29,-38 9,-13 18,-27 25,-41 8,-15 15,-29 21,-44 7,-15 12,-31 17,-46 5,-16 9,-32 13,-48 3,-17 5,-33 7,-50 2,-17 3,-34 3,-51 0,-17 -1,-35 -3,-51 -2,-17 -4,-34 -7,-50 -4,-16 -8,-32 -13,-48 -5,-16 -10,-31 -17,-46 -6,-15 -13,-30 -21,-44 -7,-14 -16,-28 -25,-41 -9,-14 -18,-26 -29,-39 -10,-12 -21,-24 -32,-35 -11,-12 -23,-23 -36,-33 -12,-10 -25,-20 -38,-29 -13,-9 -27,-17 -41,-25 -15,-7 -29,-14 -44,-21 -15,-6 -31,-12 -46,-17 -16,-5 -32,-9 -48,-12 -17,-3 -33,-6 -50,-8 -17,-1 -34,-2 -51,-2"/>
   <path class="fil2" d="M2703 1207l0 0 1 1c8,9 15,19 23,29l0 0 1 1 -780 791 26 0"/>
   <path class="fil24" d="M2678 1178l25 29c-8,-10 -17,-20 -25,-29z"/>
   <path class="fil2" d="M2590 1096l1 1 0 0c10,8 19,16 29,24l-29 -24"/>
   <polyline class="fil2" points="3030,2489 3030,2489 3029,2489 "/>
   <polyline class="fil2" points="3035,2488 3035,2488 3034,2488 "/>
   <line class="fil2" x1="3036" y1="2488" x2="3036" y2= "2488" />
   <line class="fil2" x1="3039" y1="2487" x2="3039" y2= "2487" />
   <polygon class="fil25" points="3033,2488 3032,2489 3032,2489 3032,2489 "/>
   <polyline class="fil2" points="3034,2488 3033,2488 3033,2488 3033,2488 3033,2488 3033,2488 3033,2488 3033,2488 3033,2488 3033,2488 "/>
   <polygon class="fil26" points="3034,2488 3034,2488 3034,2488 "/>
   <polygon class="fil27" points="3034,2488 3034,2488 3034,2488 "/>
   <polyline class="fil2" points="3038,2487 3037,2488 3037,2488 3037,2488 3037,2488 3037,2488 3037,2488 3037,2488 3037,2488 3037,2488 "/>
   <polyline class="fil2" points="3040,2487 3040,2487 3040,2487 3040,2487 3040,2487 "/>
   <polygon class="fil28" points="3041,2487 3041,2487 3041,2487 3041,2487 3041,2487 3041,2487 3041,2487 3041,2487 3041,2487 "/>
   <polygon class="fil29" points="3042,2487 3042,2487 3041,2487 "/>
   <polygon class="fil30" points="3043,2486 3043,2486 3043,2486 3043,2486 3043,2486 3043,2486 "/>
   <path class="fil31" d="M3013 2518l0 0c13,3 27,8 40,12l-40 -12z"/>
   <polygon class="fil32" points="3002,2515 3001,2515 3001,2515 3001,2515 "/>
   <path class="fil33" d="M3075 2539l0 0c-7,-3 -15,-6 -22,-9l22 9z"/>
   <polygon class="fil34" points="3082,2542 3082,2542 3094,2547 "/>
   <path class="fil2" d="M3392 3186l0 0 1 1 29 25c-10,-9 -19,-17 -29,-25"/>
   <path class="fil35" d="M3363 3163l29 23c-10,-8 -19,-16 -29,-23z"/>
   <path class="fil36" d="M3550 3364l20 33c-6,-11 -13,-22 -20,-33z"/>
   <path class="fil37" d="M3527 3331l23 33c-8,-12 -15,-22 -23,-33z"/>
   <path class="fil38" d="M3503 3299l24 32c-8,-11 -16,-21 -24,-32z"/>
   <path class="fil39" d="M3479 3270l24 29c-8,-10 -16,-19 -24,-29z"/>
   <path class="fil40" d="M3451 3240l26 28c-9,-9 -17,-19 -26,-28z"/>
   <path class="fil41" d="M3423 3213l28 27c-9,-9 -19,-18 -28,-27z"/>
   <path class="fil42" d="M3132 2566l0 0c-12,-7 -25,-13 -38,-19l38 19z"/>
   <path class="fil43" d="M3146 2574l-1 0 25 15c-8,-5 -16,-10 -24,-15z"/>
   <path class="fil44" d="M2559 1072l31 24c-10,-8 -21,-16 -31,-24z"/>
   <path class="fil45" d="M2821 924c436,0 789,353 789,789 0,272 -137,511 -346,653l12 -8c202,143 334,378 334,645 0,144 -38,278 -105,394 -53,-91 -124,-171 -209,-235 17,-50 26,-104 26,-159 0,-250 -182,-457 -421,-495 -72,363 -391,636 -775,636 -12,0 -24,0 -36,0 85,-87 151,-193 189,-312 165,-52 293,-188 334,-358 -66,-18 -128,-44 -186,-78 91,-53 172,-124 235,-208 50,17 104,26 159,26 277,0 501,-225 501,-501 0,-277 -224,-501 -501,-501 -55,0 -109,9 -159,26 -63,-85 -144,-156 -235,-209 116,-67 250,-105 394,-105zm-773 139l0 0c0,-77 -62,-139 -139,-139l-601 0c-77,0 -139,62 -139,139l0 0c0,76 62,139 139,139l601 0c77,0 139,-63 139,-139zm0 554l0 0c0,-77 -62,-139 -138,-139l-879 0c-76,0 -138,62 -138,139l0 0c0,76 62,139 138,139l879 0c76,0 138,-63 138,-139zm0 1655l0 0c0,-76 -62,-139 -138,-139l-604 0c-76,0 -139,63 -139,139l0 0c0,77 63,139 139,139l604 0c76,0 138,-62 138,-139zm0 -556l0 0c0,-76 -63,-139 -139,-139l-869 0c-76,0 -140,63 -140,139l0 0c0,77 64,139 140,139l869 0c76,0 139,-62 139,-139zm0 -548l0 0c0,-77 -62,-139 -139,-139l-1046 0c-76,0 -138,62 -138,139l0 0c0,76 62,139 138,139l1046 0c77,0 139,-63 139,-139zm1061 280c-5,2 -10,4 -15,6 5,-2 10,-4 15,-6zm-130 38c-6,1 -12,2 -18,4 6,-2 12,-3 18,-4zm-18 4c-6,1 -12,2 -19,3 7,-1 13,-2 19,-3zm-80 10l-1 0 1 0zm-1 0l0 0 0 0zm0 0l-1 0 1 0zm-1 0l0 0 0 0zm0 0l-1 0 1 0zm-1 0l-1 0 1 0zm-1 0l-1 0 1 0zm-1 0l0 0 0 0zm0 0l0 0 0 0zm0 0l-1 0 1 0zm-1 0l-1 0 1 0zm-1 0l0 0 0 0zm0 0l0 0 0 0zm0 0l-1 0 1 0zm-1 0l-1 0 1 0zm-1 0l0 0 0 0zm0 0l0 0 0 0zm0 0l-1 0 1 0zm-1 0l0 0 0 0zm0 0l-5 1 5 -1zm-5 1l0 0 0 0zm0 0l0 0 0 0zm0 0l-1 0 1 0zm-1 0l-1 0 1 0zm-1 0l-1 0 1 0zm-1 0l0 0 0 0zm0 0l-1 0 1 0zm-1 0l-1 0 1 0zm-1 0l0 0 0 0zm0 0l0 0 0 0zm0 0l-1 0 1 0zm-1 0l0 0 0 0zm0 0l-1 0 1 0zm-1 0l-2 0 2 0zm-2 0l0 0 0 0zm0 0l-1 0 1 0zm-1 0l0 0 0 0zm0 0l0 0 0 0zm0 0l-1 0 1 0zm-1 0l0 0 0 0zm0 0l0 0 0 0zm0 0l-1 0 1 0zm-1 0l-1 0 1 0zm-1 0l-2 0 2 0zm-2 0l0 0 0 0zm0 0l-1 0 1 0zm-1 0l0 0 0 0zm0 0l-1 0 1 0zm-1 0l0 0 0 0zm0 0l0 0 0 0zm0 0l-2 0 2 0zm-2 0l0 1 0 -1zm0 1l-1 0 1 0zm-1 0l0 0 0 0zm0 0l0 0 0 0zm0 0l-1 0 1 0zm-1 0l0 0 0 0zm0 0l-1 0 1 0zm-1 0l0 0 0 0zm0 0l-1 0 1 0zm-1 0l0 0 0 0zm0 0l0 0 0 0zm-3 0l0 0 0 0zm0 0l0 0 0 0zm0 0l0 0 0 0zm0 0l-1 0 1 0zm-1 0l0 0 0 0zm0 0l0 0 0 0zm0 0l0 0 0 0zm0 0l-1 0 1 0zm-1 0l0 0 0 0zm0 0l0 0 0 0zm0 0l0 0 0 0zm0 0l-1 0 1 0zm-1 0l0 0 0 0zm0 0l0 0 0 0zm0 0l0 0 0 0zm0 0l0 0 0 0zm0 0l-1 0 1 0zm-1 0l0 0 0 0zm0 0l0 0 0 0zm0 0l-1 0 1 0zm-1 0l0 0 0 0zm0 0l0 0 0 0zm0 0l0 0 0 0zm0 0l-1 0 1 0zm-1 0l0 0 0 0zm0 0l0 0 0 0zm0 0l0 0 0 0zm0 0l0 0 0 0zm0 0l-1 0 1 0zm-1 0l0 0 0 0zm0 0l0 0 0 0zm0 0l0 0 0 0zm0 0l-1 0 1 0zm-1 0l0 0 0 0zm0 0l0 0 0 0zm0 0l-1 0 1 0zm-1 0l0 0 0 0zm0 0l0 0 0 0zm0 0l0 0 0 0zm0 0l0 0 0 0zm0 0l-1 0 1 0zm-1 0l0 0 0 0zm0 0l0 0 0 0zm0 0l-1 0 1 0zm-1 0l0 0 0 0zm0 0l0 0 0 0zm0 0l0 0 0 0zm0 0l-1 0 1 0zm-1 0l0 0 0 0zm0 0l0 0 0 0zm0 0l0 0 0 0zm0 0l0 0 0 0zm0 0l-1 0 1 0zm-1 0l0 0 0 0zm0 0l0 0 0 0zm0 0l-1 0 1 0zm-1 0l0 0 0 0zm0 0l0 0 0 0zm0 0l0 0 0 0zm0 0l-1 0 1 0zm-1 0l0 0 0 0zm0 0l0 0 0 0zm0 0l0 0 0 0zm0 0l0 0 0 0zm0 0l-1 0 1 0zm-1 0l0 0 0 0zm0 0l0 0 0 0zm0 0l0 0 0 0zm0 0l-1 0 1 0zm-1 0l0 0 0 0zm0 0l0 0 0 0zm0 0l0 0 0 0zm0 0l-1 0 1 0zm-1 0l0 0 0 0zm0 0l0 0 0 0zm0 0l0 0 0 0zm0 0l-1 0 1 0z"/>
  </g>
 </g>
</svg>
