<?xml version="1.0" encoding="UTF-8"?>
<!DOCTYPE svg PUBLIC "-//W3C//DTD SVG 1.1//EN" "http://www.w3.org/Graphics/SVG/1.1/DTD/svg11.dtd">
<!-- Creator: CorelDRAW X7 -->
<svg xmlns="http://www.w3.org/2000/svg" xml:space="preserve" width="6.0958mm" height="6.0958mm" version="1.1" style="shape-rendering:geometricPrecision; text-rendering:geometricPrecision; image-rendering:optimizeQuality; fill-rule:evenodd; clip-rule:evenodd"
viewBox="0 0 610 610"
 xmlns:xlink="http://www.w3.org/1999/xlink">
 <defs>
  <style type="text/css">
   <![CDATA[
    .fil2 {fill:none}
    .fil45 {fill:#FEFEFE}
    .fil0 {fill:#CC272C}
    .fil1 {fill:#B7272B}
    .fil4 {fill:url(#id0)}
    .fil43 {fill:url(#id1)}
    .fil27 {fill:url(#id2)}
    .fil32 {fill:url(#id3)}
    .fil19 {fill:url(#id4)}
    .fil21 {fill:url(#id5)}
    .fil15 {fill:url(#id6)}
    .fil34 {fill:url(#id7)}
    .fil8 {fill:url(#id8)}
    .fil42 {fill:url(#id9)}
    .fil20 {fill:url(#id10)}
    .fil3 {fill:url(#id11)}
    .fil23 {fill:url(#id12)}
    .fil6 {fill:url(#id13)}
    .fil36 {fill:url(#id14)}
    .fil38 {fill:url(#id15)}
    .fil5 {fill:url(#id16)}
    .fil35 {fill:url(#id17)}
    .fil44 {fill:url(#id18)}
    .fil41 {fill:url(#id19)}
    .fil11 {fill:url(#id20)}
    .fil37 {fill:url(#id21)}
    .fil39 {fill:url(#id22)}
    .fil14 {fill:url(#id23)}
    .fil28 {fill:url(#id24)}
    .fil16 {fill:url(#id25)}
    .fil13 {fill:url(#id26)}
    .fil7 {fill:url(#id27)}
    .fil18 {fill:url(#id28)}
    .fil29 {fill:url(#id29)}
    .fil33 {fill:url(#id30)}
    .fil40 {fill:url(#id31)}
    .fil31 {fill:url(#id32)}
    .fil10 {fill:url(#id33)}
    .fil30 {fill:url(#id34)}
    .fil26 {fill:url(#id35)}
    .fil22 {fill:url(#id36)}
    .fil24 {fill:url(#id37)}
    .fil17 {fill:url(#id38)}
    .fil9 {fill:url(#id39)}
    .fil25 {fill:url(#id40)}
    .fil12 {fill:url(#id41)}
   ]]>
  </style>
  <linearGradient id="id0" gradientUnits="userSpaceOnUse" x1="459.88" y1="377.07" x2="462.59" y2="380.38">
   <stop offset="0" style="stop-opacity:1; stop-color:#332C2B"/>
   <stop offset="1" style="stop-opacity:1; stop-color:#332C2B"/>
  </linearGradient>
  <linearGradient id="id1" gradientUnits="userSpaceOnUse" xlink:href="#id0" x1="443.17" y1="362" x2="444.88" y2="364.09">
  </linearGradient>
  <linearGradient id="id2" gradientUnits="userSpaceOnUse" xlink:href="#id0" x1="426.64" y1="349.89" x2="426.66" y2="349.89">
  </linearGradient>
  <linearGradient id="id3" gradientUnits="userSpaceOnUse" xlink:href="#id0" x1="422.02" y1="353.68" x2="422.05" y2="353.72">
  </linearGradient>
  <linearGradient id="id4" gradientUnits="userSpaceOnUse" xlink:href="#id0" x1="475.78" y1="426.03" x2="476.7" y2="427.18">
  </linearGradient>
  <linearGradient id="id5" gradientUnits="userSpaceOnUse" xlink:href="#id0" x1="418.12" y1="352.33" x2="419.24" y2="353.72">
  </linearGradient>
  <linearGradient id="id6" gradientUnits="userSpaceOnUse" xlink:href="#id0" x1="474.1" y1="437.24" x2="475.16" y2="438.53">
  </linearGradient>
  <linearGradient id="id7" gradientUnits="userSpaceOnUse" xlink:href="#id0" x1="433.88" y1="357.32" x2="434.58" y2="358.18">
  </linearGradient>
  <linearGradient id="id8" gradientUnits="userSpaceOnUse" xlink:href="#id0" x1="474.44" y1="411.11" x2="476.86" y2="414.07">
  </linearGradient>
  <linearGradient id="id9" gradientUnits="userSpaceOnUse" xlink:href="#id0" x1="436.52" y1="357.97" x2="438.99" y2="360.99">
  </linearGradient>
  <linearGradient id="id10" gradientUnits="userSpaceOnUse" xlink:href="#id0" x1="475.08" y1="417.59" x2="477.4" y2="420.43">
  </linearGradient>
  <linearGradient id="id11" gradientUnits="userSpaceOnUse" xlink:href="#id0" x1="463.41" y1="381.98" x2="466.2" y2="385.38">
  </linearGradient>
  <linearGradient id="id12" gradientUnits="userSpaceOnUse" xlink:href="#id0" x1="351.64" y1="144.72" x2="354.03" y2="147.66">
  </linearGradient>
  <linearGradient id="id13" gradientUnits="userSpaceOnUse" xlink:href="#id0" x1="451.52" y1="368.16" x2="454.27" y2="371.52">
  </linearGradient>
  <linearGradient id="id14" gradientUnits="userSpaceOnUse" xlink:href="#id0" x1="499.37" y1="473.87" x2="501.83" y2="476.87">
  </linearGradient>
  <linearGradient id="id15" gradientUnits="userSpaceOnUse" xlink:href="#id0" x1="493.04" y1="464.63" x2="495.58" y2="467.72">
  </linearGradient>
  <linearGradient id="id16" gradientUnits="userSpaceOnUse" xlink:href="#id0" x1="455.87" y1="372.41" x2="458.64" y2="375.8">
  </linearGradient>
  <linearGradient id="id17" gradientUnits="userSpaceOnUse" xlink:href="#id0" x1="473.81" y1="444.99" x2="476.06" y2="447.74">
  </linearGradient>
  <linearGradient id="id18" gradientUnits="userSpaceOnUse" xlink:href="#id0" x1="360.8" y1="150.97" x2="363.26" y2="153.99">
  </linearGradient>
  <linearGradient id="id19" gradientUnits="userSpaceOnUse" xlink:href="#id0" x1="482.02" y1="452.16" x2="484.53" y2="455.25">
  </linearGradient>
  <linearGradient id="id20" gradientUnits="userSpaceOnUse" xlink:href="#id0" x1="469.31" y1="392.88" x2="471.94" y2="396.11">
  </linearGradient>
  <linearGradient id="id21" gradientUnits="userSpaceOnUse" xlink:href="#id0" x1="496.34" y1="469.19" x2="498.8" y2="472.2">
  </linearGradient>
  <linearGradient id="id22" gradientUnits="userSpaceOnUse" xlink:href="#id0" x1="489.68" y1="460.41" x2="492.13" y2="463.4">
  </linearGradient>
  <linearGradient id="id23" gradientUnits="userSpaceOnUse" xlink:href="#id0" x1="473.43" y1="440.02" x2="474.47" y2="441.28">
  </linearGradient>
  <linearGradient id="id24" gradientUnits="userSpaceOnUse" xlink:href="#id0" x1="427.62" y1="349.67" x2="427.66" y2="349.72">
  </linearGradient>
  <linearGradient id="id25" gradientUnits="userSpaceOnUse" xlink:href="#id0" x1="474.7" y1="434.51" x2="475.7" y2="435.76">
  </linearGradient>
  <linearGradient id="id26" gradientUnits="userSpaceOnUse" xlink:href="#id0" x1="472.64" y1="442.71" x2="473.69" y2="443.98">
  </linearGradient>
  <linearGradient id="id27" gradientUnits="userSpaceOnUse" xlink:href="#id0" x1="446.83" y1="364.32" x2="449.53" y2="367.63">
  </linearGradient>
  <linearGradient id="id28" gradientUnits="userSpaceOnUse" xlink:href="#id0" x1="475.51" y1="428.92" x2="476.49" y2="430.12">
  </linearGradient>
  <linearGradient id="id29" gradientUnits="userSpaceOnUse" xlink:href="#id0" x1="427.71" y1="349.68" x2="427.73" y2="349.68">
  </linearGradient>
  <linearGradient id="id30" gradientUnits="userSpaceOnUse" xlink:href="#id0" x1="430.22" y1="355.61" x2="431.53" y2="357.22">
  </linearGradient>
  <linearGradient id="id31" gradientUnits="userSpaceOnUse" xlink:href="#id0" x1="485.91" y1="456.15" x2="488.28" y2="459.06">
  </linearGradient>
  <linearGradient id="id32" gradientUnits="userSpaceOnUse" xlink:href="#id0" x1="425.36" y1="353.57" x2="427.59" y2="356.3">
  </linearGradient>
  <linearGradient id="id33" gradientUnits="userSpaceOnUse" xlink:href="#id0" x1="471.53" y1="398.72" x2="474.11" y2="401.88">
  </linearGradient>
  <linearGradient id="id34" gradientUnits="userSpaceOnUse" xlink:href="#id0" x1="427.91" y1="349.62" x2="427.94" y2="349.65">
  </linearGradient>
  <linearGradient id="id35" gradientUnits="userSpaceOnUse" xlink:href="#id0" x1="426.61" y1="349.89" x2="426.61" y2="349.9">
  </linearGradient>
  <linearGradient id="id36" gradientUnits="userSpaceOnUse" xlink:href="#id0" x1="356.33" y1="147.78" x2="358.7" y2="150.67">
  </linearGradient>
  <linearGradient id="id37" gradientUnits="userSpaceOnUse" xlink:href="#id0" x1="377.13" y1="166.21" x2="379.52" y2="169.12">
  </linearGradient>
  <linearGradient id="id38" gradientUnits="userSpaceOnUse" xlink:href="#id0" x1="475.18" y1="431.73" x2="476.14" y2="432.88">
  </linearGradient>
  <linearGradient id="id39" gradientUnits="userSpaceOnUse" xlink:href="#id0" x1="473.25" y1="404.82" x2="475.76" y2="407.88">
  </linearGradient>
  <linearGradient id="id40" gradientUnits="userSpaceOnUse" xlink:href="#id0" x1="426.42" y1="349.93" x2="426.43" y2="349.94">
  </linearGradient>
  <linearGradient id="id41" gradientUnits="userSpaceOnUse" xlink:href="#id0" x1="466.57" y1="387.27" x2="469.32" y2="390.63">
  </linearGradient>
 </defs>
 <g id="Layer_x0020_1">
  <metadata id="CorelCorpID_0Corel-Layer"/>
  <g id="_811731952">
   <path class="fil0" d="M305 0c168,0 305,136 305,305 0,168 -137,305 -305,305 -169,0 -305,-137 -305,-305 0,-169 136,-305 305,-305z"/>
   <path class="fil1" d="M370 603c-21,4 -43,7 -65,7 -167,0 -303,-135 -305,-302l170 -172c4,-4 9,-6 14,-6l84 0c11,0 20,9 20,19l0 0c0,6 -2,11 -6,14l-44 45 31 0c3,0 6,1 8,2l64 -65c17,-10 36,-15 56,-15 61,0 111,50 111,111 0,31 -13,59 -34,79l-12 13c28,20 46,52 46,89 0,20 -6,39 -15,56l-123 125z"/>
   <line class="fil2" x1="427" y1="350" x2="427" y2= "350" />
   <line class="fil2" x1="426" y1="350" x2="426" y2= "350" />
   <path class="fil3" d="M463 381l3 5c-1,-2 -2,-3 -3,-5z"/>
   <path class="fil4" d="M459 376l4 5c-1,-2 -2,-3 -4,-5z"/>
   <path class="fil5" d="M455 372l4 4c-1,-1 -2,-3 -4,-4z"/>
   <path class="fil6" d="M451 368l4 4c-1,-2 -3,-3 -4,-4z"/>
   <path class="fil7" d="M446 364l5 4c-2,-1 -4,-3 -5,-4z"/>
   <path class="fil8" d="M475 409l1 7c0,-2 0,-5 -1,-7z"/>
   <path class="fil9" d="M474 403l1 6c0,-2 -1,-4 -1,-6z"/>
   <path class="fil10" d="M472 397l2 6c-1,-2 -1,-4 -2,-6z"/>
   <path class="fil11" d="M469 392l3 5c-1,-2 -2,-4 -3,-5z"/>
   <path class="fil12" d="M466 386l3 6c0,-2 -1,-4 -3,-6z"/>
   <polyline class="fil2" points="473,445 473,445 473,445 "/>
   <path class="fil13" d="M474 442l-1 3c0,-1 0,-2 1,-3z"/>
   <path class="fil14" d="M474 439l0 3c0,-1 0,-2 0,-3z"/>
   <path class="fil15" d="M475 437l-1 2c1,-1 1,-2 1,-2z"/>
   <path class="fil16" d="M475 434l0 2c0,0 0,-1 0,-2z"/>
   <path class="fil17" d="M476 431l-1 3c1,-1 1,-2 1,-3z"/>
   <path class="fil18" d="M476 428l0 3c0,-1 0,-2 0,-3z"/>
   <path class="fil19" d="M476 425l0 3c0,-1 0,-2 0,-3z"/>
   <path class="fil2" d="M476 422l0 0 0 0 0 0c0,1 0,2 0,3l0 -3"/>
   <path class="fil20" d="M476 416l0 6c0,-2 0,-4 0,-6z"/>
   <path class="fil21" d="M420 353l0 0c-1,0 -2,0 -3,0l3 0z"/>
   <path class="fil2" d="M368 158c2,1 3,2 5,4 1,1 2,2 3,4"/>
   <path class="fil22" d="M355 148l5 3c-2,-1 -3,-2 -5,-3z"/>
   <path class="fil23" d="M350 145l5 3c-1,-1 -3,-2 -5,-3z"/>
   <line class="fil2" x1="380" y1="170" x2="383" y2= "174" />
   <path class="fil2" d="M386 173c-1,0 -2,1 -2,1"/>
   <path class="fil2" d="M389 173c-1,0 -2,0 -3,0"/>
   <path class="fil2" d="M392 172c-1,0 -2,0 -3,0"/>
   <path class="fil2" d="M394 171c-1,1 -1,1 -2,1"/>
   <path class="fil2" d="M397 171c-1,0 -2,0 -2,0"/>
   <path class="fil2" d="M400 171c-1,0 -2,0 -3,0"/>
   <path class="fil2" d="M403 170c-1,1 -2,1 -3,1"/>
   <path class="fil2" d="M406 170c-1,0 -2,0 -3,0"/>
   <path class="fil2" d="M456 291c1,-2 3,-4 4,-5 2,-2 3,-4 4,-6 2,-2 3,-4 4,-6 1,-2 2,-4 3,-6 1,-2 2,-4 2,-6 1,-2 1,-5 2,-7 0,-2 1,-5 1,-7 0,-2 0,-5 0,-7 0,-3 0,-5 0,-7 0,-3 -1,-5 -1,-7 -1,-3 -1,-5 -2,-7 0,-2 -1,-4 -2,-7 -1,-2 -2,-4 -3,-6 -1,-2 -2,-4 -4,-6 -1,-1 -2,-3 -4,-5 -1,-2 -3,-3 -4,-5 -2,-2 -4,-3 -5,-5 -2,-1 -4,-2 -6,-4 -2,-1 -3,-2 -5,-3 -2,-1 -5,-2 -7,-3 -2,-1 -4,-2 -6,-2 -2,-1 -5,-2 -7,-2 -2,-1 -4,-1 -7,-1 -2,0 -5,-1 -7,-1"/>
   <path class="fil2" d="M380 170l0 0 0 0c1,1 2,3 3,4l1 0 0 0 -110 111 4 0"/>
   <path class="fil24" d="M377 166l3 4c-1,-2 -2,-3 -3,-4z"/>
   <path class="fil2" d="M364 154l0 0 0 0c2,1 3,2 4,4l-4 -4"/>
   <polyline class="fil2" points="426,350 426,350 426,350 "/>
   <polyline class="fil2" points="427,350 427,350 427,350 "/>
   <line class="fil2" x1="427" y1="350" x2="427" y2= "350" />
   <line class="fil2" x1="427" y1="350" x2="427" y2= "350" />
   <polygon class="fil25" points="426,350 426,350 426,350 426,350 "/>
   <polyline class="fil2" points="427,350 427,350 427,350 427,350 426,350 426,350 426,350 426,350 426,350 427,350 "/>
   <polygon class="fil26" points="427,350 427,350 427,350 "/>
   <polygon class="fil27" points="427,350 427,350 427,350 "/>
   <polyline class="fil2" points="427,350 427,350 427,350 427,350 427,350 427,350 427,350 427,350 427,350 427,350 "/>
   <polyline class="fil2" points="428,350 427,350 427,350 427,350 427,350 "/>
   <polygon class="fil28" points="428,350 428,350 428,350 428,350 428,350 428,350 428,350 428,350 428,350 "/>
   <polygon class="fil29" points="428,350 428,350 428,350 "/>
   <polygon class="fil30" points="428,350 428,350 428,350 428,350 428,350 428,350 "/>
   <path class="fil31" d="M424 354l0 0c2,1 3,1 5,2l-5 -2z"/>
   <polygon class="fil32" points="422,354 422,354 422,354 422,354 "/>
   <path class="fil33" d="M432 357l0 0c-1,0 -2,-1 -3,-1l3 1z"/>
   <polygon class="fil34" points="433,357 433,357 435,358 "/>
   <path class="fil2" d="M477 448l0 0 0 0 4 4c-1,-2 -3,-3 -4,-4"/>
   <path class="fil35" d="M473 445l4 3c-1,-1 -3,-2 -4,-3z"/>
   <path class="fil36" d="M499 473l3 5c-1,-2 -2,-3 -3,-5z"/>
   <path class="fil37" d="M496 468l3 5c-1,-2 -2,-3 -3,-5z"/>
   <path class="fil38" d="M493 464l3 4c-1,-1 -2,-3 -3,-4z"/>
   <path class="fil39" d="M489 460l4 4c-1,-1 -3,-3 -4,-4z"/>
   <path class="fil40" d="M485 456l4 4c-1,-2 -2,-3 -4,-4z"/>
   <path class="fil41" d="M481 452l4 4c-1,-2 -2,-3 -4,-4z"/>
   <path class="fil42" d="M440 361l0 0c-1,-1 -3,-2 -5,-3l5 3z"/>
   <path class="fil43" d="M442 362l0 0 4 2c-1,-1 -2,-1 -4,-2z"/>
   <path class="fil44" d="M360 151l4 3c-1,-1 -3,-2 -4,-3z"/>
   <path class="fil45" d="M397 130c61,0 111,50 111,111 0,38 -20,72 -49,92l2 -1c28,20 47,53 47,90 0,20 -6,39 -15,56 -8,-13 -18,-24 -29,-33 2,-7 3,-15 3,-23 0,-35 -26,-64 -59,-69 -10,51 -55,89 -109,89 -2,0 -3,0 -5,0 12,-12 21,-27 27,-44 23,-7 41,-26 46,-50 -9,-3 -18,-6 -26,-11 13,-8 24,-17 33,-29 7,2 15,3 23,3 39,0 70,-31 70,-70 0,-39 -31,-71 -70,-71 -8,0 -16,2 -23,4 -9,-12 -20,-22 -33,-29 17,-10 36,-15 56,-15zm-109 19l0 0c0,-10 -9,-19 -20,-19l-84 0c-11,0 -20,9 -20,19l0 0c0,11 9,20 20,20l84 0c11,0 20,-9 20,-20zm0 78l0 0c0,-10 -9,-19 -19,-19l-124 0c-11,0 -19,9 -19,19l0 0c0,11 8,20 19,20l124 0c10,0 19,-9 19,-20zm0 233l0 0c0,-11 -9,-19 -19,-19l-85 0c-11,0 -20,8 -20,19l0 0c0,11 9,20 20,20l85 0c10,0 19,-9 19,-20zm0 -78l0 0c0,-11 -9,-20 -20,-20l-122 0c-11,0 -19,9 -19,20l0 0c0,11 8,20 19,20l122 0c11,0 20,-9 20,-20zm0 -77l0 0c0,-11 -9,-20 -20,-20l-147 0c-10,0 -19,9 -19,20l0 0c0,11 9,19 19,19l147 0c11,0 20,-8 20,-19zm149 39c0,0 -1,1 -2,1 1,0 2,-1 2,-1zm-18 6c-1,0 -2,0 -3,0 1,0 2,0 3,0zm-3 0c-1,0 -1,0 -2,1 1,-1 1,-1 2,-1zm-11 2l0 0 0 0zm0 0l0 0 0 0zm0 0l0 0 0 0zm0 0l0 0 0 0zm0 0l0 0 0 0zm0 0l0 0 0 0zm0 0l-1 0 1 0zm-1 0l0 0 0 0zm0 0l0 0 0 0zm0 0l0 0 0 0zm0 0l0 0 0 0zm0 0l0 0 0 0zm0 0l0 0 0 0zm0 0l0 0 0 0zm0 0l0 0 0 0zm0 0l0 0 0 0zm0 0l0 0 0 0zm0 0l0 0 0 0zm0 0l0 0 0 0zm0 0l-1 0 1 0zm-1 0l0 0 0 0zm0 0l0 0 0 0zm0 0l0 0 0 0zm0 0l0 0 0 0zm0 0l0 0 0 0zm0 0l0 0 0 0zm0 0l-1 0 1 0zm-1 0l0 0 0 0zm0 0l0 0 0 0zm0 0l0 0 0 0zm0 0l0 0 0 0zm0 0l0 0 0 0zm0 0l0 0 0 0zm0 0l0 0 0 0zm0 0l0 0 0 0zm0 0l0 0 0 0zm0 0l0 0 0 0zm0 0l0 0 0 0zm0 0l-1 0 1 0zm-1 0l0 0 0 0zm0 0l0 0 0 0zm0 0l0 0 0 0zm0 0l0 0 0 0zm0 0l0 0 0 0zm0 0l0 0 0 0zm0 0l0 0 0 0zm0 0l0 0 0 0zm0 0l0 0 0 0zm0 0l0 0 0 0zm0 0l0 0 0 0zm0 0l-1 0 1 0zm-1 0l0 0 0 0zm0 0l0 0 0 0zm0 0l0 0 0 0zm0 0l0 0 0 0zm0 0l0 0 0 0zm0 0l0 0 0 0zm0 0l0 0 0 0zm0 0l0 0 0 0zm0 0l0 0 0 0zm0 0l0 0 0 0zm0 0l0 0 0 0zm-1 0l0 0 0 0zm0 0l0 0 0 0zm0 0l0 0 0 0zm0 0l0 0 0 0zm0 0l0 0 0 0zm0 0l0 0 0 0zm0 0l0 0 0 0zm0 0l0 0 0 0zm0 0l0 0 0 0zm0 0l0 0 0 0zm0 0l0 0 0 0zm0 0l0 0 0 0zm0 0l0 0 0 0zm0 0l0 0 0 0zm0 0l0 0 0 0zm0 0l0 0 0 0zm0 0l0 0 0 0zm0 0l0 0 0 0zm0 0l0 0 0 0zm0 0l0 0 0 0zm0 0l0 0 0 0zm0 0l0 0 0 0zm0 0l0 0 0 0zm0 0l0 0 0 0zm0 0l0 0 0 0zm0 0l0 0 0 0zm0 0l-1 0 1 0zm-1 0l0 0 0 0zm0 0l0 0 0 0zm0 0l0 0 0 0zm0 0l0 0 0 0zm0 0l0 0 0 0zm0 0l0 0 0 0zm0 0l0 0 0 0zm0 0l0 0 0 0zm0 0l0 0 0 0zm0 0l0 0 0 0zm0 0l0 0 0 0zm0 0l0 0 0 0zm0 0l0 0 0 0zm0 0l0 0 0 0zm0 0l0 0 0 0zm0 0l0 0 0 0zm0 0l0 0 0 0zm0 0l0 0 0 0zm0 0l0 0 0 0zm0 0l0 0 0 0zm0 0l0 0 0 0zm0 0l0 0 0 0zm0 0l0 0 0 0zm0 0l0 0 0 0zm0 0l0 0 0 0zm0 0l0 0 0 0zm0 0l0 0 0 0zm0 0l-1 0 1 0zm-1 0l0 0 0 0zm0 0l0 0 0 0zm0 0l0 0 0 0zm0 0l0 0 0 0zm0 0l0 0 0 0zm0 0l0 0 0 0zm0 0l0 0 0 0zm0 0l0 0 0 0zm0 0l0 0 0 0zm0 0l0 0 0 0zm0 0l0 0 0 0zm0 0l0 0 0 0zm0 0l0 0 0 0zm0 0l0 0 0 0zm0 0l0 0 0 0zm0 0l0 0 0 0zm0 0l0 0 0 0zm0 0l0 0 0 0zm0 0l0 0 0 0zm0 0l0 0 0 0zm0 0l0 0 0 0zm0 0l0 0 0 0z"/>
  </g>
 </g>
</svg>
