<?xml version="1.0" encoding="UTF-8"?>
<!DOCTYPE svg PUBLIC "-//W3C//DTD SVG 1.1//EN" "http://www.w3.org/Graphics/SVG/1.1/DTD/svg11.dtd">
<!-- Creator: CorelDRAW X7 -->
<svg xmlns="http://www.w3.org/2000/svg" xml:space="preserve" width="8.1278mm" height="8.1278mm" version="1.1" style="shape-rendering:geometricPrecision; text-rendering:geometricPrecision; image-rendering:optimizeQuality; fill-rule:evenodd; clip-rule:evenodd"
viewBox="0 0 813 813"
 xmlns:xlink="http://www.w3.org/1999/xlink">
 <defs>
  <style type="text/css">
   <![CDATA[
    .fil2 {fill:none}
    .fil45 {fill:#FEFEFE}
    .fil0 {fill:#CC272C}
    .fil1 {fill:#B7272B}
    .fil29 {fill:url(#id0)}
    .fil35 {fill:url(#id1)}
    .fil6 {fill:url(#id2)}
    .fil33 {fill:url(#id3)}
    .fil21 {fill:url(#id4)}
    .fil31 {fill:url(#id5)}
    .fil16 {fill:url(#id6)}
    .fil15 {fill:url(#id7)}
    .fil14 {fill:url(#id8)}
    .fil4 {fill:url(#id9)}
    .fil41 {fill:url(#id10)}
    .fil43 {fill:url(#id11)}
    .fil12 {fill:url(#id12)}
    .fil9 {fill:url(#id13)}
    .fil37 {fill:url(#id14)}
    .fil23 {fill:url(#id15)}
    .fil25 {fill:url(#id16)}
    .fil27 {fill:url(#id17)}
    .fil38 {fill:url(#id18)}
    .fil7 {fill:url(#id19)}
    .fil39 {fill:url(#id20)}
    .fil19 {fill:url(#id21)}
    .fil40 {fill:url(#id22)}
    .fil34 {fill:url(#id23)}
    .fil8 {fill:url(#id24)}
    .fil11 {fill:url(#id25)}
    .fil18 {fill:url(#id26)}
    .fil17 {fill:url(#id27)}
    .fil10 {fill:url(#id28)}
    .fil22 {fill:url(#id29)}
    .fil20 {fill:url(#id30)}
    .fil13 {fill:url(#id31)}
    .fil5 {fill:url(#id32)}
    .fil26 {fill:url(#id33)}
    .fil28 {fill:url(#id34)}
    .fil32 {fill:url(#id35)}
    .fil36 {fill:url(#id36)}
    .fil3 {fill:url(#id37)}
    .fil24 {fill:url(#id38)}
    .fil42 {fill:url(#id39)}
    .fil30 {fill:url(#id40)}
    .fil44 {fill:url(#id41)}
   ]]>
  </style>
  <linearGradient id="id0" gradientUnits="userSpaceOnUse" x1="570.28" y1="466.23" x2="570.3" y2="466.25">
   <stop offset="0" style="stop-opacity:1; stop-color:#332C2B"/>
   <stop offset="1" style="stop-opacity:1; stop-color:#332C2B"/>
  </linearGradient>
  <linearGradient id="id1" gradientUnits="userSpaceOnUse" xlink:href="#id0" x1="631.7" y1="593.27" x2="634.8" y2="597.05">
  </linearGradient>
  <linearGradient id="id2" gradientUnits="userSpaceOnUse" xlink:href="#id0" x1="602.08" y1="490.95" x2="605.65" y2="495.3">
  </linearGradient>
  <linearGradient id="id3" gradientUnits="userSpaceOnUse" xlink:href="#id0" x1="573.62" y1="474.15" x2="575.38" y2="476.29">
  </linearGradient>
  <linearGradient id="id4" gradientUnits="userSpaceOnUse" xlink:href="#id0" x1="557.48" y1="469.78" x2="559" y2="471.63">
  </linearGradient>
  <linearGradient id="id5" gradientUnits="userSpaceOnUse" xlink:href="#id0" x1="567.16" y1="471.44" x2="570.12" y2="475.06">
  </linearGradient>
  <linearGradient id="id6" gradientUnits="userSpaceOnUse" xlink:href="#id0" x1="632.93" y1="579.36" x2="634.27" y2="581">
  </linearGradient>
  <linearGradient id="id7" gradientUnits="userSpaceOnUse" xlink:href="#id0" x1="632.14" y1="582.99" x2="633.55" y2="584.71">
  </linearGradient>
  <linearGradient id="id8" gradientUnits="userSpaceOnUse" xlink:href="#id0" x1="631.26" y1="586.71" x2="632.61" y2="588.36">
  </linearGradient>
  <linearGradient id="id9" gradientUnits="userSpaceOnUse" xlink:href="#id0" x1="613.18" y1="502.76" x2="616.79" y2="507.17">
  </linearGradient>
  <linearGradient id="id10" gradientUnits="userSpaceOnUse" xlink:href="#id0" x1="642.74" y1="602.95" x2="646" y2="606.94">
  </linearGradient>
  <linearGradient id="id11" gradientUnits="userSpaceOnUse" xlink:href="#id0" x1="590.87" y1="482.64" x2="593.21" y2="485.5">
  </linearGradient>
  <linearGradient id="id12" gradientUnits="userSpaceOnUse" xlink:href="#id0" x1="622.15" y1="516.42" x2="625.71" y2="520.78">
  </linearGradient>
  <linearGradient id="id13" gradientUnits="userSpaceOnUse" xlink:href="#id0" x1="631.01" y1="539.75" x2="634.35" y2="543.84">
  </linearGradient>
  <linearGradient id="id14" gradientUnits="userSpaceOnUse" xlink:href="#id0" x1="661.74" y1="625.53" x2="665.12" y2="629.66">
  </linearGradient>
  <linearGradient id="id15" gradientUnits="userSpaceOnUse" xlink:href="#id0" x1="468.84" y1="192.97" x2="472.05" y2="196.89">
  </linearGradient>
  <linearGradient id="id16" gradientUnits="userSpaceOnUse" xlink:href="#id0" x1="568.56" y1="466.57" x2="568.57" y2="466.59">
  </linearGradient>
  <linearGradient id="id17" gradientUnits="userSpaceOnUse" xlink:href="#id0" x1="568.86" y1="466.51" x2="568.87" y2="466.53">
  </linearGradient>
  <linearGradient id="id18" gradientUnits="userSpaceOnUse" xlink:href="#id0" x1="657.44" y1="619.57" x2="660.73" y2="623.58">
  </linearGradient>
  <linearGradient id="id19" gradientUnits="userSpaceOnUse" xlink:href="#id0" x1="595.77" y1="485.76" x2="599.38" y2="490.17">
  </linearGradient>
  <linearGradient id="id20" gradientUnits="userSpaceOnUse" xlink:href="#id0" x1="652.9" y1="613.88" x2="656.17" y2="617.88">
  </linearGradient>
  <linearGradient id="id21" gradientUnits="userSpaceOnUse" xlink:href="#id0" x1="634.38" y1="568.05" x2="635.61" y2="569.57">
  </linearGradient>
  <linearGradient id="id22" gradientUnits="userSpaceOnUse" xlink:href="#id0" x1="647.88" y1="608.21" x2="651.04" y2="612.08">
  </linearGradient>
  <linearGradient id="id23" gradientUnits="userSpaceOnUse" xlink:href="#id0" x1="578.5" y1="476.42" x2="579.45" y2="477.59">
  </linearGradient>
  <linearGradient id="id24" gradientUnits="userSpaceOnUse" xlink:href="#id0" x1="632.59" y1="548.15" x2="635.82" y2="552.09">
  </linearGradient>
  <linearGradient id="id25" gradientUnits="userSpaceOnUse" xlink:href="#id0" x1="625.75" y1="523.85" x2="629.26" y2="528.14">
  </linearGradient>
  <linearGradient id="id26" gradientUnits="userSpaceOnUse" xlink:href="#id0" x1="634" y1="571.9" x2="635.35" y2="573.51">
  </linearGradient>
  <linearGradient id="id27" gradientUnits="userSpaceOnUse" xlink:href="#id0" x1="633.59" y1="575.62" x2="634.85" y2="577.19">
  </linearGradient>
  <linearGradient id="id28" gradientUnits="userSpaceOnUse" xlink:href="#id0" x1="628.66" y1="531.58" x2="632.2" y2="535.9">
  </linearGradient>
  <linearGradient id="id29" gradientUnits="userSpaceOnUse" xlink:href="#id0" x1="475.11" y1="197.04" x2="478.27" y2="200.9">
  </linearGradient>
  <linearGradient id="id30" gradientUnits="userSpaceOnUse" xlink:href="#id0" x1="633.44" y1="556.79" x2="636.53" y2="560.58">
  </linearGradient>
  <linearGradient id="id31" gradientUnits="userSpaceOnUse" xlink:href="#id0" x1="630.18" y1="590.27" x2="631.6" y2="592">
  </linearGradient>
  <linearGradient id="id32" gradientUnits="userSpaceOnUse" xlink:href="#id0" x1="607.88" y1="496.61" x2="611.48" y2="501">
  </linearGradient>
  <linearGradient id="id33" gradientUnits="userSpaceOnUse" xlink:href="#id0" x1="568.81" y1="466.53" x2="568.82" y2="466.54">
  </linearGradient>
  <linearGradient id="id34" gradientUnits="userSpaceOnUse" xlink:href="#id0" x1="570.17" y1="466.23" x2="570.21" y2="466.3">
  </linearGradient>
  <linearGradient id="id35" gradientUnits="userSpaceOnUse" xlink:href="#id0" x1="562.69" y1="471.57" x2="562.75" y2="471.64">
  </linearGradient>
  <linearGradient id="id36" gradientUnits="userSpaceOnUse" xlink:href="#id0" x1="665.83" y1="631.83" x2="669.11" y2="635.83">
  </linearGradient>
  <linearGradient id="id37" gradientUnits="userSpaceOnUse" xlink:href="#id0" x1="617.89" y1="509.32" x2="621.6" y2="513.84">
  </linearGradient>
  <linearGradient id="id38" gradientUnits="userSpaceOnUse" xlink:href="#id0" x1="502.81" y1="221.56" x2="506.07" y2="225.55">
  </linearGradient>
  <linearGradient id="id39" gradientUnits="userSpaceOnUse" xlink:href="#id0" x1="582.03" y1="477.3" x2="585.33" y2="481.32">
  </linearGradient>
  <linearGradient id="id40" gradientUnits="userSpaceOnUse" xlink:href="#id0" x1="570.55" y1="466.16" x2="570.59" y2="466.22">
  </linearGradient>
  <linearGradient id="id41" gradientUnits="userSpaceOnUse" xlink:href="#id0" x1="481.11" y1="201.36" x2="484.31" y2="205.26">
  </linearGradient>
 </defs>
 <g id="Layer_x0020_1">
  <metadata id="CorelCorpID_0Corel-Layer"/>
  <g id="_810267760">
   <path class="fil0" d="M406 0c225,0 407,182 407,406 0,225 -182,407 -407,407 -224,0 -406,-182 -406,-407 0,-224 182,-406 406,-406z"/>
   <path class="fil1" d="M493 803c-28,7 -57,10 -87,10 -223,0 -403,-180 -406,-402l227 -230c5,-5 11,-8 18,-8l113 0c14,0 26,12 26,26l0 0c0,7 -3,14 -8,19l-58 59 40 0c4,0 8,1 12,3l85 -87c22,-13 47,-20 74,-20 82,0 148,66 148,148 0,42 -17,79 -44,106l-17 16c37,27 61,71 61,120 0,27 -7,52 -20,74l-164 166z"/>
   <line class="fil2" x1="570" y1="466" x2="570" y2= "466" />
   <line class="fil2" x1="568" y1="467" x2="569" y2= "467" />
   <path class="fil3" d="M618 508l4 7c-1,-2 -3,-5 -4,-7z"/>
   <path class="fil4" d="M612 502l6 6c-2,-2 -4,-4 -6,-6z"/>
   <path class="fil5" d="M607 496l5 6c-1,-2 -3,-4 -5,-6z"/>
   <path class="fil6" d="M601 490l6 6c-2,-2 -4,-4 -6,-6z"/>
   <path class="fil7" d="M594 486l7 4c-2,-1 -4,-3 -7,-4z"/>
   <path class="fil8" d="M634 546l1 8c0,-2 -1,-5 -1,-8z"/>
   <path class="fil9" d="M632 538l2 8c-1,-3 -2,-6 -2,-8z"/>
   <path class="fil10" d="M629 530l3 8c-1,-3 -2,-6 -3,-8z"/>
   <path class="fil11" d="M626 522l3 8c-1,-3 -2,-5 -3,-8z"/>
   <path class="fil12" d="M622 515l4 7c-1,-2 -3,-5 -4,-7z"/>
   <polyline class="fil2" points="630,593 630,593 630,593 "/>
   <path class="fil13" d="M631 590l-1 3c1,-1 1,-2 1,-3z"/>
   <path class="fil14" d="M632 586l0 3c0,-1 0,-2 0,-3z"/>
   <path class="fil15" d="M633 582l-1 4c1,-2 1,-3 1,-4z"/>
   <path class="fil16" d="M634 578l-1 4c1,-1 1,-2 1,-4z"/>
   <path class="fil17" d="M634 575l0 3c0,-1 0,-2 0,-3z"/>
   <path class="fil18" d="M635 571l0 3c0,-1 0,-2 0,-3z"/>
   <path class="fil19" d="M635 567l0 4c0,-2 0,-3 0,-4z"/>
   <path class="fil2" d="M635 563l0 0 0 0 0 0c0,1 0,2 0,4l0 -4"/>
   <path class="fil20" d="M635 554l0 9c0,-3 0,-6 0,-9z"/>
   <path class="fil21" d="M560 471l0 0c-1,0 -2,0 -4,-1l4 1z"/>
   <path class="fil2" d="M491 210c2,2 4,4 6,5 2,2 3,4 5,6"/>
   <path class="fil22" d="M474 197l6 4c-2,-1 -4,-3 -6,-4z"/>
   <path class="fil23" d="M467 193l7 4c-2,-1 -5,-3 -7,-4z"/>
   <line class="fil2" x1="507" y1="226" x2="511" y2= "232" />
   <path class="fil2" d="M515 231c-1,0 -2,1 -3,1"/>
   <path class="fil2" d="M518 230c-1,0 -2,1 -3,1"/>
   <path class="fil2" d="M522 229c-1,0 -2,1 -3,1"/>
   <path class="fil2" d="M526 228c-1,1 -3,1 -4,1"/>
   <path class="fil2" d="M530 228c-2,0 -3,0 -4,0"/>
   <path class="fil2" d="M533 228c-1,0 -2,0 -3,0"/>
   <path class="fil2" d="M537 227c-1,0 -2,0 -3,1"/>
   <path class="fil2" d="M541 227c-1,0 -2,0 -3,0"/>
   <path class="fil2" d="M608 388c2,-3 4,-5 6,-7 2,-2 3,-5 5,-7 2,-3 3,-5 5,-8 1,-3 3,-5 4,-8 1,-3 2,-6 3,-9 1,-3 2,-6 2,-9 1,-3 1,-6 2,-9 0,-3 0,-7 0,-10 0,-3 0,-6 0,-9 -1,-4 -1,-7 -2,-10 0,-3 -1,-6 -2,-9 -1,-3 -2,-6 -3,-8 -1,-3 -3,-6 -4,-9 -2,-2 -3,-5 -5,-7 -2,-3 -3,-5 -5,-8 -2,-2 -4,-4 -6,-6 -2,-2 -5,-4 -7,-6 -2,-2 -5,-4 -7,-6 -3,-1 -5,-3 -8,-4 -3,-2 -5,-3 -8,-4 -3,-2 -6,-3 -9,-4 -3,0 -6,-1 -9,-2 -3,-1 -6,-1 -9,-1 -3,-1 -6,-1 -10,-1"/>
   <path class="fil2" d="M507 226l0 0 0 0c1,2 3,4 4,6l0 0 0 0 -146 148 5 0"/>
   <path class="fil24" d="M502 221l5 5c-2,-2 -3,-3 -5,-5z"/>
   <path class="fil2" d="M486 206l0 0 0 0c2,1 3,3 5,4l-5 -4"/>
   <polyline class="fil2" points="568,467 568,467 568,467 "/>
   <polyline class="fil2" points="569,466 569,467 569,467 "/>
   <line class="fil2" x1="569" y1="466" x2="569" y2= "466" />
   <line class="fil2" x1="570" y1="466" x2="570" y2= "466" />
   <polygon class="fil25" points="569,467 569,467 569,467 569,467 "/>
   <polyline class="fil2" points="569,467 569,467 569,467 569,467 569,467 569,467 569,467 569,467 569,467 569,467 "/>
   <polygon class="fil26" points="569,467 569,467 569,467 "/>
   <polygon class="fil27" points="569,467 569,467 569,467 "/>
   <polyline class="fil2" points="570,466 570,466 570,466 569,466 569,466 569,466 569,466 569,466 569,466 570,466 "/>
   <polyline class="fil2" points="570,466 570,466 570,466 570,466 570,466 "/>
   <polygon class="fil28" points="570,466 570,466 570,466 570,466 570,466 570,466 570,466 570,466 570,466 "/>
   <polygon class="fil29" points="570,466 570,466 570,466 "/>
   <polygon class="fil30" points="571,466 571,466 571,466 571,466 571,466 571,466 "/>
   <path class="fil31" d="M565 472l0 0c2,1 5,2 7,2l-7 -2z"/>
   <polygon class="fil32" points="563,472 563,472 563,472 563,472 "/>
   <path class="fil33" d="M577 476l0 0c-2,-1 -3,-1 -5,-2l5 2z"/>
   <polygon class="fil34" points="578,477 578,477 580,477 "/>
   <path class="fil2" d="M636 597l0 0 0 0 6 5c-2,-1 -4,-3 -6,-5"/>
   <path class="fil35" d="M631 593l5 4c-2,-1 -4,-3 -5,-4z"/>
   <path class="fil36" d="M666 631l3 6c-1,-2 -2,-4 -3,-6z"/>
   <path class="fil37" d="M661 625l5 6c-2,-2 -3,-4 -5,-6z"/>
   <path class="fil38" d="M657 619l4 6c-1,-2 -3,-4 -4,-6z"/>
   <path class="fil39" d="M652 613l5 6c-2,-2 -3,-4 -5,-6z"/>
   <path class="fil40" d="M647 608l5 5c-2,-2 -3,-4 -5,-5z"/>
   <path class="fil41" d="M642 602l5 6c-2,-2 -3,-4 -5,-6z"/>
   <path class="fil42" d="M587 481l0 0c-2,-1 -4,-2 -7,-4l7 4z"/>
   <path class="fil43" d="M590 483l0 0 4 3c-1,-1 -3,-2 -4,-3z"/>
   <path class="fil44" d="M480 201l6 5c-2,-2 -4,-3 -6,-5z"/>
   <path class="fil45" d="M529 173c82,0 148,66 148,148 0,51 -26,96 -65,123l2 -2c38,27 63,71 63,121 0,27 -7,52 -20,74 -10,-17 -23,-32 -39,-44 3,-10 5,-20 5,-30 0,-47 -34,-86 -79,-93 -14,68 -73,120 -145,120 -3,0 -5,0 -7,-1 16,-16 28,-36 35,-58 31,-10 55,-35 63,-67 -12,-3 -24,-8 -35,-15 17,-10 32,-23 44,-39 10,3 20,5 30,5 52,0 94,-42 94,-94 0,-52 -42,-94 -94,-94 -10,0 -20,2 -30,5 -12,-16 -27,-29 -44,-39 22,-13 47,-20 74,-20zm-145 26l0 0c0,-14 -12,-26 -26,-26l-113 0c-14,0 -26,12 -26,26l0 0c0,15 12,26 26,26l113 0c14,0 26,-11 26,-26zm0 104l0 0c0,-14 -12,-26 -26,-26l-165 0c-14,0 -26,12 -26,26l0 0c0,14 12,26 26,26l165 0c14,0 26,-12 26,-26zm0 311l0 0c0,-15 -12,-27 -26,-27l-113 0c-14,0 -26,12 -26,27l0 0c0,14 12,26 26,26l113 0c14,0 26,-12 26,-26zm0 -105l0 0c0,-14 -12,-26 -26,-26l-163 0c-14,0 -26,12 -26,26l0 0c0,15 12,26 26,26l163 0c14,0 26,-11 26,-26zm0 -103l0 0c0,-14 -12,-26 -26,-26l-196 0c-14,0 -26,12 -26,26l0 0c0,15 12,27 26,27l196 0c14,0 26,-12 26,-27zm199 53c-1,0 -2,1 -3,1 1,0 2,-1 3,-1zm-25 7c-1,0 -2,1 -3,1 1,0 2,-1 3,-1zm-3 1c-1,0 -2,0 -3,0 1,0 2,0 3,0zm-15 2l0 0 0 0zm0 0l0 0 0 0zm0 0l0 0 0 0zm0 0l0 0 0 0zm0 0l0 0 0 0zm0 0l-1 0 1 0zm-1 0l0 0 0 0zm0 0l0 0 0 0zm0 0l0 0 0 0zm0 0l0 0 0 0zm0 0l0 0 0 0zm0 0l0 0 0 0zm0 0l0 0 0 0zm0 0l0 0 0 0zm0 0l0 0 0 0zm0 0l0 0 0 0zm0 0l-1 0 1 0zm-1 0l0 0 0 0zm0 0l0 0 0 0zm0 0l-1 0 1 0zm-1 0l0 0 0 0zm0 0l0 0 0 0zm0 0l0 0 0 0zm0 0l0 0 0 0zm0 0l0 0 0 0zm0 0l0 0 0 0zm0 0l0 0 0 0zm0 0l-1 0 1 0zm-1 0l0 0 0 0zm0 0l0 0 0 0zm0 0l0 0 0 0zm0 0l0 0 0 0zm0 0l0 0 0 0zm0 0l0 0 0 0zm0 0l0 0 0 0zm0 0l0 0 0 0zm0 0l-1 0 1 0zm-1 0l0 0 0 0zm0 0l0 0 0 0zm0 0l0 0 0 0zm0 0l0 0 0 0zm0 0l0 0 0 0zm0 0l0 0 0 0zm0 0l0 0 0 0zm0 0l0 0 0 0zm0 0l-1 0 1 0zm-1 0l0 0 0 0zm0 0l0 0 0 0zm0 0l0 0 0 0zm0 0l0 0 0 0zm0 0l0 0 0 0zm0 0l0 0 0 0zm0 0l0 0 0 0zm0 0l0 0 0 0zm0 0l0 0 0 0zm0 0l-1 0 1 0zm-1 0l0 0 0 0zm0 0l0 0 0 0zm0 0l0 0 0 0zm0 0l0 0 0 0zm0 0l0 0 0 0zm0 0l0 0 0 0zm0 0l0 0 0 0zm0 0l-1 0 1 0zm-1 0l0 0 0 0zm0 0l0 0 0 0zm0 0l0 0 0 0zm0 0l0 0 0 0zm0 0l0 0 0 0zm0 0l0 0 0 0zm0 0l0 0 0 0zm0 0l0 0 0 0zm0 0l0 0 0 0zm0 0l0 0 0 0zm0 0l0 0 0 0zm0 0l0 0 0 0zm0 0l0 0 0 0zm0 0l0 0 0 0zm0 0l0 0 0 0zm0 0l0 0 0 0zm0 0l0 0 0 0zm0 0l0 0 0 0zm0 0l0 0 0 0zm0 0l0 0 0 0zm0 0l0 0 0 0zm0 0l-1 0 1 0zm-1 0l0 0 0 0zm0 0l0 0 0 0zm0 0l0 0 0 0zm0 0l0 0 0 0zm0 0l0 0 0 0zm0 0l0 0 0 0zm0 0l0 0 0 0zm0 0l0 0 0 0zm0 0l0 0 0 0zm0 0l0 0 0 0zm0 0l0 0 0 0zm0 0l0 0 0 0zm0 0l0 0 0 0zm0 0l0 0 0 0zm0 0l0 0 0 0zm0 0l0 0 0 0zm0 0l0 0 0 0zm0 0l0 0 0 0zm0 0l0 0 0 0zm0 0l-1 0 1 0zm-1 0l0 0 0 0zm0 0l0 0 0 0zm0 0l0 0 0 0zm0 0l0 0 0 0zm0 0l0 0 0 0zm0 0l0 0 0 0zm0 0l0 0 0 0zm0 0l0 0 0 0zm0 0l0 0 0 0zm0 0l0 0 0 0zm0 0l0 0 0 0zm0 0l0 0 0 0zm0 0l0 0 0 0zm0 0l0 0 0 0zm0 0l0 0 0 0zm0 0l0 0 0 0zm0 0l0 0 0 0zm0 0l0 0 0 0zm0 0l0 0 0 0zm0 0l0 0 0 0zm0 0l0 0 0 0zm0 0l-1 0 1 0zm-1 0l0 0 0 0zm0 0l0 0 0 0zm0 0l0 0 0 0zm0 0l0 0 0 0zm0 0l0 0 0 0zm0 0l0 0 0 0zm0 0l0 0 0 0zm0 0l0 0 0 0zm0 0l0 0 0 0zm0 0l0 0 0 0zm0 0l0 0 0 0z"/>
  </g>
 </g>
</svg>
